<?xml version="1.0" encoding="utf-8" standalone="no"?>
<!DOCTYPE svg PUBLIC "-//W3C//DTD SVG 1.1//EN"
  "http://www.w3.org/Graphics/SVG/1.1/DTD/svg11.dtd">
<svg height="265.646094pt" version="1.1" viewBox="0 0 406.294812 265.646094" width="406.294812pt" xmlns="http://www.w3.org/2000/svg" xmlns:xlink="http://www.w3.org/1999/xlink">
 <metadata>
  <rdf:RDF xmlns:cc="http://creativecommons.org/ns#" xmlns:dc="http://purl.org/dc/elements/1.1/" xmlns:rdf="http://www.w3.org/1999/02/22-rdf-syntax-ns#">
   <cc:Work>
    <dc:type rdf:resource="http://purl.org/dc/dcmitype/StillImage"/>
    <dc:date>2023-04-13T13:32:11.444027</dc:date>
    <dc:format>image/svg+xml</dc:format>
    <dc:creator>
     <cc:Agent>
      <dc:title>Matplotlib v3.4.1, https://matplotlib.org/</dc:title>
     </cc:Agent>
    </dc:creator>
   </cc:Work>
  </rdf:RDF>
 </metadata>
 <defs>
  <style type="text/css">*{stroke-linecap:butt;stroke-linejoin:round;}</style>
 </defs>
 <g id="figure_1">
  <g id="patch_1">
   <path d="M 0 265.646094 
L 406.294812 265.646094 
L 406.294812 0 
L 0 0 
z
" style="fill:none;"/>
  </g>
  <g id="axes_1">
   <g id="patch_2">
    <path d="M 81.774812 198.556562 
L 399.094812 198.556562 
L 399.094812 11.936562 
L 81.774812 11.936562 
z
" style="fill:#ffffff;"/>
   </g>
   <g id="PolyCollection_1">
    <defs>
     <path d="M 106.233675 -77.920612 
L 104.91395 -77.920612 
L 104.671769 -78.443479 
L 104.373018 -78.966346 
L 104.017209 -79.489212 
L 103.608846 -80.012079 
L 103.158352 -80.534946 
L 102.682384 -81.057813 
L 102.203324 -81.580679 
L 101.747847 -82.103546 
L 101.344625 -82.626413 
L 101.02141 -83.14928 
L 100.801903 -83.672146 
L 100.702887 -84.195013 
L 100.732105 -84.71788 
L 100.887261 -85.240747 
L 101.156318 -85.763613 
L 101.51904 -86.28648 
L 101.949508 -86.809347 
L 102.419165 -87.332213 
L 102.899914 -87.85508 
L 103.366787 -88.377947 
L 103.799871 -88.900814 
L 104.185321 -89.42368 
L 104.515469 -89.946547 
L 104.788199 -90.469414 
L 105.00582 -90.992281 
L 105.173713 -91.515147 
L 105.298983 -92.038014 
L 105.389297 -92.560881 
L 105.451989 -93.083748 
L 105.49348 -93.606614 
L 105.518952 -94.129481 
L 105.532259 -94.652348 
L 105.535977 -95.175214 
L 105.531556 -95.698081 
L 105.51953 -96.220948 
L 105.499756 -96.743815 
L 105.471678 -97.266681 
L 105.434606 -97.789548 
L 105.388008 -98.312415 
L 105.331803 -98.835282 
L 105.266613 -99.358148 
L 105.193971 -99.881015 
L 105.116409 -100.403882 
L 105.03742 -100.926748 
L 104.961265 -101.449615 
L 104.892625 -101.972482 
L 104.836141 -102.495349 
L 104.795906 -103.018215 
L 104.774973 -103.541082 
L 104.774973 -104.063949 
L 104.795906 -104.586816 
L 104.836141 -105.109682 
L 104.892626 -105.632549 
L 104.961269 -106.155416 
L 105.037428 -106.678283 
L 105.116426 -107.201149 
L 105.19401 -107.724016 
L 105.266697 -108.246883 
L 105.33198 -108.769749 
L 105.388374 -109.292616 
L 105.43534 -109.815483 
L 105.473112 -110.33835 
L 105.502485 -110.861216 
L 105.524586 -111.384083 
L 105.54068 -111.90695 
L 105.552009 -112.429817 
L 105.55969 -112.952683 
L 105.564657 -113.47555 
L 105.567638 -113.998417 
L 105.56916 -114.521283 
L 105.569577 -115.04415 
L 105.569095 -115.567017 
L 105.567815 -116.089884 
L 105.565758 -116.61275 
L 105.56291 -117.135617 
L 105.559244 -117.658484 
L 105.554758 -118.181351 
L 105.549496 -118.704217 
L 105.543572 -119.227084 
L 105.53718 -119.749951 
L 105.530597 -120.272818 
L 105.524164 -120.795684 
L 105.518267 -121.318551 
L 105.513299 -121.841418 
L 105.509613 -122.364284 
L 105.507488 -122.887151 
L 105.507087 -123.410018 
L 105.508444 -123.932885 
L 105.511451 -124.455751 
L 105.515878 -124.978618 
L 105.521402 -125.501485 
L 105.527641 -126.024352 
L 105.534204 -126.547218 
L 105.540724 -127.070085 
L 105.546895 -127.592952 
L 105.552489 -128.115819 
L 105.557363 -128.638685 
L 105.561456 -129.161552 
L 105.564773 -129.684419 
L 105.582852 -129.684419 
L 105.582852 -129.684419 
L 105.586169 -129.161552 
L 105.590262 -128.638685 
L 105.595136 -128.115819 
L 105.60073 -127.592952 
L 105.606901 -127.070085 
L 105.613421 -126.547218 
L 105.619984 -126.024352 
L 105.626223 -125.501485 
L 105.631747 -124.978618 
L 105.636174 -124.455751 
L 105.639181 -123.932885 
L 105.640538 -123.410018 
L 105.640137 -122.887151 
L 105.638012 -122.364284 
L 105.634326 -121.841418 
L 105.629358 -121.318551 
L 105.623461 -120.795684 
L 105.617028 -120.272818 
L 105.610445 -119.749951 
L 105.604053 -119.227084 
L 105.598129 -118.704217 
L 105.592867 -118.181351 
L 105.588381 -117.658484 
L 105.584715 -117.135617 
L 105.581867 -116.61275 
L 105.57981 -116.089884 
L 105.57853 -115.567017 
L 105.578048 -115.04415 
L 105.578465 -114.521283 
L 105.579987 -113.998417 
L 105.582968 -113.47555 
L 105.587935 -112.952683 
L 105.595616 -112.429817 
L 105.606945 -111.90695 
L 105.623039 -111.384083 
L 105.64514 -110.861216 
L 105.674513 -110.33835 
L 105.712285 -109.815483 
L 105.759251 -109.292616 
L 105.815645 -108.769749 
L 105.880928 -108.246883 
L 105.953615 -107.724016 
L 106.031199 -107.201149 
L 106.110197 -106.678283 
L 106.186356 -106.155416 
L 106.254999 -105.632549 
L 106.311484 -105.109682 
L 106.351719 -104.586816 
L 106.372652 -104.063949 
L 106.372652 -103.541082 
L 106.351719 -103.018215 
L 106.311484 -102.495349 
L 106.255 -101.972482 
L 106.18636 -101.449615 
L 106.110205 -100.926748 
L 106.031216 -100.403882 
L 105.953654 -99.881015 
L 105.881012 -99.358148 
L 105.815822 -98.835282 
L 105.759617 -98.312415 
L 105.713019 -97.789548 
L 105.675947 -97.266681 
L 105.647869 -96.743815 
L 105.628095 -96.220948 
L 105.616069 -95.698081 
L 105.611648 -95.175214 
L 105.615366 -94.652348 
L 105.628673 -94.129481 
L 105.654145 -93.606614 
L 105.695636 -93.083748 
L 105.758328 -92.560881 
L 105.848642 -92.038014 
L 105.973912 -91.515147 
L 106.141805 -90.992281 
L 106.359426 -90.469414 
L 106.632156 -89.946547 
L 106.962304 -89.42368 
L 107.347754 -88.900814 
L 107.780838 -88.377947 
L 108.247711 -87.85508 
L 108.72846 -87.332213 
L 109.198117 -86.809347 
L 109.628585 -86.28648 
L 109.991307 -85.763613 
L 110.260364 -85.240747 
L 110.41552 -84.71788 
L 110.444738 -84.195013 
L 110.345722 -83.672146 
L 110.126215 -83.14928 
L 109.803 -82.626413 
L 109.399778 -82.103546 
L 108.944301 -81.580679 
L 108.465241 -81.057813 
L 107.989273 -80.534946 
L 107.538779 -80.012079 
L 107.130416 -79.489212 
L 106.774607 -78.966346 
L 106.475856 -78.443479 
L 106.233675 -77.920612 
z
" id="mdf8279f76f" style="stroke:#626262;stroke-width:0.5;"/>
    </defs>
    <g clip-path="url(#p18564a659d)">
     <use style="fill:#88c088;stroke:#626262;stroke-width:0.5;" x="0" xlink:href="#mdf8279f76f" y="265.646094"/>
    </g>
   </g>
   <g id="PolyCollection_2">
    <defs>
     <path d="M 139.498162 -82.224947 
L 135.113463 -82.224947 
L 131.23717 -82.857469 
L 125.567362 -83.489991 
L 121.439812 -84.122513 
L 122.320644 -84.755035 
L 127.415881 -85.387557 
L 132.744787 -86.020079 
L 135.835976 -86.6526 
L 136.974824 -87.285122 
L 137.25373 -87.917644 
L 137.300086 -88.550166 
L 137.305372 -89.182688 
L 137.305789 -89.81521 
L 137.305812 -90.447732 
L 137.305812 -91.080254 
L 137.305812 -91.712776 
L 137.305812 -92.345298 
L 137.305812 -92.97782 
L 137.305813 -93.610342 
L 137.305813 -94.242864 
L 137.305813 -94.875386 
L 137.305812 -95.507908 
L 137.305812 -96.14043 
L 137.305812 -96.772952 
L 137.305812 -97.405474 
L 137.305812 -98.037996 
L 137.305804 -98.670518 
L 137.305682 -99.30304 
L 137.304411 -99.935562 
L 137.295332 -100.568084 
L 137.251044 -101.200606 
L 137.105816 -101.833128 
L 136.795479 -102.46565 
L 136.395852 -103.098172 
L 136.172032 -103.730694 
L 136.318686 -104.363216 
L 136.705255 -104.995738 
L 137.050499 -105.62826 
L 137.229967 -106.260782 
L 137.290068 -106.893304 
L 137.303529 -107.525826 
L 137.305581 -108.158348 
L 137.305796 -108.79087 
L 137.305812 -109.423392 
L 137.305812 -110.055914 
L 137.305812 -110.688436 
L 137.305812 -111.320958 
L 137.305812 -111.95348 
L 137.305812 -112.586002 
L 137.305813 -113.218524 
L 137.305813 -113.851046 
L 137.305813 -114.483568 
L 137.305812 -115.11609 
L 137.305812 -115.748612 
L 137.305812 -116.381134 
L 137.305812 -117.013656 
L 137.305812 -117.646178 
L 137.305811 -118.2787 
L 137.305792 -118.911222 
L 137.305608 -119.543744 
L 137.304405 -120.176265 
L 137.299032 -120.808787 
L 137.282986 -121.441309 
L 137.25212 -122.073831 
L 137.217559 -122.706353 
L 137.204448 -123.338875 
L 137.224458 -123.971397 
L 137.260187 -124.603919 
L 137.287932 -125.236441 
L 137.300916 -125.868963 
L 137.304876 -126.501485 
L 137.305687 -127.134007 
L 137.305801 -127.766529 
L 137.305812 -128.399051 
L 137.305812 -129.031573 
L 137.305812 -129.664095 
L 137.305812 -130.296617 
L 137.305812 -130.929139 
L 137.305812 -131.561661 
L 137.305813 -132.194183 
L 137.305813 -132.826705 
L 137.305813 -133.459227 
L 137.305813 -134.091749 
L 137.305812 -134.724271 
L 137.305812 -135.356793 
L 137.305812 -135.989315 
L 137.305812 -136.621837 
L 137.305812 -137.254359 
L 137.305812 -137.886881 
L 137.30581 -138.519403 
L 137.305788 -139.151925 
L 137.305659 -139.784447 
L 137.30513 -140.416969 
L 137.303694 -141.049491 
L 137.301218 -141.682013 
L 137.298851 -142.314535 
L 137.298442 -142.947057 
L 137.300359 -143.579579 
L 137.302993 -144.212101 
L 137.304794 -144.844623 
L 137.306831 -144.844623 
L 137.306831 -144.844623 
L 137.308632 -144.212101 
L 137.311266 -143.579579 
L 137.313183 -142.947057 
L 137.312774 -142.314535 
L 137.310407 -141.682013 
L 137.307931 -141.049491 
L 137.306495 -140.416969 
L 137.305966 -139.784447 
L 137.305837 -139.151925 
L 137.305815 -138.519403 
L 137.305813 -137.886881 
L 137.305813 -137.254359 
L 137.305813 -136.621837 
L 137.305813 -135.989315 
L 137.305813 -135.356793 
L 137.305813 -134.724271 
L 137.305813 -134.091749 
L 137.305813 -133.459227 
L 137.305813 -132.826705 
L 137.305813 -132.194183 
L 137.305813 -131.561661 
L 137.305813 -130.929139 
L 137.305813 -130.296617 
L 137.305813 -129.664095 
L 137.305813 -129.031573 
L 137.305813 -128.399051 
L 137.305824 -127.766529 
L 137.305938 -127.134007 
L 137.306749 -126.501485 
L 137.310709 -125.868963 
L 137.323693 -125.236441 
L 137.351438 -124.603919 
L 137.387167 -123.971397 
L 137.407177 -123.338875 
L 137.394066 -122.706353 
L 137.359505 -122.073831 
L 137.328639 -121.441309 
L 137.312593 -120.808787 
L 137.30722 -120.176265 
L 137.306017 -119.543744 
L 137.305833 -118.911222 
L 137.305814 -118.2787 
L 137.305813 -117.646178 
L 137.305813 -117.013656 
L 137.305813 -116.381134 
L 137.305813 -115.748612 
L 137.305813 -115.11609 
L 137.305813 -114.483568 
L 137.305813 -113.851046 
L 137.305813 -113.218524 
L 137.305813 -112.586002 
L 137.305813 -111.95348 
L 137.305813 -111.320958 
L 137.305813 -110.688436 
L 137.305813 -110.055914 
L 137.305813 -109.423392 
L 137.305829 -108.79087 
L 137.306044 -108.158348 
L 137.308096 -107.525826 
L 137.321557 -106.893304 
L 137.381658 -106.260782 
L 137.561126 -105.62826 
L 137.90637 -104.995738 
L 138.292939 -104.363216 
L 138.439593 -103.730694 
L 138.215773 -103.098172 
L 137.816146 -102.46565 
L 137.505809 -101.833128 
L 137.360581 -101.200606 
L 137.316293 -100.568084 
L 137.307214 -99.935562 
L 137.305943 -99.30304 
L 137.305821 -98.670518 
L 137.305813 -98.037996 
L 137.305813 -97.405474 
L 137.305813 -96.772952 
L 137.305813 -96.14043 
L 137.305813 -95.507908 
L 137.305813 -94.875386 
L 137.305813 -94.242864 
L 137.305813 -93.610342 
L 137.305813 -92.97782 
L 137.305813 -92.345298 
L 137.305813 -91.712776 
L 137.305813 -91.080254 
L 137.305813 -90.447732 
L 137.305836 -89.81521 
L 137.306253 -89.182688 
L 137.311539 -88.550166 
L 137.357895 -87.917644 
L 137.636801 -87.285122 
L 138.775649 -86.6526 
L 141.866838 -86.020079 
L 147.195744 -85.387557 
L 152.290981 -84.755035 
L 153.171812 -84.122513 
L 149.044263 -83.489991 
L 143.374455 -82.857469 
L 139.498162 -82.224947 
z
" id="maf17b4da51" style="stroke:#626262;stroke-width:0.5;"/>
    </defs>
    <g clip-path="url(#p18564a659d)">
     <use style="fill:#bfb3cf;stroke:#626262;stroke-width:0.5;" x="0" xlink:href="#maf17b4da51" y="265.646094"/>
    </g>
   </g>
   <g id="PolyCollection_3">
    <defs>
     <path d="M 185.395274 -75.572259 
L 184.412351 -75.572259 
L 184.217017 -76.339178 
L 183.972987 -77.106098 
L 183.68029 -77.873018 
L 183.344052 -78.639937 
L 182.975372 -79.406857 
L 182.591442 -80.173777 
L 182.214685 -80.940697 
L 181.870842 -81.707616 
L 181.586179 -82.474536 
L 181.384215 -83.241456 
L 181.282514 -84.008375 
L 181.290153 -84.775295 
L 181.406356 -85.542215 
L 181.620571 -86.309135 
L 181.913966 -87.076054 
L 182.262014 -87.842974 
L 182.637645 -88.609894 
L 183.014353 -89.376813 
L 183.36872 -90.143733 
L 183.68201 -90.910653 
L 183.94072 -91.677573 
L 184.136231 -92.444492 
L 184.263865 -93.211412 
L 184.321751 -93.978332 
L 184.309866 -94.745252 
L 184.229545 -95.512171 
L 184.083574 -96.279091 
L 183.876798 -97.046011 
L 183.617047 -97.81293 
L 183.316012 -98.57985 
L 182.989736 -99.34677 
L 182.658374 -100.11369 
L 182.345057 -100.880609 
L 182.073892 -101.647529 
L 181.867351 -102.414449 
L 181.743487 -103.181368 
L 181.713513 -103.948288 
L 181.780228 -104.715208 
L 181.937645 -105.482128 
L 182.171885 -106.249047 
L 182.463183 -107.015967 
L 182.788579 -107.782887 
L 183.124798 -108.549807 
L 183.450794 -109.316726 
L 183.749577 -110.083646 
L 184.009148 -110.850566 
L 184.222534 -111.617485 
L 184.387149 -112.384405 
L 184.503735 -113.151325 
L 184.575221 -113.918245 
L 184.605739 -114.685164 
L 184.599966 -115.452084 
L 184.56284 -116.219004 
L 184.499585 -116.985923 
L 184.415938 -117.752843 
L 184.318386 -118.519763 
L 184.214276 -119.286683 
L 184.111673 -120.053602 
L 184.018917 -120.820522 
L 183.943942 -121.587442 
L 183.893445 -122.354361 
L 183.872093 -123.121281 
L 183.881933 -123.888201 
L 183.922138 -124.655121 
L 183.98916 -125.42204 
L 184.077263 -126.18896 
L 184.179339 -126.95588 
L 184.287845 -127.7228 
L 184.395693 -128.489719 
L 184.496951 -129.256639 
L 184.587272 -130.023559 
L 184.664016 -130.790478 
L 184.726127 -131.557398 
L 184.773823 -132.324318 
L 184.808209 -133.091238 
L 184.830898 -133.858157 
L 184.843699 -134.625077 
L 184.848409 -135.391997 
L 184.846709 -136.158916 
L 184.84014 -136.925836 
L 184.830139 -137.692756 
L 184.818073 -138.459676 
L 184.805275 -139.226595 
L 184.793031 -139.993515 
L 184.782533 -140.760435 
L 184.774803 -141.527354 
L 184.770604 -142.294274 
L 184.770362 -143.061194 
L 184.774128 -143.828114 
L 184.781577 -144.595033 
L 184.792069 -145.361953 
L 184.804738 -146.128873 
L 184.818619 -146.895793 
L 184.832765 -147.662712 
L 184.846348 -148.429632 
L 184.858735 -149.196552 
L 184.869519 -149.963471 
L 184.87851 -150.730391 
L 184.885706 -151.497311 
L 184.921919 -151.497311 
L 184.921919 -151.497311 
L 184.929115 -150.730391 
L 184.938106 -149.963471 
L 184.94889 -149.196552 
L 184.961277 -148.429632 
L 184.97486 -147.662712 
L 184.989006 -146.895793 
L 185.002887 -146.128873 
L 185.015556 -145.361953 
L 185.026048 -144.595033 
L 185.033497 -143.828114 
L 185.037263 -143.061194 
L 185.037021 -142.294274 
L 185.032822 -141.527354 
L 185.025092 -140.760435 
L 185.014594 -139.993515 
L 185.00235 -139.226595 
L 184.989552 -138.459676 
L 184.977486 -137.692756 
L 184.967485 -136.925836 
L 184.960916 -136.158916 
L 184.959216 -135.391997 
L 184.963926 -134.625077 
L 184.976727 -133.858157 
L 184.999416 -133.091238 
L 185.033802 -132.324318 
L 185.081498 -131.557398 
L 185.143609 -130.790478 
L 185.220353 -130.023559 
L 185.310674 -129.256639 
L 185.411932 -128.489719 
L 185.51978 -127.7228 
L 185.628286 -126.95588 
L 185.730362 -126.18896 
L 185.818465 -125.42204 
L 185.885487 -124.655121 
L 185.925692 -123.888201 
L 185.935532 -123.121281 
L 185.91418 -122.354361 
L 185.863683 -121.587442 
L 185.788708 -120.820522 
L 185.695952 -120.053602 
L 185.593349 -119.286683 
L 185.489239 -118.519763 
L 185.391687 -117.752843 
L 185.30804 -116.985923 
L 185.244785 -116.219004 
L 185.207659 -115.452084 
L 185.201886 -114.685164 
L 185.232404 -113.918245 
L 185.30389 -113.151325 
L 185.420476 -112.384405 
L 185.585091 -111.617485 
L 185.798477 -110.850566 
L 186.058048 -110.083646 
L 186.356831 -109.316726 
L 186.682827 -108.549807 
L 187.019046 -107.782887 
L 187.344442 -107.015967 
L 187.63574 -106.249047 
L 187.86998 -105.482128 
L 188.027397 -104.715208 
L 188.094112 -103.948288 
L 188.064138 -103.181368 
L 187.940274 -102.414449 
L 187.733733 -101.647529 
L 187.462568 -100.880609 
L 187.149251 -100.11369 
L 186.817889 -99.34677 
L 186.491613 -98.57985 
L 186.190578 -97.81293 
L 185.930827 -97.046011 
L 185.724051 -96.279091 
L 185.57808 -95.512171 
L 185.497759 -94.745252 
L 185.485874 -93.978332 
L 185.54376 -93.211412 
L 185.671394 -92.444492 
L 185.866905 -91.677573 
L 186.125615 -90.910653 
L 186.438905 -90.143733 
L 186.793272 -89.376813 
L 187.16998 -88.609894 
L 187.545611 -87.842974 
L 187.893659 -87.076054 
L 188.187054 -86.309135 
L 188.401269 -85.542215 
L 188.517472 -84.775295 
L 188.525111 -84.008375 
L 188.42341 -83.241456 
L 188.221446 -82.474536 
L 187.936783 -81.707616 
L 187.59294 -80.940697 
L 187.216183 -80.173777 
L 186.832253 -79.406857 
L 186.463573 -78.639937 
L 186.127335 -77.873018 
L 185.834638 -77.106098 
L 185.590608 -76.339178 
L 185.395274 -75.572259 
z
" id="mce58c39fe0" style="stroke:#626262;stroke-width:0.5;"/>
    </defs>
    <g clip-path="url(#p18564a659d)">
     <use style="fill:#88c088;stroke:#626262;stroke-width:0.5;" x="0" xlink:href="#mce58c39fe0" y="265.646094"/>
    </g>
   </g>
   <g id="PolyCollection_4">
    <defs>
     <path d="M 218.783049 -80.920325 
L 214.488576 -80.920325 
L 211.479991 -81.775815 
L 207.000442 -82.631304 
L 202.62086 -83.486794 
L 200.769813 -84.342283 
L 202.656176 -85.197773 
L 207.048941 -86.053262 
L 211.518869 -86.908752 
L 214.510138 -87.764241 
L 215.948529 -88.61973 
L 216.46286 -89.47522 
L 216.601938 -90.330709 
L 216.630649 -91.186199 
L 216.6352 -92.041688 
L 216.635756 -92.897178 
L 216.635808 -93.752667 
L 216.63581 -94.608157 
L 216.635786 -95.463646 
L 216.635547 -96.319136 
L 216.633711 -97.174625 
L 216.622889 -98.030115 
L 216.573954 -98.885604 
L 216.405366 -99.741094 
L 215.967625 -100.596583 
L 215.127892 -101.452072 
L 213.987245 -102.307562 
L 213.015081 -103.163051 
L 212.783387 -104.018541 
L 213.445562 -104.87403 
L 214.5796 -105.72952 
L 215.604326 -106.585009 
L 216.233084 -107.440499 
L 216.513432 -108.295988 
L 216.606868 -109.151478 
L 216.630484 -110.006967 
L 216.635049 -110.862457 
L 216.635727 -111.717946 
L 216.635805 -112.573436 
L 216.635812 -113.428925 
L 216.635812 -114.284414 
L 216.635805 -115.139904 
L 216.635736 -115.995393 
L 216.635247 -116.850883 
L 216.632544 -117.706372 
L 216.62111 -118.561862 
L 216.584334 -119.417351 
L 216.495527 -120.272841 
L 216.338266 -121.12833 
L 216.144622 -121.98382 
L 216.004714 -122.839309 
L 216.004714 -123.694799 
L 216.144622 -124.550288 
L 216.338266 -125.405778 
L 216.495527 -126.261267 
L 216.584334 -127.116756 
L 216.62111 -127.972246 
L 216.632544 -128.827735 
L 216.635247 -129.683225 
L 216.635736 -130.538714 
L 216.635805 -131.394204 
L 216.635812 -132.249693 
L 216.635812 -133.105183 
L 216.635812 -133.960672 
L 216.635811 -134.816162 
L 216.635797 -135.671651 
L 216.635705 -136.527141 
L 216.635228 -137.38263 
L 216.633341 -138.23812 
L 216.627679 -139.093609 
L 216.614981 -139.949098 
L 216.594286 -140.804588 
L 216.571383 -141.660077 
L 216.55801 -142.515567 
L 216.562689 -143.371056 
L 216.582322 -144.226546 
L 216.605359 -145.082035 
L 216.622318 -145.937525 
L 216.631158 -146.793014 
L 216.634563 -147.648504 
L 216.635552 -148.503993 
L 216.63577 -149.359483 
L 216.635807 -150.214972 
L 216.635812 -151.070462 
L 216.635812 -151.925951 
L 216.635812 -152.78144 
L 216.635812 -153.63693 
L 216.635812 -154.492419 
L 216.635809 -155.347909 
L 216.635787 -156.203398 
L 216.635683 -157.058888 
L 216.635298 -157.914377 
L 216.63422 -158.769867 
L 216.63198 -159.625356 
L 216.628632 -160.480846 
L 216.625342 -161.336335 
L 216.62393 -162.191825 
L 216.625316 -163.047314 
L 216.628596 -163.902804 
L 216.631951 -164.758293 
L 216.634204 -165.613782 
L 216.637421 -165.613782 
L 216.637421 -165.613782 
L 216.639674 -164.758293 
L 216.643029 -163.902804 
L 216.646309 -163.047314 
L 216.647695 -162.191825 
L 216.646283 -161.336335 
L 216.642993 -160.480846 
L 216.639645 -159.625356 
L 216.637405 -158.769867 
L 216.636327 -157.914377 
L 216.635942 -157.058888 
L 216.635838 -156.203398 
L 216.635816 -155.347909 
L 216.635813 -154.492419 
L 216.635813 -153.63693 
L 216.635813 -152.78144 
L 216.635813 -151.925951 
L 216.635813 -151.070462 
L 216.635818 -150.214972 
L 216.635855 -149.359483 
L 216.636073 -148.503993 
L 216.637062 -147.648504 
L 216.640467 -146.793014 
L 216.649307 -145.937525 
L 216.666266 -145.082035 
L 216.689303 -144.226546 
L 216.708936 -143.371056 
L 216.713615 -142.515567 
L 216.700242 -141.660077 
L 216.677339 -140.804588 
L 216.656644 -139.949098 
L 216.643946 -139.093609 
L 216.638284 -138.23812 
L 216.636397 -137.38263 
L 216.63592 -136.527141 
L 216.635828 -135.671651 
L 216.635814 -134.816162 
L 216.635813 -133.960672 
L 216.635813 -133.105183 
L 216.635813 -132.249693 
L 216.63582 -131.394204 
L 216.635889 -130.538714 
L 216.636378 -129.683225 
L 216.639081 -128.827735 
L 216.650515 -127.972246 
L 216.687291 -127.116756 
L 216.776098 -126.261267 
L 216.933359 -125.405778 
L 217.127003 -124.550288 
L 217.266911 -123.694799 
L 217.266911 -122.839309 
L 217.127003 -121.98382 
L 216.933359 -121.12833 
L 216.776098 -120.272841 
L 216.687291 -119.417351 
L 216.650515 -118.561862 
L 216.639081 -117.706372 
L 216.636378 -116.850883 
L 216.635889 -115.995393 
L 216.63582 -115.139904 
L 216.635813 -114.284414 
L 216.635813 -113.428925 
L 216.63582 -112.573436 
L 216.635898 -111.717946 
L 216.636576 -110.862457 
L 216.641141 -110.006967 
L 216.664757 -109.151478 
L 216.758193 -108.295988 
L 217.038541 -107.440499 
L 217.667299 -106.585009 
L 218.692025 -105.72952 
L 219.826063 -104.87403 
L 220.488238 -104.018541 
L 220.256544 -103.163051 
L 219.28438 -102.307562 
L 218.143733 -101.452072 
L 217.304 -100.596583 
L 216.866259 -99.741094 
L 216.697671 -98.885604 
L 216.648736 -98.030115 
L 216.637914 -97.174625 
L 216.636078 -96.319136 
L 216.635839 -95.463646 
L 216.635815 -94.608157 
L 216.635817 -93.752667 
L 216.635869 -92.897178 
L 216.636425 -92.041688 
L 216.640976 -91.186199 
L 216.669687 -90.330709 
L 216.808765 -89.47522 
L 217.323096 -88.61973 
L 218.761487 -87.764241 
L 221.752756 -86.908752 
L 226.222684 -86.053262 
L 230.615449 -85.197773 
L 232.501812 -84.342283 
L 230.650765 -83.486794 
L 226.271183 -82.631304 
L 221.791634 -81.775815 
L 218.783049 -80.920325 
z
" id="m18e180635f" style="stroke:#626262;stroke-width:0.5;"/>
    </defs>
    <g clip-path="url(#p18564a659d)">
     <use style="fill:#bfb3cf;stroke:#626262;stroke-width:0.5;" x="0" xlink:href="#m18e180635f" y="265.646094"/>
    </g>
   </g>
   <g id="PolyCollection_5">
    <defs>
     <path d="M 264.767431 -76.960484 
L 263.700194 -76.960484 
L 263.293326 -78.092582 
L 262.725235 -79.22468 
L 262.031516 -80.356778 
L 261.307792 -81.488875 
L 260.695696 -82.620973 
L 260.34013 -83.753071 
L 260.334006 -84.885169 
L 260.678942 -86.017266 
L 261.284488 -87.149364 
L 262.006202 -88.281462 
L 262.700334 -89.41356 
L 263.266061 -90.545657 
L 263.657888 -91.677755 
L 263.869787 -92.809853 
L 263.905783 -93.941951 
L 263.754133 -95.074048 
L 263.378076 -96.206146 
L 262.729963 -97.338244 
L 261.787623 -98.470342 
L 260.60017 -99.602439 
L 259.318171 -100.734537 
L 258.180829 -101.866635 
L 257.45016 -102.998733 
L 257.314653 -104.13083 
L 257.810818 -105.262928 
L 258.807326 -106.395026 
L 260.061172 -107.527124 
L 261.313114 -108.659221 
L 262.371251 -109.791319 
L 263.147101 -110.923417 
L 263.641584 -112.055515 
L 263.903505 -113.187612 
L 263.988028 -114.31971 
L 263.932307 -115.451808 
L 263.752242 -116.583906 
L 263.455606 -117.716003 
L 263.062473 -118.848101 
L 262.621692 -119.980199 
L 262.21261 -121.112297 
L 261.927088 -122.244394 
L 261.83779 -123.376492 
L 261.968737 -124.50859 
L 262.284999 -125.640688 
L 262.707795 -126.772785 
L 263.146172 -127.904883 
L 263.527949 -129.036981 
L 263.815847 -130.169079 
L 264.005725 -131.301176 
L 264.113533 -132.433274 
L 264.160603 -133.565372 
L 264.163896 -134.69747 
L 264.133086 -135.829567 
L 264.07304 -136.961665 
L 263.988942 -138.093763 
L 263.891041 -139.225861 
L 263.796274 -140.357958 
L 263.725315 -141.490056 
L 263.695929 -142.622154 
L 263.715982 -143.754252 
L 263.780098 -144.886349 
L 263.872009 -146.018447 
L 263.971227 -147.150545 
L 264.060343 -148.282643 
L 264.129438 -149.41474 
L 264.176442 -150.546838 
L 264.204573 -151.678936 
L 264.219021 -152.811034 
L 264.224501 -153.943131 
L 264.22423 -155.075229 
L 264.220037 -156.207327 
L 264.213039 -157.339425 
L 264.20437 -158.471522 
L 264.195583 -159.60362 
L 264.188577 -160.735718 
L 264.185085 -161.867816 
L 264.18604 -162.999913 
L 264.191186 -164.132011 
L 264.199196 -165.264109 
L 264.208227 -166.396207 
L 264.216597 -167.528304 
L 264.223258 -168.660402 
L 264.227888 -169.7925 
L 264.230695 -170.924598 
L 264.232109 -172.056695 
L 264.232536 -173.188793 
L 264.232241 -174.320891 
L 264.231361 -175.452989 
L 264.229992 -176.585086 
L 264.22828 -177.717184 
L 264.226493 -178.849282 
L 264.224991 -179.98138 
L 264.224135 -181.113477 
L 264.224151 -182.245575 
L 264.225033 -183.377673 
L 264.226552 -184.509771 
L 264.228348 -185.641869 
L 264.230069 -186.773966 
L 264.231479 -187.906064 
L 264.232488 -189.038162 
L 264.235137 -189.038162 
L 264.235137 -189.038162 
L 264.236146 -187.906064 
L 264.237556 -186.773966 
L 264.239277 -185.641869 
L 264.241073 -184.509771 
L 264.242592 -183.377673 
L 264.243474 -182.245575 
L 264.24349 -181.113477 
L 264.242634 -179.98138 
L 264.241132 -178.849282 
L 264.239345 -177.717184 
L 264.237633 -176.585086 
L 264.236264 -175.452989 
L 264.235384 -174.320891 
L 264.235089 -173.188793 
L 264.235516 -172.056695 
L 264.23693 -170.924598 
L 264.239737 -169.7925 
L 264.244367 -168.660402 
L 264.251028 -167.528304 
L 264.259398 -166.396207 
L 264.268429 -165.264109 
L 264.276439 -164.132011 
L 264.281585 -162.999913 
L 264.28254 -161.867816 
L 264.279048 -160.735718 
L 264.272042 -159.60362 
L 264.263255 -158.471522 
L 264.254586 -157.339425 
L 264.247588 -156.207327 
L 264.243395 -155.075229 
L 264.243124 -153.943131 
L 264.248604 -152.811034 
L 264.263052 -151.678936 
L 264.291183 -150.546838 
L 264.338187 -149.41474 
L 264.407282 -148.282643 
L 264.496398 -147.150545 
L 264.595616 -146.018447 
L 264.687527 -144.886349 
L 264.751643 -143.754252 
L 264.771696 -142.622154 
L 264.74231 -141.490056 
L 264.671351 -140.357958 
L 264.576584 -139.225861 
L 264.478683 -138.093763 
L 264.394585 -136.961665 
L 264.334539 -135.829567 
L 264.303729 -134.69747 
L 264.307022 -133.565372 
L 264.354092 -132.433274 
L 264.4619 -131.301176 
L 264.651778 -130.169079 
L 264.939676 -129.036981 
L 265.321453 -127.904883 
L 265.75983 -126.772785 
L 266.182626 -125.640688 
L 266.498888 -124.50859 
L 266.629835 -123.376492 
L 266.540537 -122.244394 
L 266.255015 -121.112297 
L 265.845933 -119.980199 
L 265.405152 -118.848101 
L 265.012019 -117.716003 
L 264.715383 -116.583906 
L 264.535318 -115.451808 
L 264.479597 -114.31971 
L 264.56412 -113.187612 
L 264.826041 -112.055515 
L 265.320524 -110.923417 
L 266.096374 -109.791319 
L 267.154511 -108.659221 
L 268.406453 -107.527124 
L 269.660299 -106.395026 
L 270.656807 -105.262928 
L 271.152972 -104.13083 
L 271.017465 -102.998733 
L 270.286796 -101.866635 
L 269.149454 -100.734537 
L 267.867455 -99.602439 
L 266.680002 -98.470342 
L 265.737662 -97.338244 
L 265.089549 -96.206146 
L 264.713492 -95.074048 
L 264.561842 -93.941951 
L 264.597838 -92.809853 
L 264.809737 -91.677755 
L 265.201564 -90.545657 
L 265.767291 -89.41356 
L 266.461423 -88.281462 
L 267.183137 -87.149364 
L 267.788683 -86.017266 
L 268.133619 -84.885169 
L 268.127495 -83.753071 
L 267.771929 -82.620973 
L 267.159833 -81.488875 
L 266.436109 -80.356778 
L 265.74239 -79.22468 
L 265.174299 -78.092582 
L 264.767431 -76.960484 
z
" id="m67a40a9cdd" style="stroke:#626262;stroke-width:0.5;"/>
    </defs>
    <g clip-path="url(#p18564a659d)">
     <use style="fill:#88c088;stroke:#626262;stroke-width:0.5;" x="0" xlink:href="#m67a40a9cdd" y="265.646094"/>
    </g>
   </g>
   <g id="PolyCollection_6">
    <defs>
     <path d="M 298.113285 -80.094765 
L 293.81834 -80.094765 
L 290.785198 -81.163544 
L 286.269147 -82.232323 
L 281.88424 -83.301102 
L 280.099812 -84.369881 
L 282.095978 -85.43866 
L 286.558563 -86.507439 
L 291.015398 -87.576218 
L 293.944618 -88.644997 
L 295.325544 -89.713776 
L 295.808449 -90.782555 
L 295.935804 -91.851334 
L 295.96136 -92.920113 
L 295.965158 -93.988892 
L 295.96446 -95.057671 
L 295.956623 -96.12645 
L 295.915742 -97.195228 
L 295.754067 -98.264007 
L 295.271047 -99.332786 
L 294.197128 -100.401565 
L 292.472399 -101.470344 
L 290.612321 -102.539123 
L 289.600615 -103.607902 
L 290.093973 -104.676681 
L 291.763155 -105.74546 
L 293.632024 -106.814239 
L 294.960303 -107.883018 
L 295.629689 -108.951797 
L 295.878636 -110.020576 
L 295.94827 -111.089355 
L 295.963072 -112.158134 
L 295.965459 -113.226913 
L 295.965576 -114.295692 
L 295.964286 -115.364471 
L 295.957045 -116.433249 
L 295.926688 -117.502028 
L 295.830345 -118.570807 
L 295.601893 -119.639586 
L 295.207298 -120.708365 
L 294.739194 -121.777144 
L 294.426798 -122.845923 
L 294.467634 -123.914702 
L 294.834268 -124.983481 
L 295.30273 -126.05226 
L 295.664338 -127.121039 
L 295.859466 -128.189818 
L 295.936707 -129.258597 
L 295.959632 -130.327376 
L 295.964794 -131.396155 
L 295.96568 -132.464934 
L 295.96578 -133.533713 
L 295.965655 -134.602491 
L 295.964862 -135.67127 
L 295.961335 -136.740049 
L 295.949452 -137.808828 
L 295.919432 -138.877607 
L 295.8638 -139.946386 
L 295.791729 -141.015165 
L 295.735324 -142.083944 
L 295.729041 -143.152723 
L 295.777102 -144.221502 
L 295.849118 -145.290281 
L 295.909825 -146.35906 
L 295.944971 -147.427839 
L 295.959793 -148.496618 
L 295.964464 -149.565397 
L 295.965578 -150.634176 
L 295.965781 -151.702955 
L 295.965806 -152.771734 
L 295.965787 -153.840512 
L 295.965653 -154.909291 
L 295.965022 -155.97807 
L 295.962765 -157.046849 
L 295.956696 -158.115628 
L 295.944652 -159.184407 
L 295.927708 -160.253186 
L 295.912573 -161.321965 
L 295.9081 -162.390744 
L 295.917273 -163.459523 
L 295.934138 -164.528302 
L 295.949776 -165.597081 
L 295.959513 -166.66586 
L 295.963893 -167.734639 
L 295.965359 -168.803418 
L 295.965729 -169.872197 
L 295.965801 -170.940976 
L 295.965811 -172.009754 
L 295.96581 -173.078533 
L 295.965794 -174.147312 
L 295.965717 -175.216091 
L 295.965423 -176.28487 
L 295.964582 -177.353649 
L 295.962799 -178.422428 
L 295.960086 -179.491207 
L 295.957369 -180.559986 
L 295.956154 -181.628765 
L 295.957241 -182.697544 
L 295.95991 -183.766323 
L 295.962659 -184.835102 
L 295.964505 -185.903881 
L 295.96712 -185.903881 
L 295.96712 -185.903881 
L 295.968966 -184.835102 
L 295.971715 -183.766323 
L 295.974384 -182.697544 
L 295.975471 -181.628765 
L 295.974256 -180.559986 
L 295.971539 -179.491207 
L 295.968826 -178.422428 
L 295.967043 -177.353649 
L 295.966202 -176.28487 
L 295.965908 -175.216091 
L 295.965831 -174.147312 
L 295.965815 -173.078533 
L 295.965814 -172.009754 
L 295.965824 -170.940976 
L 295.965896 -169.872197 
L 295.966266 -168.803418 
L 295.967732 -167.734639 
L 295.972112 -166.66586 
L 295.981849 -165.597081 
L 295.997487 -164.528302 
L 296.014352 -163.459523 
L 296.023525 -162.390744 
L 296.019052 -161.321965 
L 296.003917 -160.253186 
L 295.986973 -159.184407 
L 295.974929 -158.115628 
L 295.96886 -157.046849 
L 295.966603 -155.97807 
L 295.965972 -154.909291 
L 295.965838 -153.840512 
L 295.965819 -152.771734 
L 295.965844 -151.702955 
L 295.966047 -150.634176 
L 295.967161 -149.565397 
L 295.971832 -148.496618 
L 295.986654 -147.427839 
L 296.0218 -146.35906 
L 296.082507 -145.290281 
L 296.154523 -144.221502 
L 296.202584 -143.152723 
L 296.196301 -142.083944 
L 296.139896 -141.015165 
L 296.067825 -139.946386 
L 296.012193 -138.877607 
L 295.982173 -137.808828 
L 295.97029 -136.740049 
L 295.966763 -135.67127 
L 295.96597 -134.602491 
L 295.965845 -133.533713 
L 295.965945 -132.464934 
L 295.966831 -131.396155 
L 295.971993 -130.327376 
L 295.994918 -129.258597 
L 296.072159 -128.189818 
L 296.267287 -127.121039 
L 296.628895 -126.05226 
L 297.097357 -124.983481 
L 297.463991 -123.914702 
L 297.504827 -122.845923 
L 297.192431 -121.777144 
L 296.724327 -120.708365 
L 296.329732 -119.639586 
L 296.10128 -118.570807 
L 296.004937 -117.502028 
L 295.97458 -116.433249 
L 295.967339 -115.364471 
L 295.966049 -114.295692 
L 295.966166 -113.226913 
L 295.968553 -112.158134 
L 295.983355 -111.089355 
L 296.052989 -110.020576 
L 296.301936 -108.951797 
L 296.971322 -107.883018 
L 298.299601 -106.814239 
L 300.16847 -105.74546 
L 301.837652 -104.676681 
L 302.33101 -103.607902 
L 301.319304 -102.539123 
L 299.459226 -101.470344 
L 297.734497 -100.401565 
L 296.660578 -99.332786 
L 296.177558 -98.264007 
L 296.015883 -97.195228 
L 295.975002 -96.12645 
L 295.967165 -95.057671 
L 295.966467 -93.988892 
L 295.970265 -92.920113 
L 295.995821 -91.851334 
L 296.123176 -90.782555 
L 296.606081 -89.713776 
L 297.987007 -88.644997 
L 300.916227 -87.576218 
L 305.373062 -86.507439 
L 309.835647 -85.43866 
L 311.831813 -84.369881 
L 310.047385 -83.301102 
L 305.662478 -82.232323 
L 301.146427 -81.163544 
L 298.113285 -80.094765 
z
" id="m4336e24457" style="stroke:#626262;stroke-width:0.5;"/>
    </defs>
    <g clip-path="url(#p18564a659d)">
     <use style="fill:#bfb3cf;stroke:#626262;stroke-width:0.5;" x="0" xlink:href="#m4336e24457" y="265.646094"/>
    </g>
   </g>
   <g id="PolyCollection_7">
    <defs>
     <path d="M 344.107547 -75.984787 
L 343.020078 -75.984787 
L 342.499705 -77.529818 
L 341.747659 -79.07485 
L 340.860548 -80.619882 
L 340.054724 -82.164914 
L 339.591216 -83.709946 
L 339.641393 -85.254977 
L 340.18492 -86.800009 
L 341.01976 -88.345041 
L 341.872646 -89.890073 
L 342.517387 -91.435105 
L 342.817572 -92.980137 
L 342.69157 -94.525168 
L 342.06925 -96.0702 
L 340.913694 -97.615232 
L 339.316848 -99.160264 
L 337.589196 -100.705296 
L 336.225072 -102.250327 
L 335.700681 -103.795359 
L 336.215831 -105.340391 
L 337.574349 -106.885423 
L 339.301941 -108.430455 
L 340.904654 -109.975487 
L 342.07318 -111.520518 
L 342.720417 -113.06555 
L 342.892768 -114.610582 
L 342.671259 -116.155614 
L 342.14171 -117.700646 
L 341.428368 -119.245677 
L 340.725599 -120.790709 
L 340.26519 -122.335741 
L 340.218786 -123.880773 
L 340.605186 -125.425805 
L 341.281078 -126.970836 
L 342.025849 -128.515868 
L 342.653686 -130.0609 
L 343.07559 -131.605932 
L 343.289485 -133.150964 
L 343.333823 -134.695996 
L 343.251266 -136.241027 
L 343.082188 -137.786059 
L 342.876374 -139.331091 
L 342.698358 -140.876123 
L 342.611655 -142.421155 
L 342.649902 -143.966186 
L 342.798725 -145.511218 
L 343.00511 -147.05625 
L 343.207599 -148.601282 
L 343.364492 -150.146314 
L 343.463144 -151.691346 
L 343.511478 -153.236377 
L 343.524257 -154.781409 
L 343.514583 -156.326441 
L 343.492657 -157.871473 
L 343.467855 -159.416505 
L 343.449507 -160.961536 
L 343.444791 -162.506568 
L 343.455683 -164.0516 
L 343.478125 -165.596632 
L 343.504551 -167.141664 
L 343.527925 -168.686696 
L 343.544436 -170.231727 
L 343.553607 -171.776759 
L 343.556764 -173.321791 
L 343.555552 -174.866823 
L 343.551409 -176.411855 
L 343.545818 -177.956886 
L 343.540587 -179.501918 
L 343.537573 -181.04695 
L 343.537943 -182.591982 
L 343.541568 -184.137014 
L 343.54713 -185.682046 
L 343.552902 -187.227077 
L 343.557589 -188.772109 
L 343.560717 -190.317141 
L 343.56247 -191.862173 
L 343.563304 -193.407205 
L 343.563645 -194.952236 
L 343.563764 -196.497268 
L 343.5638 -198.0423 
L 343.56381 -199.587332 
L 343.563812 -201.132364 
L 343.563811 -202.677395 
L 343.563806 -204.222427 
L 343.563788 -205.767459 
L 343.563728 -207.312491 
L 343.563556 -208.857523 
L 343.563135 -210.402555 
L 343.562254 -211.947586 
L 343.560683 -213.492618 
L 343.558332 -215.03765 
L 343.555444 -216.582682 
L 343.552668 -218.127714 
L 343.550869 -219.672745 
L 343.550702 -221.217777 
L 343.552231 -222.762809 
L 343.554891 -224.307841 
L 343.557819 -225.852873 
L 343.560301 -227.397905 
L 343.562018 -228.942936 
L 343.565607 -228.942936 
L 343.565607 -228.942936 
L 343.567324 -227.397905 
L 343.569806 -225.852873 
L 343.572734 -224.307841 
L 343.575394 -222.762809 
L 343.576923 -221.217777 
L 343.576756 -219.672745 
L 343.574957 -218.127714 
L 343.572181 -216.582682 
L 343.569293 -215.03765 
L 343.566942 -213.492618 
L 343.565371 -211.947586 
L 343.56449 -210.402555 
L 343.564069 -208.857523 
L 343.563897 -207.312491 
L 343.563837 -205.767459 
L 343.563819 -204.222427 
L 343.563814 -202.677395 
L 343.563813 -201.132364 
L 343.563815 -199.587332 
L 343.563825 -198.0423 
L 343.563861 -196.497268 
L 343.56398 -194.952236 
L 343.564321 -193.407205 
L 343.565155 -191.862173 
L 343.566908 -190.317141 
L 343.570036 -188.772109 
L 343.574723 -187.227077 
L 343.580495 -185.682046 
L 343.586057 -184.137014 
L 343.589682 -182.591982 
L 343.590052 -181.04695 
L 343.587038 -179.501918 
L 343.581807 -177.956886 
L 343.576216 -176.411855 
L 343.572073 -174.866823 
L 343.570861 -173.321791 
L 343.574018 -171.776759 
L 343.583189 -170.231727 
L 343.5997 -168.686696 
L 343.623074 -167.141664 
L 343.6495 -165.596632 
L 343.671942 -164.0516 
L 343.682834 -162.506568 
L 343.678118 -160.961536 
L 343.65977 -159.416505 
L 343.634968 -157.871473 
L 343.613042 -156.326441 
L 343.603368 -154.781409 
L 343.616147 -153.236377 
L 343.664481 -151.691346 
L 343.763133 -150.146314 
L 343.920026 -148.601282 
L 344.122515 -147.05625 
L 344.3289 -145.511218 
L 344.477723 -143.966186 
L 344.51597 -142.421155 
L 344.429267 -140.876123 
L 344.251251 -139.331091 
L 344.045437 -137.786059 
L 343.876359 -136.241027 
L 343.793802 -134.695996 
L 343.83814 -133.150964 
L 344.052035 -131.605932 
L 344.473939 -130.0609 
L 345.101776 -128.515868 
L 345.846547 -126.970836 
L 346.522439 -125.425805 
L 346.908839 -123.880773 
L 346.862435 -122.335741 
L 346.402026 -120.790709 
L 345.699257 -119.245677 
L 344.985915 -117.700646 
L 344.456366 -116.155614 
L 344.234857 -114.610582 
L 344.407208 -113.06555 
L 345.054445 -111.520518 
L 346.222971 -109.975487 
L 347.825684 -108.430455 
L 349.553276 -106.885423 
L 350.911794 -105.340391 
L 351.426944 -103.795359 
L 350.902553 -102.250327 
L 349.538429 -100.705296 
L 347.810777 -99.160264 
L 346.213931 -97.615232 
L 345.058375 -96.0702 
L 344.436055 -94.525168 
L 344.310053 -92.980137 
L 344.610238 -91.435105 
L 345.254979 -89.890073 
L 346.107865 -88.345041 
L 346.942705 -86.800009 
L 347.486232 -85.254977 
L 347.536409 -83.709946 
L 347.072901 -82.164914 
L 346.267077 -80.619882 
L 345.379966 -79.07485 
L 344.62792 -77.529818 
L 344.107547 -75.984787 
z
" id="m4e40dd59fe" style="stroke:#626262;stroke-width:0.5;"/>
    </defs>
    <g clip-path="url(#p18564a659d)">
     <use style="fill:#88c088;stroke:#626262;stroke-width:0.5;" x="0" xlink:href="#m4e40dd59fe" y="265.646094"/>
    </g>
   </g>
   <g id="PolyCollection_8">
    <defs>
     <path d="M 377.446207 -79.165457 
L 373.145418 -79.165457 
L 368.920212 -80.842845 
L 362.883932 -82.520232 
L 359.429813 -84.197619 
L 361.97868 -85.875007 
L 367.956297 -87.552394 
L 372.639754 -89.229781 
L 374.664649 -90.907169 
L 375.196712 -92.584556 
L 375.277252 -94.261943 
L 375.220024 -95.939331 
L 374.858517 -97.616718 
L 373.624314 -99.294105 
L 371.10035 -100.971493 
L 368.381211 -102.64888 
L 367.812948 -104.326267 
L 369.978624 -106.003655 
L 372.814911 -107.681042 
L 374.535747 -109.358429 
L 375.142882 -111.035817 
L 375.275076 -112.713204 
L 375.287891 -114.390591 
L 375.2494 -116.067979 
L 375.067553 -117.745366 
L 374.557136 -119.422753 
L 373.726177 -121.100141 
L 373.105747 -122.777528 
L 373.28936 -124.454916 
L 374.088794 -126.132303 
L 374.819039 -127.80969 
L 375.172153 -129.487078 
L 375.274729 -131.164465 
L 375.293098 -132.841852 
L 375.292158 -134.51924 
L 375.273678 -136.196627 
L 375.203492 -137.874014 
L 375.042883 -139.551402 
L 374.840809 -141.228789 
L 374.758355 -142.906176 
L 374.878956 -144.583564 
L 375.083516 -146.260951 
L 375.22482 -147.938338 
L 375.280223 -149.615726 
L 375.293548 -151.293113 
L 375.295384 -152.9705 
L 375.294034 -154.647888 
L 375.286318 -156.325275 
L 375.262275 -158.002662 
L 375.218026 -159.68005 
L 375.177348 -161.357437 
L 375.177348 -163.034824 
L 375.218026 -164.712212 
L 375.262275 -166.389599 
L 375.286318 -168.066986 
L 375.294047 -169.744374 
L 375.295593 -171.421761 
L 375.295751 -173.099148 
L 375.295502 -174.776536 
L 375.294402 -176.453923 
L 375.291595 -178.13131 
L 375.287531 -179.808698 
L 375.285135 -181.486085 
L 375.286773 -183.163472 
L 375.290787 -184.84086 
L 375.293978 -186.518247 
L 375.295373 -188.195634 
L 375.295742 -189.873022 
L 375.295794 -191.550409 
L 375.295711 -193.227796 
L 375.295219 -194.905184 
L 375.293524 -196.582571 
L 375.290019 -198.259958 
L 375.286182 -199.937346 
L 375.2853 -201.614733 
L 375.288278 -203.29212 
L 375.292267 -204.969508 
L 375.294717 -206.646895 
L 375.29559 -208.324282 
L 375.295783 -210.00167 
L 375.29581 -211.679057 
L 375.295812 -213.356445 
L 375.295812 -215.033832 
L 375.295812 -216.711219 
L 375.295812 -218.388607 
L 375.295812 -220.065994 
L 375.295812 -221.743381 
L 375.295812 -223.420769 
L 375.295812 -225.098156 
L 375.295812 -226.775543 
L 375.295812 -228.452931 
L 375.29581 -230.130318 
L 375.29579 -231.807705 
L 375.295671 -233.485093 
L 375.295216 -235.16248 
L 375.294165 -236.839867 
L 375.292823 -238.517255 
L 375.29225 -240.194642 
L 375.293026 -241.872029 
L 375.294381 -243.549417 
L 375.29533 -245.226804 
L 375.296295 -245.226804 
L 375.296295 -245.226804 
L 375.297244 -243.549417 
L 375.298599 -241.872029 
L 375.299375 -240.194642 
L 375.298802 -238.517255 
L 375.29746 -236.839867 
L 375.296409 -235.16248 
L 375.295954 -233.485093 
L 375.295835 -231.807705 
L 375.295815 -230.130318 
L 375.295813 -228.452931 
L 375.295813 -226.775543 
L 375.295813 -225.098156 
L 375.295813 -223.420769 
L 375.295813 -221.743381 
L 375.295813 -220.065994 
L 375.295813 -218.388607 
L 375.295813 -216.711219 
L 375.295813 -215.033832 
L 375.295813 -213.356445 
L 375.295815 -211.679057 
L 375.295842 -210.00167 
L 375.296035 -208.324282 
L 375.296908 -206.646895 
L 375.299358 -204.969508 
L 375.303347 -203.29212 
L 375.306325 -201.614733 
L 375.305443 -199.937346 
L 375.301606 -198.259958 
L 375.298101 -196.582571 
L 375.296406 -194.905184 
L 375.295914 -193.227796 
L 375.295831 -191.550409 
L 375.295883 -189.873022 
L 375.296252 -188.195634 
L 375.297647 -186.518247 
L 375.300838 -184.84086 
L 375.304852 -183.163472 
L 375.30649 -181.486085 
L 375.304094 -179.808698 
L 375.30003 -178.13131 
L 375.297223 -176.453923 
L 375.296123 -174.776536 
L 375.295874 -173.099148 
L 375.296032 -171.421761 
L 375.297578 -169.744374 
L 375.305307 -168.066986 
L 375.32935 -166.389599 
L 375.373599 -164.712212 
L 375.414277 -163.034824 
L 375.414277 -161.357437 
L 375.373599 -159.68005 
L 375.32935 -158.002662 
L 375.305307 -156.325275 
L 375.297591 -154.647888 
L 375.296241 -152.9705 
L 375.298077 -151.293113 
L 375.311402 -149.615726 
L 375.366805 -147.938338 
L 375.508109 -146.260951 
L 375.712669 -144.583564 
L 375.83327 -142.906176 
L 375.750816 -141.228789 
L 375.548742 -139.551402 
L 375.388133 -137.874014 
L 375.317947 -136.196627 
L 375.299467 -134.51924 
L 375.298527 -132.841852 
L 375.316896 -131.164465 
L 375.419472 -129.487078 
L 375.772586 -127.80969 
L 376.502831 -126.132303 
L 377.302265 -124.454916 
L 377.485878 -122.777528 
L 376.865448 -121.100141 
L 376.034489 -119.422753 
L 375.524072 -117.745366 
L 375.342225 -116.067979 
L 375.303734 -114.390591 
L 375.316549 -112.713204 
L 375.448743 -111.035817 
L 376.055878 -109.358429 
L 377.776714 -107.681042 
L 380.613001 -106.003655 
L 382.778677 -104.326267 
L 382.210414 -102.64888 
L 379.491275 -100.971493 
L 376.967311 -99.294105 
L 375.733108 -97.616718 
L 375.371601 -95.939331 
L 375.314373 -94.261943 
L 375.394913 -92.584556 
L 375.926976 -90.907169 
L 377.951871 -89.229781 
L 382.635328 -87.552394 
L 388.612945 -85.875007 
L 391.161812 -84.197619 
L 387.707693 -82.520232 
L 381.671413 -80.842845 
L 377.446207 -79.165457 
z
" id="m5963efd93a" style="stroke:#626262;stroke-width:0.5;"/>
    </defs>
    <g clip-path="url(#p18564a659d)">
     <use style="fill:#bfb3cf;stroke:#626262;stroke-width:0.5;" x="0" xlink:href="#m5963efd93a" y="265.646094"/>
    </g>
   </g>
   <g id="patch_3">
    <path clip-path="url(#p18564a659d)" d="M 121.439812 200.772655 
L 121.439812 200.772655 
L 121.439812 200.772655 
L 121.439812 200.772655 
z
" style="fill:#88c088;stroke:#626262;stroke-linejoin:miter;stroke-width:0.25;"/>
   </g>
   <g id="patch_4">
    <path clip-path="url(#p18564a659d)" d="M 121.439812 200.772655 
L 121.439812 200.772655 
L 121.439812 200.772655 
L 121.439812 200.772655 
z
" style="fill:#bfb3cf;stroke:#626262;stroke-linejoin:miter;stroke-width:0.25;"/>
   </g>
   <g id="matplotlib.axis_1">
    <g id="xtick_1">
     <g id="line2d_1">
      <defs>
       <path d="M 0 0 
L 0 9 
" id="m63442c1ef1" style="stroke:#000000;stroke-width:1.875;"/>
      </defs>
      <g>
       <use style="stroke:#000000;stroke-width:1.875;" x="121.439812" xlink:href="#m63442c1ef1" y="208.556562"/>
      </g>
     </g>
     <g id="text_1">
      <!-- 1-4 -->
      <g transform="translate(107.965242 233.593984)scale(0.165 -0.165)">
       <defs>
        <path d="M 794 531 
L 1825 531 
L 1825 4091 
L 703 3866 
L 703 4441 
L 1819 4666 
L 2450 4666 
L 2450 531 
L 3481 531 
L 3481 0 
L 794 0 
L 794 531 
z
" id="DejaVuSans-31" transform="scale(0.015625)"/>
        <path d="M 313 2009 
L 1997 2009 
L 1997 1497 
L 313 1497 
L 313 2009 
z
" id="DejaVuSans-2d" transform="scale(0.015625)"/>
        <path d="M 2419 4116 
L 825 1625 
L 2419 1625 
L 2419 4116 
z
M 2253 4666 
L 3047 4666 
L 3047 1625 
L 3713 1625 
L 3713 1100 
L 3047 1100 
L 3047 0 
L 2419 0 
L 2419 1100 
L 313 1100 
L 313 1709 
L 2253 4666 
z
" id="DejaVuSans-34" transform="scale(0.015625)"/>
       </defs>
       <use xlink:href="#DejaVuSans-31"/>
       <use x="63.623047" xlink:href="#DejaVuSans-2d"/>
       <use x="99.707031" xlink:href="#DejaVuSans-34"/>
      </g>
     </g>
    </g>
    <g id="xtick_2">
     <g id="line2d_2">
      <g>
       <use style="stroke:#000000;stroke-width:1.875;" x="200.769813" xlink:href="#m63442c1ef1" y="208.556562"/>
      </g>
     </g>
     <g id="text_2">
      <!-- 5-8 -->
      <g transform="translate(187.295242 233.593984)scale(0.165 -0.165)">
       <defs>
        <path d="M 691 4666 
L 3169 4666 
L 3169 4134 
L 1269 4134 
L 1269 2991 
Q 1406 3038 1543 3061 
Q 1681 3084 1819 3084 
Q 2600 3084 3056 2656 
Q 3513 2228 3513 1497 
Q 3513 744 3044 326 
Q 2575 -91 1722 -91 
Q 1428 -91 1123 -41 
Q 819 9 494 109 
L 494 744 
Q 775 591 1075 516 
Q 1375 441 1709 441 
Q 2250 441 2565 725 
Q 2881 1009 2881 1497 
Q 2881 1984 2565 2268 
Q 2250 2553 1709 2553 
Q 1456 2553 1204 2497 
Q 953 2441 691 2322 
L 691 4666 
z
" id="DejaVuSans-35" transform="scale(0.015625)"/>
        <path d="M 2034 2216 
Q 1584 2216 1326 1975 
Q 1069 1734 1069 1313 
Q 1069 891 1326 650 
Q 1584 409 2034 409 
Q 2484 409 2743 651 
Q 3003 894 3003 1313 
Q 3003 1734 2745 1975 
Q 2488 2216 2034 2216 
z
M 1403 2484 
Q 997 2584 770 2862 
Q 544 3141 544 3541 
Q 544 4100 942 4425 
Q 1341 4750 2034 4750 
Q 2731 4750 3128 4425 
Q 3525 4100 3525 3541 
Q 3525 3141 3298 2862 
Q 3072 2584 2669 2484 
Q 3125 2378 3379 2068 
Q 3634 1759 3634 1313 
Q 3634 634 3220 271 
Q 2806 -91 2034 -91 
Q 1263 -91 848 271 
Q 434 634 434 1313 
Q 434 1759 690 2068 
Q 947 2378 1403 2484 
z
M 1172 3481 
Q 1172 3119 1398 2916 
Q 1625 2713 2034 2713 
Q 2441 2713 2670 2916 
Q 2900 3119 2900 3481 
Q 2900 3844 2670 4047 
Q 2441 4250 2034 4250 
Q 1625 4250 1398 4047 
Q 1172 3844 1172 3481 
z
" id="DejaVuSans-38" transform="scale(0.015625)"/>
       </defs>
       <use xlink:href="#DejaVuSans-35"/>
       <use x="63.623047" xlink:href="#DejaVuSans-2d"/>
       <use x="99.707031" xlink:href="#DejaVuSans-38"/>
      </g>
     </g>
    </g>
    <g id="xtick_3">
     <g id="line2d_3">
      <g>
       <use style="stroke:#000000;stroke-width:1.875;" x="280.099812" xlink:href="#m63442c1ef1" y="208.556562"/>
      </g>
     </g>
     <g id="text_3">
      <!-- 9-12 -->
      <g transform="translate(261.37618 233.593984)scale(0.165 -0.165)">
       <defs>
        <path d="M 703 97 
L 703 672 
Q 941 559 1184 500 
Q 1428 441 1663 441 
Q 2288 441 2617 861 
Q 2947 1281 2994 2138 
Q 2813 1869 2534 1725 
Q 2256 1581 1919 1581 
Q 1219 1581 811 2004 
Q 403 2428 403 3163 
Q 403 3881 828 4315 
Q 1253 4750 1959 4750 
Q 2769 4750 3195 4129 
Q 3622 3509 3622 2328 
Q 3622 1225 3098 567 
Q 2575 -91 1691 -91 
Q 1453 -91 1209 -44 
Q 966 3 703 97 
z
M 1959 2075 
Q 2384 2075 2632 2365 
Q 2881 2656 2881 3163 
Q 2881 3666 2632 3958 
Q 2384 4250 1959 4250 
Q 1534 4250 1286 3958 
Q 1038 3666 1038 3163 
Q 1038 2656 1286 2365 
Q 1534 2075 1959 2075 
z
" id="DejaVuSans-39" transform="scale(0.015625)"/>
        <path d="M 1228 531 
L 3431 531 
L 3431 0 
L 469 0 
L 469 531 
Q 828 903 1448 1529 
Q 2069 2156 2228 2338 
Q 2531 2678 2651 2914 
Q 2772 3150 2772 3378 
Q 2772 3750 2511 3984 
Q 2250 4219 1831 4219 
Q 1534 4219 1204 4116 
Q 875 4013 500 3803 
L 500 4441 
Q 881 4594 1212 4672 
Q 1544 4750 1819 4750 
Q 2544 4750 2975 4387 
Q 3406 4025 3406 3419 
Q 3406 3131 3298 2873 
Q 3191 2616 2906 2266 
Q 2828 2175 2409 1742 
Q 1991 1309 1228 531 
z
" id="DejaVuSans-32" transform="scale(0.015625)"/>
       </defs>
       <use xlink:href="#DejaVuSans-39"/>
       <use x="63.623047" xlink:href="#DejaVuSans-2d"/>
       <use x="99.707031" xlink:href="#DejaVuSans-31"/>
       <use x="163.330078" xlink:href="#DejaVuSans-32"/>
      </g>
     </g>
    </g>
    <g id="xtick_4">
     <g id="line2d_4">
      <g>
       <use style="stroke:#000000;stroke-width:1.875;" x="359.429813" xlink:href="#m63442c1ef1" y="208.556562"/>
      </g>
     </g>
     <g id="text_4">
      <!-- 13-16 -->
      <g transform="translate(335.457117 233.593984)scale(0.165 -0.165)">
       <defs>
        <path d="M 2597 2516 
Q 3050 2419 3304 2112 
Q 3559 1806 3559 1356 
Q 3559 666 3084 287 
Q 2609 -91 1734 -91 
Q 1441 -91 1130 -33 
Q 819 25 488 141 
L 488 750 
Q 750 597 1062 519 
Q 1375 441 1716 441 
Q 2309 441 2620 675 
Q 2931 909 2931 1356 
Q 2931 1769 2642 2001 
Q 2353 2234 1838 2234 
L 1294 2234 
L 1294 2753 
L 1863 2753 
Q 2328 2753 2575 2939 
Q 2822 3125 2822 3475 
Q 2822 3834 2567 4026 
Q 2313 4219 1838 4219 
Q 1578 4219 1281 4162 
Q 984 4106 628 3988 
L 628 4550 
Q 988 4650 1302 4700 
Q 1616 4750 1894 4750 
Q 2613 4750 3031 4423 
Q 3450 4097 3450 3541 
Q 3450 3153 3228 2886 
Q 3006 2619 2597 2516 
z
" id="DejaVuSans-33" transform="scale(0.015625)"/>
        <path d="M 2113 2584 
Q 1688 2584 1439 2293 
Q 1191 2003 1191 1497 
Q 1191 994 1439 701 
Q 1688 409 2113 409 
Q 2538 409 2786 701 
Q 3034 994 3034 1497 
Q 3034 2003 2786 2293 
Q 2538 2584 2113 2584 
z
M 3366 4563 
L 3366 3988 
Q 3128 4100 2886 4159 
Q 2644 4219 2406 4219 
Q 1781 4219 1451 3797 
Q 1122 3375 1075 2522 
Q 1259 2794 1537 2939 
Q 1816 3084 2150 3084 
Q 2853 3084 3261 2657 
Q 3669 2231 3669 1497 
Q 3669 778 3244 343 
Q 2819 -91 2113 -91 
Q 1303 -91 875 529 
Q 447 1150 447 2328 
Q 447 3434 972 4092 
Q 1497 4750 2381 4750 
Q 2619 4750 2861 4703 
Q 3103 4656 3366 4563 
z
" id="DejaVuSans-36" transform="scale(0.015625)"/>
       </defs>
       <use xlink:href="#DejaVuSans-31"/>
       <use x="63.623047" xlink:href="#DejaVuSans-33"/>
       <use x="127.246094" xlink:href="#DejaVuSans-2d"/>
       <use x="163.330078" xlink:href="#DejaVuSans-31"/>
       <use x="226.953125" xlink:href="#DejaVuSans-36"/>
      </g>
     </g>
    </g>
    <g id="text_5">
     <!-- academic age at grant award -->
     <g transform="translate(107.9295 254.702656)scale(0.18 -0.18)">
      <defs>
       <path d="M 2194 1759 
Q 1497 1759 1228 1600 
Q 959 1441 959 1056 
Q 959 750 1161 570 
Q 1363 391 1709 391 
Q 2188 391 2477 730 
Q 2766 1069 2766 1631 
L 2766 1759 
L 2194 1759 
z
M 3341 1997 
L 3341 0 
L 2766 0 
L 2766 531 
Q 2569 213 2275 61 
Q 1981 -91 1556 -91 
Q 1019 -91 701 211 
Q 384 513 384 1019 
Q 384 1609 779 1909 
Q 1175 2209 1959 2209 
L 2766 2209 
L 2766 2266 
Q 2766 2663 2505 2880 
Q 2244 3097 1772 3097 
Q 1472 3097 1187 3025 
Q 903 2953 641 2809 
L 641 3341 
Q 956 3463 1253 3523 
Q 1550 3584 1831 3584 
Q 2591 3584 2966 3190 
Q 3341 2797 3341 1997 
z
" id="DejaVuSans-61" transform="scale(0.015625)"/>
       <path d="M 3122 3366 
L 3122 2828 
Q 2878 2963 2633 3030 
Q 2388 3097 2138 3097 
Q 1578 3097 1268 2742 
Q 959 2388 959 1747 
Q 959 1106 1268 751 
Q 1578 397 2138 397 
Q 2388 397 2633 464 
Q 2878 531 3122 666 
L 3122 134 
Q 2881 22 2623 -34 
Q 2366 -91 2075 -91 
Q 1284 -91 818 406 
Q 353 903 353 1747 
Q 353 2603 823 3093 
Q 1294 3584 2113 3584 
Q 2378 3584 2631 3529 
Q 2884 3475 3122 3366 
z
" id="DejaVuSans-63" transform="scale(0.015625)"/>
       <path d="M 2906 2969 
L 2906 4863 
L 3481 4863 
L 3481 0 
L 2906 0 
L 2906 525 
Q 2725 213 2448 61 
Q 2172 -91 1784 -91 
Q 1150 -91 751 415 
Q 353 922 353 1747 
Q 353 2572 751 3078 
Q 1150 3584 1784 3584 
Q 2172 3584 2448 3432 
Q 2725 3281 2906 2969 
z
M 947 1747 
Q 947 1113 1208 752 
Q 1469 391 1925 391 
Q 2381 391 2643 752 
Q 2906 1113 2906 1747 
Q 2906 2381 2643 2742 
Q 2381 3103 1925 3103 
Q 1469 3103 1208 2742 
Q 947 2381 947 1747 
z
" id="DejaVuSans-64" transform="scale(0.015625)"/>
       <path d="M 3597 1894 
L 3597 1613 
L 953 1613 
Q 991 1019 1311 708 
Q 1631 397 2203 397 
Q 2534 397 2845 478 
Q 3156 559 3463 722 
L 3463 178 
Q 3153 47 2828 -22 
Q 2503 -91 2169 -91 
Q 1331 -91 842 396 
Q 353 884 353 1716 
Q 353 2575 817 3079 
Q 1281 3584 2069 3584 
Q 2775 3584 3186 3129 
Q 3597 2675 3597 1894 
z
M 3022 2063 
Q 3016 2534 2758 2815 
Q 2500 3097 2075 3097 
Q 1594 3097 1305 2825 
Q 1016 2553 972 2059 
L 3022 2063 
z
" id="DejaVuSans-65" transform="scale(0.015625)"/>
       <path d="M 3328 2828 
Q 3544 3216 3844 3400 
Q 4144 3584 4550 3584 
Q 5097 3584 5394 3201 
Q 5691 2819 5691 2113 
L 5691 0 
L 5113 0 
L 5113 2094 
Q 5113 2597 4934 2840 
Q 4756 3084 4391 3084 
Q 3944 3084 3684 2787 
Q 3425 2491 3425 1978 
L 3425 0 
L 2847 0 
L 2847 2094 
Q 2847 2600 2669 2842 
Q 2491 3084 2119 3084 
Q 1678 3084 1418 2786 
Q 1159 2488 1159 1978 
L 1159 0 
L 581 0 
L 581 3500 
L 1159 3500 
L 1159 2956 
Q 1356 3278 1631 3431 
Q 1906 3584 2284 3584 
Q 2666 3584 2933 3390 
Q 3200 3197 3328 2828 
z
" id="DejaVuSans-6d" transform="scale(0.015625)"/>
       <path d="M 603 3500 
L 1178 3500 
L 1178 0 
L 603 0 
L 603 3500 
z
M 603 4863 
L 1178 4863 
L 1178 4134 
L 603 4134 
L 603 4863 
z
" id="DejaVuSans-69" transform="scale(0.015625)"/>
       <path id="DejaVuSans-20" transform="scale(0.015625)"/>
       <path d="M 2906 1791 
Q 2906 2416 2648 2759 
Q 2391 3103 1925 3103 
Q 1463 3103 1205 2759 
Q 947 2416 947 1791 
Q 947 1169 1205 825 
Q 1463 481 1925 481 
Q 2391 481 2648 825 
Q 2906 1169 2906 1791 
z
M 3481 434 
Q 3481 -459 3084 -895 
Q 2688 -1331 1869 -1331 
Q 1566 -1331 1297 -1286 
Q 1028 -1241 775 -1147 
L 775 -588 
Q 1028 -725 1275 -790 
Q 1522 -856 1778 -856 
Q 2344 -856 2625 -561 
Q 2906 -266 2906 331 
L 2906 616 
Q 2728 306 2450 153 
Q 2172 0 1784 0 
Q 1141 0 747 490 
Q 353 981 353 1791 
Q 353 2603 747 3093 
Q 1141 3584 1784 3584 
Q 2172 3584 2450 3431 
Q 2728 3278 2906 2969 
L 2906 3500 
L 3481 3500 
L 3481 434 
z
" id="DejaVuSans-67" transform="scale(0.015625)"/>
       <path d="M 1172 4494 
L 1172 3500 
L 2356 3500 
L 2356 3053 
L 1172 3053 
L 1172 1153 
Q 1172 725 1289 603 
Q 1406 481 1766 481 
L 2356 481 
L 2356 0 
L 1766 0 
Q 1100 0 847 248 
Q 594 497 594 1153 
L 594 3053 
L 172 3053 
L 172 3500 
L 594 3500 
L 594 4494 
L 1172 4494 
z
" id="DejaVuSans-74" transform="scale(0.015625)"/>
       <path d="M 2631 2963 
Q 2534 3019 2420 3045 
Q 2306 3072 2169 3072 
Q 1681 3072 1420 2755 
Q 1159 2438 1159 1844 
L 1159 0 
L 581 0 
L 581 3500 
L 1159 3500 
L 1159 2956 
Q 1341 3275 1631 3429 
Q 1922 3584 2338 3584 
Q 2397 3584 2469 3576 
Q 2541 3569 2628 3553 
L 2631 2963 
z
" id="DejaVuSans-72" transform="scale(0.015625)"/>
       <path d="M 3513 2113 
L 3513 0 
L 2938 0 
L 2938 2094 
Q 2938 2591 2744 2837 
Q 2550 3084 2163 3084 
Q 1697 3084 1428 2787 
Q 1159 2491 1159 1978 
L 1159 0 
L 581 0 
L 581 3500 
L 1159 3500 
L 1159 2956 
Q 1366 3272 1645 3428 
Q 1925 3584 2291 3584 
Q 2894 3584 3203 3211 
Q 3513 2838 3513 2113 
z
" id="DejaVuSans-6e" transform="scale(0.015625)"/>
       <path d="M 269 3500 
L 844 3500 
L 1563 769 
L 2278 3500 
L 2956 3500 
L 3675 769 
L 4391 3500 
L 4966 3500 
L 4050 0 
L 3372 0 
L 2619 2869 
L 1863 0 
L 1184 0 
L 269 3500 
z
" id="DejaVuSans-77" transform="scale(0.015625)"/>
      </defs>
      <use xlink:href="#DejaVuSans-61"/>
      <use x="61.279297" xlink:href="#DejaVuSans-63"/>
      <use x="116.259766" xlink:href="#DejaVuSans-61"/>
      <use x="177.539062" xlink:href="#DejaVuSans-64"/>
      <use x="241.015625" xlink:href="#DejaVuSans-65"/>
      <use x="302.539062" xlink:href="#DejaVuSans-6d"/>
      <use x="399.951172" xlink:href="#DejaVuSans-69"/>
      <use x="427.734375" xlink:href="#DejaVuSans-63"/>
      <use x="482.714844" xlink:href="#DejaVuSans-20"/>
      <use x="514.501953" xlink:href="#DejaVuSans-61"/>
      <use x="575.78125" xlink:href="#DejaVuSans-67"/>
      <use x="639.257812" xlink:href="#DejaVuSans-65"/>
      <use x="700.78125" xlink:href="#DejaVuSans-20"/>
      <use x="732.568359" xlink:href="#DejaVuSans-61"/>
      <use x="793.847656" xlink:href="#DejaVuSans-74"/>
      <use x="833.056641" xlink:href="#DejaVuSans-20"/>
      <use x="864.84375" xlink:href="#DejaVuSans-67"/>
      <use x="928.320312" xlink:href="#DejaVuSans-72"/>
      <use x="969.433594" xlink:href="#DejaVuSans-61"/>
      <use x="1030.712891" xlink:href="#DejaVuSans-6e"/>
      <use x="1094.091797" xlink:href="#DejaVuSans-74"/>
      <use x="1133.300781" xlink:href="#DejaVuSans-20"/>
      <use x="1165.087891" xlink:href="#DejaVuSans-61"/>
      <use x="1226.367188" xlink:href="#DejaVuSans-77"/>
      <use x="1308.154297" xlink:href="#DejaVuSans-61"/>
      <use x="1369.433594" xlink:href="#DejaVuSans-72"/>
      <use x="1408.796875" xlink:href="#DejaVuSans-64"/>
     </g>
    </g>
   </g>
   <g id="matplotlib.axis_2">
    <g id="ytick_1">
     <g id="line2d_5">
      <defs>
       <path d="M 0 0 
L -9 0 
" id="mcc5d57a2a1" style="stroke:#000000;stroke-width:1.875;"/>
      </defs>
      <g>
       <use style="stroke:#000000;stroke-width:1.875;" x="71.774812" xlink:href="#mcc5d57a2a1" y="181.308117"/>
      </g>
     </g>
     <g id="text_6">
      <!-- 1 -->
      <g transform="translate(48.776687 187.576828)scale(0.165 -0.165)">
       <use xlink:href="#DejaVuSans-31"/>
      </g>
     </g>
    </g>
    <g id="ytick_2">
     <g id="line2d_6">
      <g>
       <use style="stroke:#000000;stroke-width:1.875;" x="71.774812" xlink:href="#mcc5d57a2a1" y="142.37904"/>
      </g>
     </g>
     <g id="text_7">
      <!-- 3 -->
      <g transform="translate(48.776687 148.647751)scale(0.165 -0.165)">
       <use xlink:href="#DejaVuSans-33"/>
      </g>
     </g>
    </g>
    <g id="ytick_3">
     <g id="line2d_7">
      <g>
       <use style="stroke:#000000;stroke-width:1.875;" x="71.774812" xlink:href="#mcc5d57a2a1" y="103.449963"/>
      </g>
     </g>
     <g id="text_8">
      <!-- 5 -->
      <g transform="translate(48.776687 109.718674)scale(0.165 -0.165)">
       <use xlink:href="#DejaVuSans-35"/>
      </g>
     </g>
    </g>
    <g id="ytick_4">
     <g id="line2d_8">
      <g>
       <use style="stroke:#000000;stroke-width:1.875;" x="71.774812" xlink:href="#mcc5d57a2a1" y="64.520886"/>
      </g>
     </g>
     <g id="text_9">
      <!-- 7 -->
      <g transform="translate(48.776687 70.789597)scale(0.165 -0.165)">
       <defs>
        <path d="M 525 4666 
L 3525 4666 
L 3525 4397 
L 1831 0 
L 1172 0 
L 2766 4134 
L 525 4134 
L 525 4666 
z
" id="DejaVuSans-37" transform="scale(0.015625)"/>
       </defs>
       <use xlink:href="#DejaVuSans-37"/>
      </g>
     </g>
    </g>
    <g id="ytick_5">
     <g id="line2d_9">
      <g>
       <use style="stroke:#000000;stroke-width:1.875;" x="71.774812" xlink:href="#mcc5d57a2a1" y="25.59181"/>
      </g>
     </g>
     <g id="text_10">
      <!-- 9 -->
      <g transform="translate(48.776687 31.860521)scale(0.165 -0.165)">
       <use xlink:href="#DejaVuSans-39"/>
      </g>
     </g>
    </g>
    <g id="text_11">
     <!-- mobility before grant  -->
     <g transform="translate(20.877187 203.293125)rotate(-90)scale(0.18 -0.18)">
      <defs>
       <path d="M 1959 3097 
Q 1497 3097 1228 2736 
Q 959 2375 959 1747 
Q 959 1119 1226 758 
Q 1494 397 1959 397 
Q 2419 397 2687 759 
Q 2956 1122 2956 1747 
Q 2956 2369 2687 2733 
Q 2419 3097 1959 3097 
z
M 1959 3584 
Q 2709 3584 3137 3096 
Q 3566 2609 3566 1747 
Q 3566 888 3137 398 
Q 2709 -91 1959 -91 
Q 1206 -91 779 398 
Q 353 888 353 1747 
Q 353 2609 779 3096 
Q 1206 3584 1959 3584 
z
" id="DejaVuSans-6f" transform="scale(0.015625)"/>
       <path d="M 3116 1747 
Q 3116 2381 2855 2742 
Q 2594 3103 2138 3103 
Q 1681 3103 1420 2742 
Q 1159 2381 1159 1747 
Q 1159 1113 1420 752 
Q 1681 391 2138 391 
Q 2594 391 2855 752 
Q 3116 1113 3116 1747 
z
M 1159 2969 
Q 1341 3281 1617 3432 
Q 1894 3584 2278 3584 
Q 2916 3584 3314 3078 
Q 3713 2572 3713 1747 
Q 3713 922 3314 415 
Q 2916 -91 2278 -91 
Q 1894 -91 1617 61 
Q 1341 213 1159 525 
L 1159 0 
L 581 0 
L 581 4863 
L 1159 4863 
L 1159 2969 
z
" id="DejaVuSans-62" transform="scale(0.015625)"/>
       <path d="M 603 4863 
L 1178 4863 
L 1178 0 
L 603 0 
L 603 4863 
z
" id="DejaVuSans-6c" transform="scale(0.015625)"/>
       <path d="M 2059 -325 
Q 1816 -950 1584 -1140 
Q 1353 -1331 966 -1331 
L 506 -1331 
L 506 -850 
L 844 -850 
Q 1081 -850 1212 -737 
Q 1344 -625 1503 -206 
L 1606 56 
L 191 3500 
L 800 3500 
L 1894 763 
L 2988 3500 
L 3597 3500 
L 2059 -325 
z
" id="DejaVuSans-79" transform="scale(0.015625)"/>
       <path d="M 2375 4863 
L 2375 4384 
L 1825 4384 
Q 1516 4384 1395 4259 
Q 1275 4134 1275 3809 
L 1275 3500 
L 2222 3500 
L 2222 3053 
L 1275 3053 
L 1275 0 
L 697 0 
L 697 3053 
L 147 3053 
L 147 3500 
L 697 3500 
L 697 3744 
Q 697 4328 969 4595 
Q 1241 4863 1831 4863 
L 2375 4863 
z
" id="DejaVuSans-66" transform="scale(0.015625)"/>
      </defs>
      <use xlink:href="#DejaVuSans-6d"/>
      <use x="97.412109" xlink:href="#DejaVuSans-6f"/>
      <use x="158.59375" xlink:href="#DejaVuSans-62"/>
      <use x="222.070312" xlink:href="#DejaVuSans-69"/>
      <use x="249.853516" xlink:href="#DejaVuSans-6c"/>
      <use x="277.636719" xlink:href="#DejaVuSans-69"/>
      <use x="305.419922" xlink:href="#DejaVuSans-74"/>
      <use x="344.628906" xlink:href="#DejaVuSans-79"/>
      <use x="403.808594" xlink:href="#DejaVuSans-20"/>
      <use x="435.595703" xlink:href="#DejaVuSans-62"/>
      <use x="499.072266" xlink:href="#DejaVuSans-65"/>
      <use x="560.595703" xlink:href="#DejaVuSans-66"/>
      <use x="595.800781" xlink:href="#DejaVuSans-6f"/>
      <use x="656.982422" xlink:href="#DejaVuSans-72"/>
      <use x="695.845703" xlink:href="#DejaVuSans-65"/>
      <use x="757.369141" xlink:href="#DejaVuSans-20"/>
      <use x="789.15625" xlink:href="#DejaVuSans-67"/>
      <use x="852.632812" xlink:href="#DejaVuSans-72"/>
      <use x="893.746094" xlink:href="#DejaVuSans-61"/>
      <use x="955.025391" xlink:href="#DejaVuSans-6e"/>
      <use x="1018.404297" xlink:href="#DejaVuSans-74"/>
      <use x="1057.613281" xlink:href="#DejaVuSans-20"/>
     </g>
     <!-- (countries) -->
     <g transform="translate(41.03325 154.087031)rotate(-90)scale(0.18 -0.18)">
      <defs>
       <path d="M 1984 4856 
Q 1566 4138 1362 3434 
Q 1159 2731 1159 2009 
Q 1159 1288 1364 580 
Q 1569 -128 1984 -844 
L 1484 -844 
Q 1016 -109 783 600 
Q 550 1309 550 2009 
Q 550 2706 781 3412 
Q 1013 4119 1484 4856 
L 1984 4856 
z
" id="DejaVuSans-28" transform="scale(0.015625)"/>
       <path d="M 544 1381 
L 544 3500 
L 1119 3500 
L 1119 1403 
Q 1119 906 1312 657 
Q 1506 409 1894 409 
Q 2359 409 2629 706 
Q 2900 1003 2900 1516 
L 2900 3500 
L 3475 3500 
L 3475 0 
L 2900 0 
L 2900 538 
Q 2691 219 2414 64 
Q 2138 -91 1772 -91 
Q 1169 -91 856 284 
Q 544 659 544 1381 
z
M 1991 3584 
L 1991 3584 
z
" id="DejaVuSans-75" transform="scale(0.015625)"/>
       <path d="M 2834 3397 
L 2834 2853 
Q 2591 2978 2328 3040 
Q 2066 3103 1784 3103 
Q 1356 3103 1142 2972 
Q 928 2841 928 2578 
Q 928 2378 1081 2264 
Q 1234 2150 1697 2047 
L 1894 2003 
Q 2506 1872 2764 1633 
Q 3022 1394 3022 966 
Q 3022 478 2636 193 
Q 2250 -91 1575 -91 
Q 1294 -91 989 -36 
Q 684 19 347 128 
L 347 722 
Q 666 556 975 473 
Q 1284 391 1588 391 
Q 1994 391 2212 530 
Q 2431 669 2431 922 
Q 2431 1156 2273 1281 
Q 2116 1406 1581 1522 
L 1381 1569 
Q 847 1681 609 1914 
Q 372 2147 372 2553 
Q 372 3047 722 3315 
Q 1072 3584 1716 3584 
Q 2034 3584 2315 3537 
Q 2597 3491 2834 3397 
z
" id="DejaVuSans-73" transform="scale(0.015625)"/>
       <path d="M 513 4856 
L 1013 4856 
Q 1481 4119 1714 3412 
Q 1947 2706 1947 2009 
Q 1947 1309 1714 600 
Q 1481 -109 1013 -844 
L 513 -844 
Q 928 -128 1133 580 
Q 1338 1288 1338 2009 
Q 1338 2731 1133 3434 
Q 928 4138 513 4856 
z
" id="DejaVuSans-29" transform="scale(0.015625)"/>
      </defs>
      <use xlink:href="#DejaVuSans-28"/>
      <use x="39.013672" xlink:href="#DejaVuSans-63"/>
      <use x="93.994141" xlink:href="#DejaVuSans-6f"/>
      <use x="155.175781" xlink:href="#DejaVuSans-75"/>
      <use x="218.554688" xlink:href="#DejaVuSans-6e"/>
      <use x="281.933594" xlink:href="#DejaVuSans-74"/>
      <use x="321.142578" xlink:href="#DejaVuSans-72"/>
      <use x="362.255859" xlink:href="#DejaVuSans-69"/>
      <use x="390.039062" xlink:href="#DejaVuSans-65"/>
      <use x="451.5625" xlink:href="#DejaVuSans-73"/>
      <use x="503.662109" xlink:href="#DejaVuSans-29"/>
     </g>
    </g>
   </g>
   <g id="line2d_10">
    <path clip-path="url(#p18564a659d)" d="M 105.573812 181.308117 
L 105.573812 181.308117 
" style="fill:none;stroke:#626262;stroke-linecap:square;stroke-width:0.5;"/>
   </g>
   <g id="line2d_11">
    <path clip-path="url(#p18564a659d)" d="M 105.573812 181.308117 
L 105.573812 181.308117 
" style="fill:none;stroke:#626262;stroke-linecap:square;stroke-width:1.5;"/>
   </g>
   <g id="line2d_12">
    <path clip-path="url(#p18564a659d)" d="M 137.305813 181.308117 
L 137.305813 181.308117 
" style="fill:none;stroke:#626262;stroke-linecap:square;stroke-width:0.5;"/>
   </g>
   <g id="line2d_13">
    <path clip-path="url(#p18564a659d)" d="M 137.305813 181.308117 
L 137.305813 181.308117 
" style="fill:none;stroke:#626262;stroke-linecap:square;stroke-width:1.5;"/>
   </g>
   <g id="line2d_14">
    <path clip-path="url(#p18564a659d)" d="M 184.903812 181.308117 
L 184.903812 142.37904 
" style="fill:none;stroke:#626262;stroke-linecap:square;stroke-width:0.5;"/>
   </g>
   <g id="line2d_15">
    <path clip-path="url(#p18564a659d)" d="M 184.903812 181.308117 
L 184.903812 161.843578 
" style="fill:none;stroke:#626262;stroke-linecap:square;stroke-width:1.5;"/>
   </g>
   <g id="line2d_16">
    <path clip-path="url(#p18564a659d)" d="M 216.635812 181.308117 
L 216.635812 181.308117 
" style="fill:none;stroke:#626262;stroke-linecap:square;stroke-width:0.5;"/>
   </g>
   <g id="line2d_17">
    <path clip-path="url(#p18564a659d)" d="M 216.635812 181.308117 
L 216.635812 181.308117 
" style="fill:none;stroke:#626262;stroke-linecap:square;stroke-width:1.5;"/>
   </g>
   <g id="line2d_18">
    <path clip-path="url(#p18564a659d)" d="M 264.233812 181.308117 
L 264.233812 142.37904 
" style="fill:none;stroke:#626262;stroke-linecap:square;stroke-width:0.5;"/>
   </g>
   <g id="line2d_19">
    <path clip-path="url(#p18564a659d)" d="M 264.233812 181.308117 
L 264.233812 161.843578 
" style="fill:none;stroke:#626262;stroke-linecap:square;stroke-width:1.5;"/>
   </g>
   <g id="line2d_20">
    <path clip-path="url(#p18564a659d)" d="M 295.965812 181.308117 
L 295.965812 142.37904 
" style="fill:none;stroke:#626262;stroke-linecap:square;stroke-width:0.5;"/>
   </g>
   <g id="line2d_21">
    <path clip-path="url(#p18564a659d)" d="M 295.965812 181.308117 
L 295.965812 161.843578 
" style="fill:none;stroke:#626262;stroke-linecap:square;stroke-width:1.5;"/>
   </g>
   <g id="line2d_22">
    <path clip-path="url(#p18564a659d)" d="M 343.563812 181.308117 
L 343.563812 122.914501 
" style="fill:none;stroke:#626262;stroke-linecap:square;stroke-width:0.5;"/>
   </g>
   <g id="line2d_23">
    <path clip-path="url(#p18564a659d)" d="M 343.563812 161.843578 
L 343.563812 142.37904 
" style="fill:none;stroke:#626262;stroke-linecap:square;stroke-width:1.5;"/>
   </g>
   <g id="line2d_24">
    <path clip-path="url(#p18564a659d)" d="M 375.295813 181.308117 
L 375.295813 142.37904 
" style="fill:none;stroke:#626262;stroke-linecap:square;stroke-width:0.5;"/>
   </g>
   <g id="line2d_25">
    <path clip-path="url(#p18564a659d)" d="M 375.295813 181.308117 
L 375.295813 161.843578 
" style="fill:none;stroke:#626262;stroke-linecap:square;stroke-width:1.5;"/>
   </g>
   <g id="patch_5">
    <path d="M 71.774812 181.308117 
L 71.774812 25.59181 
" style="fill:none;stroke:#000000;stroke-linecap:square;stroke-linejoin:miter;stroke-width:1.875;"/>
   </g>
   <g id="patch_6">
    <path d="M 121.439812 208.556562 
L 359.429813 208.556562 
" style="fill:none;stroke:#000000;stroke-linecap:square;stroke-linejoin:miter;stroke-width:1.875;"/>
   </g>
   <g id="PathCollection_1">
    <defs>
     <path d="M 0 0.5 
C 0.132602 0.5 0.25979 0.447317 0.353553 0.353553 
C 0.447317 0.25979 0.5 0.132602 0.5 0 
C 0.5 -0.132602 0.447317 -0.25979 0.353553 -0.353553 
C 0.25979 -0.447317 0.132602 -0.5 0 -0.5 
C -0.132602 -0.5 -0.25979 -0.447317 -0.353553 -0.353553 
C -0.447317 -0.25979 -0.5 -0.132602 -0.5 0 
C -0.5 0.132602 -0.447317 0.25979 -0.353553 0.353553 
C -0.25979 0.447317 -0.132602 0.5 0 0.5 
z
" id="mc4868af95b" style="stroke:#626262;stroke-width:1.5;"/>
    </defs>
    <g clip-path="url(#p18564a659d)">
     <use style="fill:#ffffff;stroke:#626262;stroke-width:1.5;" x="105.573812" xlink:href="#mc4868af95b" y="181.308117"/>
    </g>
   </g>
   <g id="PathCollection_2">
    <g clip-path="url(#p18564a659d)">
     <use style="fill:#ffffff;stroke:#626262;stroke-width:1.5;" x="137.305813" xlink:href="#mc4868af95b" y="181.308117"/>
    </g>
   </g>
   <g id="PathCollection_3">
    <g clip-path="url(#p18564a659d)">
     <use style="fill:#ffffff;stroke:#626262;stroke-width:1.5;" x="184.903812" xlink:href="#mc4868af95b" y="161.843578"/>
    </g>
   </g>
   <g id="PathCollection_4">
    <g clip-path="url(#p18564a659d)">
     <use style="fill:#ffffff;stroke:#626262;stroke-width:1.5;" x="216.635812" xlink:href="#mc4868af95b" y="181.308117"/>
    </g>
   </g>
   <g id="PathCollection_5">
    <g clip-path="url(#p18564a659d)">
     <use style="fill:#ffffff;stroke:#626262;stroke-width:1.5;" x="264.233812" xlink:href="#mc4868af95b" y="161.843578"/>
    </g>
   </g>
   <g id="PathCollection_6">
    <g clip-path="url(#p18564a659d)">
     <use style="fill:#ffffff;stroke:#626262;stroke-width:1.5;" x="295.965812" xlink:href="#mc4868af95b" y="181.308117"/>
    </g>
   </g>
   <g id="PathCollection_7">
    <g clip-path="url(#p18564a659d)">
     <use style="fill:#ffffff;stroke:#626262;stroke-width:1.5;" x="343.563812" xlink:href="#mc4868af95b" y="161.843578"/>
    </g>
   </g>
   <g id="PathCollection_8">
    <g clip-path="url(#p18564a659d)">
     <use style="fill:#ffffff;stroke:#626262;stroke-width:1.5;" x="375.295813" xlink:href="#mc4868af95b" y="181.308117"/>
    </g>
   </g>
   <g id="legend_1">
    <g id="patch_7">
     <path d="M 220.252813 78.334563 
L 305.640312 78.334563 
Q 308.940313 78.334563 308.940313 75.034562 
L 308.940313 28.24675 
Q 308.940313 24.94675 305.640312 24.94675 
L 220.252813 24.94675 
Q 216.952812 24.94675 216.952812 28.24675 
L 216.952812 75.034562 
Q 216.952812 78.334563 220.252813 78.334563 
z
" style="fill:#ffffff;opacity:0.8;stroke:#cccccc;stroke-linejoin:miter;stroke-width:1.5;"/>
    </g>
    <g id="patch_8">
     <path d="M 223.552812 44.084172 
L 256.552812 44.084172 
L 256.552812 32.534172 
L 223.552812 32.534172 
z
" style="fill:#88c088;stroke:#626262;stroke-linejoin:miter;stroke-width:0.25;"/>
    </g>
    <g id="text_12">
     <!-- ERC -->
     <g transform="translate(269.752813 44.084172)scale(0.165 -0.165)">
      <defs>
       <path d="M 628 4666 
L 3578 4666 
L 3578 4134 
L 1259 4134 
L 1259 2753 
L 3481 2753 
L 3481 2222 
L 1259 2222 
L 1259 531 
L 3634 531 
L 3634 0 
L 628 0 
L 628 4666 
z
" id="DejaVuSans-45" transform="scale(0.015625)"/>
       <path d="M 2841 2188 
Q 3044 2119 3236 1894 
Q 3428 1669 3622 1275 
L 4263 0 
L 3584 0 
L 2988 1197 
Q 2756 1666 2539 1819 
Q 2322 1972 1947 1972 
L 1259 1972 
L 1259 0 
L 628 0 
L 628 4666 
L 2053 4666 
Q 2853 4666 3247 4331 
Q 3641 3997 3641 3322 
Q 3641 2881 3436 2590 
Q 3231 2300 2841 2188 
z
M 1259 4147 
L 1259 2491 
L 2053 2491 
Q 2509 2491 2742 2702 
Q 2975 2913 2975 3322 
Q 2975 3731 2742 3939 
Q 2509 4147 2053 4147 
L 1259 4147 
z
" id="DejaVuSans-52" transform="scale(0.015625)"/>
       <path d="M 4122 4306 
L 4122 3641 
Q 3803 3938 3442 4084 
Q 3081 4231 2675 4231 
Q 1875 4231 1450 3742 
Q 1025 3253 1025 2328 
Q 1025 1406 1450 917 
Q 1875 428 2675 428 
Q 3081 428 3442 575 
Q 3803 722 4122 1019 
L 4122 359 
Q 3791 134 3420 21 
Q 3050 -91 2638 -91 
Q 1578 -91 968 557 
Q 359 1206 359 2328 
Q 359 3453 968 4101 
Q 1578 4750 2638 4750 
Q 3056 4750 3426 4639 
Q 3797 4528 4122 4306 
z
" id="DejaVuSans-43" transform="scale(0.015625)"/>
      </defs>
      <use xlink:href="#DejaVuSans-45"/>
      <use x="63.183594" xlink:href="#DejaVuSans-52"/>
      <use x="127.666016" xlink:href="#DejaVuSans-43"/>
     </g>
    </g>
    <g id="patch_9">
     <path d="M 223.552812 68.303078 
L 256.552812 68.303078 
L 256.552812 56.753078 
L 223.552812 56.753078 
z
" style="fill:#bfb3cf;stroke:#626262;stroke-linejoin:miter;stroke-width:0.25;"/>
    </g>
    <g id="text_13">
     <!-- NSF -->
     <g transform="translate(269.752813 68.303078)scale(0.165 -0.165)">
      <defs>
       <path d="M 628 4666 
L 1478 4666 
L 3547 763 
L 3547 4666 
L 4159 4666 
L 4159 0 
L 3309 0 
L 1241 3903 
L 1241 0 
L 628 0 
L 628 4666 
z
" id="DejaVuSans-4e" transform="scale(0.015625)"/>
       <path d="M 3425 4513 
L 3425 3897 
Q 3066 4069 2747 4153 
Q 2428 4238 2131 4238 
Q 1616 4238 1336 4038 
Q 1056 3838 1056 3469 
Q 1056 3159 1242 3001 
Q 1428 2844 1947 2747 
L 2328 2669 
Q 3034 2534 3370 2195 
Q 3706 1856 3706 1288 
Q 3706 609 3251 259 
Q 2797 -91 1919 -91 
Q 1588 -91 1214 -16 
Q 841 59 441 206 
L 441 856 
Q 825 641 1194 531 
Q 1563 422 1919 422 
Q 2459 422 2753 634 
Q 3047 847 3047 1241 
Q 3047 1584 2836 1778 
Q 2625 1972 2144 2069 
L 1759 2144 
Q 1053 2284 737 2584 
Q 422 2884 422 3419 
Q 422 4038 858 4394 
Q 1294 4750 2059 4750 
Q 2388 4750 2728 4690 
Q 3069 4631 3425 4513 
z
" id="DejaVuSans-53" transform="scale(0.015625)"/>
       <path d="M 628 4666 
L 3309 4666 
L 3309 4134 
L 1259 4134 
L 1259 2759 
L 3109 2759 
L 3109 2228 
L 1259 2228 
L 1259 0 
L 628 0 
L 628 4666 
z
" id="DejaVuSans-46" transform="scale(0.015625)"/>
      </defs>
      <use xlink:href="#DejaVuSans-4e"/>
      <use x="74.804688" xlink:href="#DejaVuSans-53"/>
      <use x="138.28125" xlink:href="#DejaVuSans-46"/>
     </g>
    </g>
   </g>
  </g>
 </g>
 <defs>
  <clipPath id="p18564a659d">
   <rect height="186.62" width="317.32" x="81.774812" y="11.936562"/>
  </clipPath>
 </defs>
</svg>
