<?xml version="1.0" encoding="utf-8" standalone="no"?>
<!DOCTYPE svg PUBLIC "-//W3C//DTD SVG 1.1//EN"
  "http://www.w3.org/Graphics/SVG/1.1/DTD/svg11.dtd">
<svg height="265.646094pt" version="1.1" viewBox="0 0 406.542937 265.646094" width="406.542937pt" xmlns="http://www.w3.org/2000/svg" xmlns:xlink="http://www.w3.org/1999/xlink">
 <metadata>
  <rdf:RDF xmlns:cc="http://creativecommons.org/ns#" xmlns:dc="http://purl.org/dc/elements/1.1/" xmlns:rdf="http://www.w3.org/1999/02/22-rdf-syntax-ns#">
   <cc:Work>
    <dc:type rdf:resource="http://purl.org/dc/dcmitype/StillImage"/>
    <dc:date>2023-04-13T13:28:46.334792</dc:date>
    <dc:format>image/svg+xml</dc:format>
    <dc:creator>
     <cc:Agent>
      <dc:title>Matplotlib v3.4.1, https://matplotlib.org/</dc:title>
     </cc:Agent>
    </dc:creator>
   </cc:Work>
  </rdf:RDF>
 </metadata>
 <defs>
  <style type="text/css">*{stroke-linecap:butt;stroke-linejoin:round;}</style>
 </defs>
 <g id="figure_1">
  <g id="patch_1">
   <path d="M 0 265.646094 
L 406.542937 265.646094 
L 406.542937 0 
L 0 0 
z
" style="fill:none;"/>
  </g>
  <g id="axes_1">
   <g id="patch_2">
    <path d="M 92.272937 198.556562 
L 399.342938 198.556562 
L 399.342938 11.936562 
L 92.272937 11.936562 
z
" style="fill:#ffffff;"/>
   </g>
   <g id="PolyCollection_1">
    <defs>
     <path d="M 115.761388 -77.346002 
L 114.844987 -77.346002 
L 114.663701 -77.865684 
L 114.437386 -78.385365 
L 114.166045 -78.905047 
L 113.854344 -79.424728 
L 113.512425 -79.94441 
L 113.156026 -80.464091 
L 112.805711 -80.983772 
L 112.48514 -81.503454 
L 112.218541 -82.023135 
L 112.027721 -82.542817 
L 111.929135 -83.062498 
L 111.931536 -83.582179 
L 112.034688 -84.101861 
L 112.229396 -84.621542 
L 112.498835 -85.141224 
L 112.82092 -85.660905 
L 113.171234 -86.180587 
L 113.525974 -86.700268 
L 113.864419 -87.219949 
L 114.17057 -87.739631 
L 114.433848 -88.259312 
L 114.648912 -88.778994 
L 114.814824 -89.298675 
L 114.933886 -89.818357 
L 115.010416 -90.338038 
L 115.04973 -90.857719 
L 115.057442 -91.377401 
L 115.039109 -91.897082 
L 115.00018 -92.416764 
L 114.946107 -92.936445 
L 114.882501 -93.456127 
L 114.815194 -93.975808 
L 114.750142 -94.495489 
L 114.693139 -95.015171 
L 114.649376 -95.534852 
L 114.622942 -96.054534 
L 114.616381 -96.574215 
L 114.630392 -97.093897 
L 114.663778 -97.613578 
L 114.71365 -98.133259 
L 114.775854 -98.652941 
L 114.845542 -99.172622 
L 114.917795 -99.692304 
L 114.988161 -100.211985 
L 115.053062 -100.731667 
L 115.110001 -101.251348 
L 115.157589 -101.771029 
L 115.195412 -102.290711 
L 115.223809 -102.810392 
L 115.243622 -103.330074 
L 115.255955 -103.849755 
L 115.262001 -104.369436 
L 115.262924 -104.889118 
L 115.259823 -105.408799 
L 115.253722 -105.928481 
L 115.245601 -106.448162 
L 115.236418 -106.967844 
L 115.227112 -107.487525 
L 115.218585 -108.007206 
L 115.211654 -108.526888 
L 115.20699 -109.046569 
L 115.20505 -109.566251 
L 115.206036 -110.085932 
L 115.209874 -110.605614 
L 115.21623 -111.125295 
L 115.224562 -111.644976 
L 115.234198 -112.164658 
L 115.24442 -112.684339 
L 115.254548 -113.204021 
L 115.264002 -113.723702 
L 115.27234 -114.243384 
L 115.27927 -114.763065 
L 115.284638 -115.282746 
L 115.288398 -115.802428 
L 115.290582 -116.322109 
L 115.29127 -116.841791 
L 115.290573 -117.361472 
L 115.288622 -117.881154 
L 115.285575 -118.400835 
L 115.281628 -118.920516 
L 115.277025 -119.440198 
L 115.272064 -119.959879 
L 115.267091 -120.479561 
L 115.262481 -120.999242 
L 115.258607 -121.518924 
L 115.255802 -122.038605 
L 115.254315 -122.558286 
L 115.254285 -123.077968 
L 115.255715 -123.597649 
L 115.258482 -124.117331 
L 115.262346 -124.637012 
L 115.266992 -125.156694 
L 115.272069 -125.676375 
L 115.277234 -126.196056 
L 115.28219 -126.715738 
L 115.286707 -127.235419 
L 115.29064 -127.755101 
L 115.29392 -128.274782 
L 115.296547 -128.794463 
L 115.309828 -128.794463 
L 115.309828 -128.794463 
L 115.312455 -128.274782 
L 115.315735 -127.755101 
L 115.319668 -127.235419 
L 115.324185 -126.715738 
L 115.329141 -126.196056 
L 115.334306 -125.676375 
L 115.339383 -125.156694 
L 115.344029 -124.637012 
L 115.347893 -124.117331 
L 115.35066 -123.597649 
L 115.35209 -123.077968 
L 115.35206 -122.558286 
L 115.350573 -122.038605 
L 115.347768 -121.518924 
L 115.343894 -120.999242 
L 115.339284 -120.479561 
L 115.334311 -119.959879 
L 115.32935 -119.440198 
L 115.324747 -118.920516 
L 115.3208 -118.400835 
L 115.317753 -117.881154 
L 115.315802 -117.361472 
L 115.315105 -116.841791 
L 115.315793 -116.322109 
L 115.317977 -115.802428 
L 115.321737 -115.282746 
L 115.327105 -114.763065 
L 115.334035 -114.243384 
L 115.342373 -113.723702 
L 115.351827 -113.204021 
L 115.361955 -112.684339 
L 115.372177 -112.164658 
L 115.381813 -111.644976 
L 115.390145 -111.125295 
L 115.396501 -110.605614 
L 115.400339 -110.085932 
L 115.401325 -109.566251 
L 115.399385 -109.046569 
L 115.394721 -108.526888 
L 115.38779 -108.007206 
L 115.379263 -107.487525 
L 115.369957 -106.967844 
L 115.360774 -106.448162 
L 115.352653 -105.928481 
L 115.346552 -105.408799 
L 115.343451 -104.889118 
L 115.344374 -104.369436 
L 115.35042 -103.849755 
L 115.362753 -103.330074 
L 115.382566 -102.810392 
L 115.410963 -102.290711 
L 115.448786 -101.771029 
L 115.496374 -101.251348 
L 115.553313 -100.731667 
L 115.618214 -100.211985 
L 115.68858 -99.692304 
L 115.760833 -99.172622 
L 115.830521 -98.652941 
L 115.892725 -98.133259 
L 115.942597 -97.613578 
L 115.975983 -97.093897 
L 115.989994 -96.574215 
L 115.983433 -96.054534 
L 115.956999 -95.534852 
L 115.913236 -95.015171 
L 115.856233 -94.495489 
L 115.791181 -93.975808 
L 115.723874 -93.456127 
L 115.660268 -92.936445 
L 115.606195 -92.416764 
L 115.567266 -91.897082 
L 115.548933 -91.377401 
L 115.556645 -90.857719 
L 115.595959 -90.338038 
L 115.672489 -89.818357 
L 115.791551 -89.298675 
L 115.957463 -88.778994 
L 116.172527 -88.259312 
L 116.435805 -87.739631 
L 116.741956 -87.219949 
L 117.080401 -86.700268 
L 117.435141 -86.180587 
L 117.785455 -85.660905 
L 118.10754 -85.141224 
L 118.376979 -84.621542 
L 118.571687 -84.101861 
L 118.674839 -83.582179 
L 118.67724 -83.062498 
L 118.578654 -82.542817 
L 118.387834 -82.023135 
L 118.121235 -81.503454 
L 117.800664 -80.983772 
L 117.450349 -80.464091 
L 117.09395 -79.94441 
L 116.752031 -79.424728 
L 116.44033 -78.905047 
L 116.168989 -78.385365 
L 115.942674 -77.865684 
L 115.761388 -77.346002 
z
" id="m57fff2d089" style="stroke:#626262;stroke-width:0.5;"/>
    </defs>
    <g clip-path="url(#p9d814cca02)">
     <use style="fill:#88c088;stroke:#626262;stroke-width:0.5;" x="0" xlink:href="#m57fff2d089" y="265.646094"/>
    </g>
   </g>
   <g id="PolyCollection_2">
    <defs>
     <path d="M 148.155892 -81.836327 
L 143.864483 -81.836327 
L 140.207306 -82.265295 
L 134.828101 -82.694263 
L 130.656688 -83.123231 
L 130.98924 -83.552199 
L 135.53908 -83.981166 
L 140.80911 -84.410134 
L 144.169418 -84.839102 
L 145.545981 -85.26807 
L 145.926776 -85.697038 
L 145.999508 -86.126005 
L 146.009213 -86.554973 
L 146.010124 -86.983941 
L 146.010185 -87.412909 
L 146.010187 -87.841877 
L 146.010187 -88.270844 
L 146.010187 -88.699812 
L 146.010187 -89.12878 
L 146.010188 -89.557748 
L 146.010188 -89.986715 
L 146.010188 -90.415683 
L 146.010187 -90.844651 
L 146.010187 -91.273619 
L 146.010187 -91.702587 
L 146.010187 -92.131554 
L 146.010187 -92.560522 
L 146.010173 -92.98949 
L 146.009996 -93.418458 
L 146.008362 -93.847426 
L 145.997822 -94.276393 
L 145.950491 -94.705361 
L 145.80484 -95.134329 
L 145.506874 -95.563297 
L 145.131179 -95.992264 
L 144.91635 -96.421232 
L 145.040308 -96.8502 
L 145.39743 -97.279168 
L 145.734343 -97.708136 
L 145.921707 -98.137103 
L 145.989965 -98.566071 
L 146.006894 -98.995039 
L 146.009805 -99.424007 
L 146.010156 -99.852975 
L 146.010186 -100.281942 
L 146.010187 -100.71091 
L 146.010187 -101.139878 
L 146.010187 -101.568846 
L 146.010187 -101.997813 
L 146.010188 -102.426781 
L 146.010188 -102.855749 
L 146.010188 -103.284717 
L 146.010188 -103.713685 
L 146.010187 -104.142652 
L 146.010187 -104.57162 
L 146.010187 -105.000588 
L 146.010187 -105.429556 
L 146.010187 -105.858524 
L 146.010184 -106.287491 
L 146.010149 -106.716459 
L 146.009856 -107.145427 
L 146.008152 -107.574395 
L 146.00128 -108.003362 
L 145.982418 -108.43233 
L 145.948501 -108.861298 
L 145.912549 -109.290266 
L 145.90007 -109.719234 
L 145.921697 -110.148201 
L 145.959518 -110.577169 
L 145.989515 -111.006137 
L 146.004178 -111.435105 
L 146.008943 -111.864073 
L 146.010004 -112.29304 
L 146.010168 -112.722008 
L 146.010186 -113.150976 
L 146.010187 -113.579944 
L 146.010187 -114.008911 
L 146.010187 -114.437879 
L 146.010187 -114.866847 
L 146.010187 -115.295815 
L 146.010188 -115.724783 
L 146.010188 -116.15375 
L 146.010188 -116.582718 
L 146.010188 -117.011686 
L 146.010187 -117.440654 
L 146.010187 -117.869622 
L 146.010187 -118.298589 
L 146.010187 -118.727557 
L 146.010187 -119.156525 
L 146.010187 -119.585493 
L 146.010178 -120.014461 
L 146.01011 -120.443428 
L 146.009756 -120.872396 
L 146.008477 -121.301364 
L 146.005354 -121.730332 
L 146.000456 -122.159299 
L 145.996228 -122.588267 
L 145.995918 -123.017235 
L 145.999795 -123.446203 
L 146.004794 -123.875171 
L 146.008193 -124.304138 
L 146.012182 -124.304138 
L 146.012182 -124.304138 
L 146.015581 -123.875171 
L 146.02058 -123.446203 
L 146.024457 -123.017235 
L 146.024147 -122.588267 
L 146.019919 -122.159299 
L 146.015021 -121.730332 
L 146.011898 -121.301364 
L 146.010619 -120.872396 
L 146.010265 -120.443428 
L 146.010197 -120.014461 
L 146.010188 -119.585493 
L 146.010188 -119.156525 
L 146.010188 -118.727557 
L 146.010188 -118.298589 
L 146.010188 -117.869622 
L 146.010188 -117.440654 
L 146.010188 -117.011686 
L 146.010188 -116.582718 
L 146.010188 -116.15375 
L 146.010188 -115.724783 
L 146.010188 -115.295815 
L 146.010188 -114.866847 
L 146.010188 -114.437879 
L 146.010188 -114.008911 
L 146.010188 -113.579944 
L 146.010189 -113.150976 
L 146.010207 -112.722008 
L 146.010371 -112.29304 
L 146.011432 -111.864073 
L 146.016197 -111.435105 
L 146.03086 -111.006137 
L 146.060857 -110.577169 
L 146.098678 -110.148201 
L 146.120305 -109.719234 
L 146.107826 -109.290266 
L 146.071874 -108.861298 
L 146.037957 -108.43233 
L 146.019095 -108.003362 
L 146.012223 -107.574395 
L 146.010519 -107.145427 
L 146.010226 -106.716459 
L 146.010191 -106.287491 
L 146.010188 -105.858524 
L 146.010188 -105.429556 
L 146.010188 -105.000588 
L 146.010188 -104.57162 
L 146.010188 -104.142652 
L 146.010188 -103.713685 
L 146.010188 -103.284717 
L 146.010188 -102.855749 
L 146.010188 -102.426781 
L 146.010188 -101.997813 
L 146.010188 -101.568846 
L 146.010188 -101.139878 
L 146.010188 -100.71091 
L 146.010189 -100.281942 
L 146.010219 -99.852975 
L 146.01057 -99.424007 
L 146.013481 -98.995039 
L 146.03041 -98.566071 
L 146.098668 -98.137103 
L 146.286032 -97.708136 
L 146.622945 -97.279168 
L 146.980067 -96.8502 
L 147.104025 -96.421232 
L 146.889196 -95.992264 
L 146.513501 -95.563297 
L 146.215535 -95.134329 
L 146.069884 -94.705361 
L 146.022553 -94.276393 
L 146.012013 -93.847426 
L 146.010379 -93.418458 
L 146.010202 -92.98949 
L 146.010188 -92.560522 
L 146.010188 -92.131554 
L 146.010188 -91.702587 
L 146.010188 -91.273619 
L 146.010188 -90.844651 
L 146.010188 -90.415683 
L 146.010188 -89.986715 
L 146.010188 -89.557748 
L 146.010188 -89.12878 
L 146.010188 -88.699812 
L 146.010188 -88.270844 
L 146.010188 -87.841877 
L 146.01019 -87.412909 
L 146.010251 -86.983941 
L 146.011162 -86.554973 
L 146.020867 -86.126005 
L 146.093599 -85.697038 
L 146.474394 -85.26807 
L 147.850957 -84.839102 
L 151.211265 -84.410134 
L 156.481295 -83.981166 
L 161.031135 -83.552199 
L 161.363687 -83.123231 
L 157.192274 -82.694263 
L 151.813069 -82.265295 
L 148.155892 -81.836327 
z
" id="m060048aebe" style="stroke:#626262;stroke-width:0.5;"/>
    </defs>
    <g clip-path="url(#p9d814cca02)">
     <use style="fill:#bfb3cf;stroke:#626262;stroke-width:0.5;" x="0" xlink:href="#m060048aebe" y="265.646094"/>
    </g>
   </g>
   <g id="PolyCollection_3">
    <defs>
     <path d="M 192.359832 -75.572259 
L 191.781543 -75.572259 
L 191.638384 -76.393904 
L 191.452848 -77.21555 
L 191.226618 -78.037196 
L 190.968386 -78.858841 
L 190.694588 -79.680487 
L 190.428427 -80.502133 
L 190.196945 -81.323779 
L 190.026502 -82.145424 
L 189.937586 -82.96707 
L 189.940259 -83.788716 
L 190.031462 -84.610361 
L 190.194916 -85.432007 
L 190.403652 -86.253653 
L 190.624452 -87.075299 
L 190.823132 -87.896944 
L 190.969576 -88.71859 
L 191.04176 -89.540236 
L 191.028441 -90.361882 
L 190.930475 -91.183527 
L 190.760802 -92.005173 
L 190.543071 -92.826819 
L 190.308792 -93.648464 
L 190.093059 -94.47011 
L 189.929223 -95.291756 
L 189.843369 -96.113402 
L 189.84975 -96.935047 
L 189.948297 -97.756693 
L 190.124866 -98.578339 
L 190.354166 -99.399984 
L 190.604577 -100.22163 
L 190.843676 -101.043276 
L 191.043245 -101.864922 
L 191.182946 -102.686567 
L 191.252334 -103.508213 
L 191.251323 -104.329859 
L 191.189395 -105.151505 
L 191.083858 -105.97315 
L 190.957308 -106.794796 
L 190.834447 -107.616442 
L 190.738519 -108.438087 
L 190.687824 -109.259733 
L 190.692956 -110.081379 
L 190.755387 -110.903025 
L 190.867765 -111.72467 
L 191.015852 -112.546316 
L 191.181596 -113.367962 
L 191.346558 -114.189607 
L 191.494899 -115.011253 
L 191.615396 -115.832899 
L 191.702275 -116.654545 
L 191.755024 -117.47619 
L 191.777484 -118.297836 
L 191.776577 -119.119482 
L 191.760928 -119.941128 
L 191.739542 -120.762773 
L 191.720604 -121.584419 
L 191.710504 -122.406065 
L 191.713156 -123.22771 
L 191.729729 -124.049356 
L 191.758819 -124.871002 
L 191.797042 -125.692648 
L 191.83989 -126.514293 
L 191.882667 -127.335939 
L 191.921293 -128.157585 
L 191.952849 -128.979231 
L 191.975809 -129.800876 
L 191.99 -130.622522 
L 191.996372 -131.444168 
L 191.99667 -132.265813 
L 191.993082 -133.087459 
L 191.987897 -133.909105 
L 191.983204 -134.730751 
L 191.980643 -135.552396 
L 191.981234 -136.374042 
L 191.985307 -137.195688 
L 191.992548 -138.017333 
L 192.002142 -138.838979 
L 192.012987 -139.660625 
L 192.023934 -140.482271 
L 192.03398 -141.303916 
L 192.042409 -142.125562 
L 192.048842 -142.947208 
L 192.053224 -143.768854 
L 192.055757 -144.590499 
L 192.05682 -145.412145 
L 192.05688 -146.233791 
L 192.056417 -147.055436 
L 192.055863 -147.877082 
L 192.055555 -148.698728 
L 192.05571 -149.520374 
L 192.056415 -150.342019 
L 192.057641 -151.163665 
L 192.059268 -151.985311 
L 192.061125 -152.806956 
L 192.06303 -153.628602 
L 192.064825 -154.450248 
L 192.066397 -155.271894 
L 192.067685 -156.093539 
L 192.06868 -156.915185 
L 192.072695 -156.915185 
L 192.072695 -156.915185 
L 192.07369 -156.093539 
L 192.074978 -155.271894 
L 192.07655 -154.450248 
L 192.078345 -153.628602 
L 192.08025 -152.806956 
L 192.082107 -151.985311 
L 192.083734 -151.163665 
L 192.08496 -150.342019 
L 192.085665 -149.520374 
L 192.08582 -148.698728 
L 192.085512 -147.877082 
L 192.084958 -147.055436 
L 192.084495 -146.233791 
L 192.084555 -145.412145 
L 192.085618 -144.590499 
L 192.088151 -143.768854 
L 192.092533 -142.947208 
L 192.098966 -142.125562 
L 192.107395 -141.303916 
L 192.117441 -140.482271 
L 192.128388 -139.660625 
L 192.139233 -138.838979 
L 192.148827 -138.017333 
L 192.156068 -137.195688 
L 192.160141 -136.374042 
L 192.160732 -135.552396 
L 192.158171 -134.730751 
L 192.153478 -133.909105 
L 192.148293 -133.087459 
L 192.144705 -132.265813 
L 192.145003 -131.444168 
L 192.151375 -130.622522 
L 192.165566 -129.800876 
L 192.188526 -128.979231 
L 192.220082 -128.157585 
L 192.258708 -127.335939 
L 192.301485 -126.514293 
L 192.344333 -125.692648 
L 192.382556 -124.871002 
L 192.411646 -124.049356 
L 192.428219 -123.22771 
L 192.430871 -122.406065 
L 192.420771 -121.584419 
L 192.401833 -120.762773 
L 192.380447 -119.941128 
L 192.364798 -119.119482 
L 192.363891 -118.297836 
L 192.386351 -117.47619 
L 192.4391 -116.654545 
L 192.525979 -115.832899 
L 192.646476 -115.011253 
L 192.794817 -114.189607 
L 192.959779 -113.367962 
L 193.125523 -112.546316 
L 193.27361 -111.72467 
L 193.385988 -110.903025 
L 193.448419 -110.081379 
L 193.453551 -109.259733 
L 193.402856 -108.438087 
L 193.306928 -107.616442 
L 193.184067 -106.794796 
L 193.057517 -105.97315 
L 192.95198 -105.151505 
L 192.890052 -104.329859 
L 192.889041 -103.508213 
L 192.958429 -102.686567 
L 193.09813 -101.864922 
L 193.297699 -101.043276 
L 193.536798 -100.22163 
L 193.787209 -99.399984 
L 194.016509 -98.578339 
L 194.193078 -97.756693 
L 194.291625 -96.935047 
L 194.298006 -96.113402 
L 194.212152 -95.291756 
L 194.048316 -94.47011 
L 193.832583 -93.648464 
L 193.598304 -92.826819 
L 193.380573 -92.005173 
L 193.2109 -91.183527 
L 193.112934 -90.361882 
L 193.099615 -89.540236 
L 193.171799 -88.71859 
L 193.318243 -87.896944 
L 193.516923 -87.075299 
L 193.737723 -86.253653 
L 193.946459 -85.432007 
L 194.109913 -84.610361 
L 194.201116 -83.788716 
L 194.203789 -82.96707 
L 194.114873 -82.145424 
L 193.94443 -81.323779 
L 193.712948 -80.502133 
L 193.446787 -79.680487 
L 193.172989 -78.858841 
L 192.914757 -78.037196 
L 192.688527 -77.21555 
L 192.502991 -76.393904 
L 192.359832 -75.572259 
z
" id="me16a5f4670" style="stroke:#626262;stroke-width:0.5;"/>
    </defs>
    <g clip-path="url(#p9d814cca02)">
     <use style="fill:#88c088;stroke:#626262;stroke-width:0.5;" x="0" xlink:href="#me16a5f4670" y="265.646094"/>
    </g>
   </g>
   <g id="PolyCollection_4">
    <defs>
     <path d="M 224.861122 -80.897817 
L 220.694253 -80.897817 
L 217.915811 -81.478811 
L 213.781679 -82.059804 
L 209.579398 -82.640797 
L 207.424188 -83.22179 
L 208.615868 -83.802783 
L 212.420243 -84.383776 
L 216.771372 -84.964769 
L 220.01593 -85.545762 
L 221.770791 -86.126756 
L 222.486612 -86.707749 
L 222.710969 -87.288742 
L 222.765562 -87.869735 
L 222.77594 -88.450728 
L 222.777488 -89.031721 
L 222.777669 -89.612714 
L 222.777682 -90.193708 
L 222.777637 -90.774701 
L 222.777248 -91.355694 
L 222.774656 -91.936687 
L 222.761092 -92.51768 
L 222.705658 -93.098673 
L 222.529807 -93.679666 
L 222.101293 -94.260659 
L 221.314232 -94.841653 
L 220.267071 -95.422646 
L 219.362588 -96.003639 
L 219.094293 -96.584632 
L 219.627655 -97.165625 
L 220.641675 -97.746618 
L 221.629231 -98.327611 
L 222.288081 -98.908604 
L 222.612186 -99.489598 
L 222.733329 -100.070591 
L 222.76826 -100.651584 
L 222.776099 -101.232577 
L 222.777475 -101.81357 
L 222.777665 -102.394563 
L 222.777685 -102.975556 
L 222.777686 -103.55655 
L 222.777669 -104.137543 
L 222.777534 -104.718536 
L 222.776708 -105.299529 
L 222.772715 -105.880522 
L 222.757678 -106.461515 
L 222.713842 -107.042508 
L 222.616161 -107.623501 
L 222.453662 -108.204495 
L 222.262298 -108.785488 
L 222.127687 -109.366481 
L 222.127687 -109.947474 
L 222.262298 -110.528467 
L 222.453662 -111.10946 
L 222.616161 -111.690453 
L 222.713842 -112.271446 
L 222.757678 -112.85244 
L 222.772715 -113.433433 
L 222.776708 -114.014426 
L 222.777534 -114.595419 
L 222.777669 -115.176412 
L 222.777686 -115.757405 
L 222.777687 -116.338398 
L 222.777687 -116.919391 
L 222.777681 -117.500385 
L 222.777641 -118.081378 
L 222.777411 -118.662371 
L 222.776386 -119.243364 
L 222.772832 -119.824357 
L 222.763323 -120.40535 
L 222.743994 -120.986343 
L 222.71502 -121.567337 
L 222.685271 -122.14833 
L 222.669623 -122.729323 
L 222.677494 -123.310316 
L 222.70403 -123.891309 
L 222.734752 -124.472302 
L 222.757843 -125.053295 
L 222.770415 -125.634288 
L 222.775574 -126.215282 
L 222.777201 -126.796275 
L 222.777599 -127.377268 
L 222.777675 -127.958261 
L 222.777686 -128.539254 
L 222.777687 -129.120247 
L 222.777687 -129.70124 
L 222.777687 -130.282233 
L 222.777685 -130.863227 
L 222.777668 -131.44422 
L 222.777578 -132.025213 
L 222.777208 -132.606206 
L 222.776027 -133.187199 
L 222.773134 -133.768192 
L 222.767785 -134.349185 
L 222.760611 -134.930179 
L 222.754339 -135.511172 
L 222.752374 -136.092165 
L 222.755928 -136.673158 
L 222.762856 -137.254151 
L 222.769672 -137.835144 
L 222.774253 -138.416137 
L 222.781122 -138.416137 
L 222.781122 -138.416137 
L 222.785703 -137.835144 
L 222.792519 -137.254151 
L 222.799447 -136.673158 
L 222.803001 -136.092165 
L 222.801036 -135.511172 
L 222.794764 -134.930179 
L 222.78759 -134.349185 
L 222.782241 -133.768192 
L 222.779348 -133.187199 
L 222.778167 -132.606206 
L 222.777797 -132.025213 
L 222.777707 -131.44422 
L 222.77769 -130.863227 
L 222.777688 -130.282233 
L 222.777688 -129.70124 
L 222.777688 -129.120247 
L 222.777689 -128.539254 
L 222.7777 -127.958261 
L 222.777776 -127.377268 
L 222.778174 -126.796275 
L 222.779801 -126.215282 
L 222.78496 -125.634288 
L 222.797532 -125.053295 
L 222.820623 -124.472302 
L 222.851345 -123.891309 
L 222.877881 -123.310316 
L 222.885752 -122.729323 
L 222.870104 -122.14833 
L 222.840355 -121.567337 
L 222.811381 -120.986343 
L 222.792052 -120.40535 
L 222.782543 -119.824357 
L 222.778989 -119.243364 
L 222.777964 -118.662371 
L 222.777734 -118.081378 
L 222.777694 -117.500385 
L 222.777688 -116.919391 
L 222.777688 -116.338398 
L 222.777689 -115.757405 
L 222.777706 -115.176412 
L 222.777841 -114.595419 
L 222.778667 -114.014426 
L 222.78266 -113.433433 
L 222.797697 -112.85244 
L 222.841533 -112.271446 
L 222.939214 -111.690453 
L 223.101713 -111.10946 
L 223.293077 -110.528467 
L 223.427688 -109.947474 
L 223.427688 -109.366481 
L 223.293077 -108.785488 
L 223.101713 -108.204495 
L 222.939214 -107.623501 
L 222.841533 -107.042508 
L 222.797697 -106.461515 
L 222.78266 -105.880522 
L 222.778667 -105.299529 
L 222.777841 -104.718536 
L 222.777706 -104.137543 
L 222.777689 -103.55655 
L 222.77769 -102.975556 
L 222.77771 -102.394563 
L 222.7779 -101.81357 
L 222.779276 -101.232577 
L 222.787115 -100.651584 
L 222.822046 -100.070591 
L 222.943189 -99.489598 
L 223.267294 -98.908604 
L 223.926144 -98.327611 
L 224.9137 -97.746618 
L 225.92772 -97.165625 
L 226.461082 -96.584632 
L 226.192787 -96.003639 
L 225.288304 -95.422646 
L 224.241143 -94.841653 
L 223.454082 -94.260659 
L 223.025568 -93.679666 
L 222.849717 -93.098673 
L 222.794283 -92.51768 
L 222.780719 -91.936687 
L 222.778127 -91.355694 
L 222.777738 -90.774701 
L 222.777693 -90.193708 
L 222.777706 -89.612714 
L 222.777887 -89.031721 
L 222.779435 -88.450728 
L 222.789813 -87.869735 
L 222.844406 -87.288742 
L 223.068763 -86.707749 
L 223.784584 -86.126756 
L 225.539445 -85.545762 
L 228.784003 -84.964769 
L 233.135132 -84.383776 
L 236.939507 -83.802783 
L 238.131188 -83.22179 
L 235.975977 -82.640797 
L 231.773696 -82.059804 
L 227.639564 -81.478811 
L 224.861122 -80.897817 
z
" id="mf1e06f3b73" style="stroke:#626262;stroke-width:0.5;"/>
    </defs>
    <g clip-path="url(#p9d814cca02)">
     <use style="fill:#bfb3cf;stroke:#626262;stroke-width:0.5;" x="0" xlink:href="#mf1e06f3b73" y="265.646094"/>
    </g>
   </g>
   <g id="PolyCollection_5">
    <defs>
     <path d="M 269.065156 -76.924887 
L 268.611219 -76.924887 
L 268.449184 -77.852272 
L 268.22542 -78.779658 
L 267.951046 -79.707043 
L 267.657737 -80.634428 
L 267.394513 -81.561814 
L 267.215307 -82.489199 
L 267.160944 -83.416585 
L 267.243343 -84.34397 
L 267.439539 -85.271356 
L 267.697928 -86.198741 
L 267.952376 -87.126127 
L 268.136281 -88.053512 
L 268.190982 -88.980897 
L 268.069053 -89.908283 
L 267.738286 -90.835668 
L 267.192024 -91.763054 
L 266.465187 -92.690439 
L 265.646725 -93.617825 
L 264.875054 -94.54521 
L 264.308628 -95.472596 
L 264.077873 -96.399981 
L 264.238718 -97.327366 
L 264.750985 -98.254752 
L 265.493037 -99.182137 
L 266.304465 -100.109523 
L 267.034635 -101.036908 
L 267.575659 -101.964294 
L 267.871483 -102.891679 
L 267.909945 -103.819065 
L 267.711559 -104.74645 
L 267.324636 -105.673835 
L 266.826039 -106.601221 
L 266.318591 -107.528606 
L 265.916245 -108.455992 
L 265.716521 -109.383377 
L 265.770576 -110.310763 
L 266.066192 -111.238148 
L 266.533538 -112.165534 
L 267.071225 -113.092919 
L 267.579425 -114.020305 
L 267.984978 -114.94769 
L 268.250508 -115.875075 
L 268.369756 -116.802461 
L 268.357465 -117.729846 
L 268.241498 -118.657232 
L 268.059575 -119.584617 
L 267.857671 -120.512003 
L 267.685402 -121.439388 
L 267.586504 -122.366774 
L 267.587207 -123.294159 
L 267.688385 -124.221544 
L 267.866239 -125.14893 
L 268.08168 -126.076315 
L 268.293803 -127.003701 
L 268.471197 -127.931086 
L 268.597036 -128.858472 
L 268.667949 -129.785857 
L 268.689645 -130.713243 
L 268.672693 -131.640628 
L 268.630144 -132.568013 
L 268.576582 -133.495399 
L 268.527096 -134.422784 
L 268.495136 -135.35017 
L 268.489546 -136.277555 
L 268.512234 -137.204941 
L 268.557938 -138.132326 
L 268.616459 -139.059712 
L 268.676337 -139.987097 
L 268.728246 -140.914482 
L 268.766804 -141.841868 
L 268.79055 -142.769253 
L 268.800793 -143.696639 
L 268.80031 -144.624024 
L 268.792489 -145.55141 
L 268.780975 -146.478795 
L 268.769449 -147.406181 
L 268.761231 -148.333566 
L 268.758666 -149.260951 
L 268.762562 -150.188337 
L 268.772046 -151.115722 
L 268.784973 -152.043108 
L 268.798733 -152.970493 
L 268.811069 -153.897879 
L 268.820577 -154.825264 
L 268.826777 -155.75265 
L 268.829881 -156.680035 
L 268.830482 -157.60742 
L 268.829323 -158.534806 
L 268.827188 -159.462191 
L 268.824858 -160.389577 
L 268.823046 -161.316962 
L 268.822282 -162.244348 
L 268.822802 -163.171733 
L 268.824503 -164.099119 
L 268.826998 -165.026504 
L 268.829779 -165.95389 
L 268.832379 -166.881275 
L 268.8345 -167.80866 
L 268.836036 -168.736046 
L 268.840339 -168.736046 
L 268.840339 -168.736046 
L 268.841875 -167.80866 
L 268.843996 -166.881275 
L 268.846596 -165.95389 
L 268.849377 -165.026504 
L 268.851872 -164.099119 
L 268.853573 -163.171733 
L 268.854093 -162.244348 
L 268.853329 -161.316962 
L 268.851517 -160.389577 
L 268.849187 -159.462191 
L 268.847052 -158.534806 
L 268.845893 -157.60742 
L 268.846494 -156.680035 
L 268.849598 -155.75265 
L 268.855798 -154.825264 
L 268.865306 -153.897879 
L 268.877642 -152.970493 
L 268.891402 -152.043108 
L 268.904329 -151.115722 
L 268.913813 -150.188337 
L 268.917709 -149.260951 
L 268.915144 -148.333566 
L 268.906926 -147.406181 
L 268.8954 -146.478795 
L 268.883886 -145.55141 
L 268.876065 -144.624024 
L 268.875582 -143.696639 
L 268.885825 -142.769253 
L 268.909571 -141.841868 
L 268.948129 -140.914482 
L 269.000038 -139.987097 
L 269.059916 -139.059712 
L 269.118437 -138.132326 
L 269.164141 -137.204941 
L 269.186829 -136.277555 
L 269.181239 -135.35017 
L 269.149279 -134.422784 
L 269.099793 -133.495399 
L 269.046231 -132.568013 
L 269.003682 -131.640628 
L 268.98673 -130.713243 
L 269.008426 -129.785857 
L 269.079339 -128.858472 
L 269.205178 -127.931086 
L 269.382572 -127.003701 
L 269.594695 -126.076315 
L 269.810136 -125.14893 
L 269.98799 -124.221544 
L 270.089168 -123.294159 
L 270.089871 -122.366774 
L 269.990973 -121.439388 
L 269.818704 -120.512003 
L 269.6168 -119.584617 
L 269.434877 -118.657232 
L 269.31891 -117.729846 
L 269.306619 -116.802461 
L 269.425867 -115.875075 
L 269.691397 -114.94769 
L 270.09695 -114.020305 
L 270.60515 -113.092919 
L 271.142837 -112.165534 
L 271.610183 -111.238148 
L 271.905799 -110.310763 
L 271.959854 -109.383377 
L 271.76013 -108.455992 
L 271.357784 -107.528606 
L 270.850336 -106.601221 
L 270.351739 -105.673835 
L 269.964816 -104.74645 
L 269.76643 -103.819065 
L 269.804892 -102.891679 
L 270.100716 -101.964294 
L 270.64174 -101.036908 
L 271.37191 -100.109523 
L 272.183338 -99.182137 
L 272.92539 -98.254752 
L 273.437657 -97.327366 
L 273.598502 -96.399981 
L 273.367747 -95.472596 
L 272.801321 -94.54521 
L 272.02965 -93.617825 
L 271.211188 -92.690439 
L 270.484351 -91.763054 
L 269.938089 -90.835668 
L 269.607322 -89.908283 
L 269.485393 -88.980897 
L 269.540094 -88.053512 
L 269.723999 -87.126127 
L 269.978447 -86.198741 
L 270.236836 -85.271356 
L 270.433032 -84.34397 
L 270.515431 -83.416585 
L 270.461068 -82.489199 
L 270.281862 -81.561814 
L 270.018638 -80.634428 
L 269.725329 -79.707043 
L 269.450955 -78.779658 
L 269.227191 -77.852272 
L 269.065156 -76.924887 
z
" id="mc1f4be5c7a" style="stroke:#626262;stroke-width:0.5;"/>
    </defs>
    <g clip-path="url(#p9d814cca02)">
     <use style="fill:#88c088;stroke:#626262;stroke-width:0.5;" x="0" xlink:href="#mc1f4be5c7a" y="265.646094"/>
    </g>
   </g>
   <g id="PolyCollection_6">
    <defs>
     <path d="M 301.626854 -80.236504 
L 297.463521 -80.236504 
L 293.390434 -81.230054 
L 287.564656 -82.223603 
L 284.191688 -83.217153 
L 286.591166 -84.210703 
L 292.349576 -85.204252 
L 296.913728 -86.197802 
L 298.911622 -87.191351 
L 299.444757 -88.184901 
L 299.534633 -89.178451 
L 299.543166 -90.172 
L 299.53013 -91.16555 
L 299.430978 -92.1591 
L 298.97364 -93.152649 
L 297.662094 -94.146199 
L 295.460514 -95.139748 
L 293.711964 -96.133298 
L 294.060829 -97.126848 
L 296.150429 -98.120397 
L 298.161756 -99.113947 
L 299.174018 -100.107497 
L 299.479625 -101.101046 
L 299.537554 -102.094596 
L 299.544427 -103.088146 
L 299.54288 -104.081695 
L 299.525891 -105.075245 
L 299.437584 -106.068794 
L 299.150124 -107.062344 
L 298.590256 -108.055894 
L 298.025538 -109.049443 
L 297.95305 -110.042993 
L 298.446982 -111.036543 
L 299.046472 -112.030092 
L 299.396084 -113.023642 
L 299.515839 -114.017191 
L 299.541384 -115.010741 
L 299.544847 -116.004291 
L 299.544946 -116.99784 
L 299.543078 -117.99139 
L 299.532083 -118.98494 
L 299.491574 -119.978489 
L 299.400776 -120.972039 
L 299.289096 -121.965588 
L 299.246201 -122.959138 
L 299.315375 -123.952688 
L 299.428892 -124.946237 
L 299.506442 -125.939787 
L 299.536689 -126.933337 
L 299.54396 -127.926886 
L 299.545069 -128.920436 
L 299.545147 -129.913985 
L 299.544842 -130.907535 
L 299.542797 -131.901085 
L 299.53429 -132.894634 
L 299.512479 -133.888184 
L 299.480553 -134.881734 
L 299.461098 -135.875283 
L 299.473162 -136.868833 
L 299.504572 -137.862383 
L 299.530109 -138.855932 
L 299.541502 -139.849482 
L 299.544594 -140.843031 
L 299.545124 -141.836581 
L 299.545177 -142.830131 
L 299.545117 -143.82368 
L 299.544643 -144.81723 
L 299.542422 -145.81078 
L 299.535939 -146.804329 
L 299.524821 -147.797879 
L 299.515661 -148.791428 
L 299.517006 -149.784978 
L 299.527478 -150.778528 
L 299.537861 -151.772077 
L 299.543192 -152.765627 
L 299.54483 -153.759177 
L 299.545145 -154.752726 
L 299.545184 -155.746276 
L 299.545184 -156.739825 
L 299.545162 -157.733375 
L 299.545042 -158.726925 
L 299.544646 -159.720474 
L 299.543858 -160.714024 
L 299.54304 -161.707574 
L 299.542904 -162.701123 
L 299.543588 -163.694673 
L 299.54445 -164.688223 
L 299.544964 -165.681772 
L 299.545143 -166.675322 
L 299.545182 -167.668871 
L 299.545187 -168.662421 
L 299.545186 -169.655971 
L 299.545172 -170.64952 
L 299.545091 -171.64307 
L 299.544786 -172.63662 
L 299.544091 -173.630169 
L 299.543213 -174.623719 
L 299.542848 -175.617268 
L 299.543362 -176.610818 
L 299.54425 -177.604368 
L 299.54487 -178.597917 
L 299.545505 -178.597917 
L 299.545505 -178.597917 
L 299.546125 -177.604368 
L 299.547013 -176.610818 
L 299.547527 -175.617268 
L 299.547162 -174.623719 
L 299.546284 -173.630169 
L 299.545589 -172.63662 
L 299.545284 -171.64307 
L 299.545203 -170.64952 
L 299.545189 -169.655971 
L 299.545188 -168.662421 
L 299.545193 -167.668871 
L 299.545232 -166.675322 
L 299.545411 -165.681772 
L 299.545925 -164.688223 
L 299.546787 -163.694673 
L 299.547471 -162.701123 
L 299.547335 -161.707574 
L 299.546517 -160.714024 
L 299.545729 -159.720474 
L 299.545333 -158.726925 
L 299.545213 -157.733375 
L 299.545191 -156.739825 
L 299.545191 -155.746276 
L 299.54523 -154.752726 
L 299.545545 -153.759177 
L 299.547183 -152.765627 
L 299.552514 -151.772077 
L 299.562897 -150.778528 
L 299.573369 -149.784978 
L 299.574714 -148.791428 
L 299.565554 -147.797879 
L 299.554436 -146.804329 
L 299.547953 -145.81078 
L 299.545732 -144.81723 
L 299.545258 -143.82368 
L 299.545198 -142.830131 
L 299.545251 -141.836581 
L 299.545781 -140.843031 
L 299.548873 -139.849482 
L 299.560266 -138.855932 
L 299.585803 -137.862383 
L 299.617213 -136.868833 
L 299.629277 -135.875283 
L 299.609822 -134.881734 
L 299.577896 -133.888184 
L 299.556085 -132.894634 
L 299.547578 -131.901085 
L 299.545533 -130.907535 
L 299.545228 -129.913985 
L 299.545306 -128.920436 
L 299.546415 -127.926886 
L 299.553686 -126.933337 
L 299.583933 -125.939787 
L 299.661483 -124.946237 
L 299.775 -123.952688 
L 299.844174 -122.959138 
L 299.801279 -121.965588 
L 299.689599 -120.972039 
L 299.598801 -119.978489 
L 299.558292 -118.98494 
L 299.547297 -117.99139 
L 299.545429 -116.99784 
L 299.545528 -116.004291 
L 299.548991 -115.010741 
L 299.574536 -114.017191 
L 299.694291 -113.023642 
L 300.043903 -112.030092 
L 300.643393 -111.036543 
L 301.137325 -110.042993 
L 301.064837 -109.049443 
L 300.500119 -108.055894 
L 299.940251 -107.062344 
L 299.652791 -106.068794 
L 299.564484 -105.075245 
L 299.547495 -104.081695 
L 299.545948 -103.088146 
L 299.552821 -102.094596 
L 299.61075 -101.101046 
L 299.916357 -100.107497 
L 300.928619 -99.113947 
L 302.939946 -98.120397 
L 305.029546 -97.126848 
L 305.378411 -96.133298 
L 303.629861 -95.139748 
L 301.428281 -94.146199 
L 300.116735 -93.152649 
L 299.659397 -92.1591 
L 299.560245 -91.16555 
L 299.547209 -90.172 
L 299.555742 -89.178451 
L 299.645618 -88.184901 
L 300.178753 -87.191351 
L 302.176647 -86.197802 
L 306.740799 -85.204252 
L 312.499209 -84.210703 
L 314.898688 -83.217153 
L 311.525719 -82.223603 
L 305.699941 -81.230054 
L 301.626854 -80.236504 
z
" id="mcb998cfe6d" style="stroke:#626262;stroke-width:0.5;"/>
    </defs>
    <g clip-path="url(#p9d814cca02)">
     <use style="fill:#bfb3cf;stroke:#626262;stroke-width:0.5;" x="0" xlink:href="#mcb998cfe6d" y="265.646094"/>
    </g>
   </g>
   <g id="PolyCollection_7">
    <defs>
     <path d="M 345.881013 -75.599311 
L 345.330362 -75.599311 
L 345.112485 -76.819607 
L 344.806396 -78.039903 
L 344.433728 -79.260199 
L 344.050728 -80.480495 
L 343.737861 -81.700791 
L 343.571517 -82.921086 
L 343.588775 -84.141382 
L 343.763178 -85.361678 
L 344.00467 -86.581974 
L 344.183876 -87.80227 
L 344.170472 -89.022566 
L 343.874171 -90.242861 
L 343.280395 -91.463157 
L 342.472112 -92.683453 
L 341.624364 -93.903749 
L 340.959929 -95.124045 
L 340.672214 -96.344341 
L 340.846529 -97.564636 
L 341.420949 -98.784932 
L 342.209228 -100.005228 
L 342.972536 -101.225524 
L 343.502417 -102.44582 
L 343.680704 -103.666116 
L 343.503462 -104.886411 
L 343.073034 -106.106707 
L 342.564962 -107.327003 
L 342.174406 -108.547299 
L 342.052526 -109.767595 
L 342.254843 -110.987891 
L 342.725806 -112.208186 
L 343.327894 -113.428482 
L 343.89922 -114.648778 
L 344.310475 -115.869074 
L 344.498912 -117.08937 
L 344.474517 -118.309666 
L 344.305844 -119.529961 
L 344.09418 -120.750257 
L 343.941714 -121.970553 
L 343.920035 -123.190849 
L 344.048938 -124.411145 
L 344.294796 -125.631441 
L 344.589242 -126.851736 
L 344.858243 -128.072032 
L 345.047484 -129.292328 
L 345.135069 -130.512624 
L 345.131156 -131.73292 
L 345.069209 -132.953216 
L 344.993385 -134.173511 
L 344.944834 -135.393807 
L 344.949603 -136.614103 
L 345.011884 -137.834399 
L 345.115464 -139.054695 
L 345.232562 -140.274991 
L 345.335481 -141.495286 
L 345.405669 -142.715582 
L 345.43737 -143.935878 
L 345.4364 -145.156174 
L 345.416181 -146.37647 
L 345.392809 -147.596766 
L 345.380191 -148.817061 
L 345.386176 -150.037357 
L 345.410861 -151.257653 
L 345.447756 -152.477949 
L 345.487191 -153.698245 
L 345.52025 -154.91854 
L 345.541512 -156.138836 
L 345.549909 -157.359132 
L 345.548047 -158.579428 
L 345.540761 -159.799724 
L 345.533434 -161.02002 
L 345.530413 -162.240315 
L 345.533841 -163.460611 
L 345.543301 -164.680907 
L 345.556404 -165.901203 
L 345.570018 -167.121499 
L 345.581516 -168.341795 
L 345.5895 -169.56209 
L 345.593866 -170.782386 
L 345.595421 -172.002682 
L 345.595373 -173.222978 
L 345.594891 -174.443274 
L 345.594816 -175.66357 
L 345.59552 -176.883865 
L 345.596911 -178.104161 
L 345.598576 -179.324457 
L 345.599986 -180.544753 
L 345.600699 -181.765049 
L 345.600497 -182.985345 
L 345.599441 -184.20564 
L 345.597864 -185.425936 
L 345.596276 -186.646232 
L 345.595218 -187.866528 
L 345.595068 -189.086824 
L 345.595918 -190.30712 
L 345.597549 -191.527415 
L 345.599552 -192.747711 
L 345.601503 -193.968007 
L 345.603105 -195.188303 
L 345.604246 -196.408599 
L 345.607129 -196.408599 
L 345.607129 -196.408599 
L 345.60827 -195.188303 
L 345.609872 -193.968007 
L 345.611823 -192.747711 
L 345.613826 -191.527415 
L 345.615457 -190.30712 
L 345.616307 -189.086824 
L 345.616157 -187.866528 
L 345.615099 -186.646232 
L 345.613511 -185.425936 
L 345.611934 -184.20564 
L 345.610878 -182.985345 
L 345.610676 -181.765049 
L 345.611389 -180.544753 
L 345.612799 -179.324457 
L 345.614464 -178.104161 
L 345.615855 -176.883865 
L 345.616559 -175.66357 
L 345.616484 -174.443274 
L 345.616002 -173.222978 
L 345.615954 -172.002682 
L 345.617509 -170.782386 
L 345.621875 -169.56209 
L 345.629859 -168.341795 
L 345.641357 -167.121499 
L 345.654971 -165.901203 
L 345.668074 -164.680907 
L 345.677534 -163.460611 
L 345.680962 -162.240315 
L 345.677941 -161.02002 
L 345.670614 -159.799724 
L 345.663328 -158.579428 
L 345.661466 -157.359132 
L 345.669863 -156.138836 
L 345.691125 -154.91854 
L 345.724184 -153.698245 
L 345.763619 -152.477949 
L 345.800514 -151.257653 
L 345.825199 -150.037357 
L 345.831184 -148.817061 
L 345.818566 -147.596766 
L 345.795194 -146.37647 
L 345.774975 -145.156174 
L 345.774005 -143.935878 
L 345.805706 -142.715582 
L 345.875894 -141.495286 
L 345.978813 -140.274991 
L 346.095911 -139.054695 
L 346.199491 -137.834399 
L 346.261772 -136.614103 
L 346.266541 -135.393807 
L 346.21799 -134.173511 
L 346.142166 -132.953216 
L 346.080219 -131.73292 
L 346.076306 -130.512624 
L 346.163891 -129.292328 
L 346.353132 -128.072032 
L 346.622133 -126.851736 
L 346.916579 -125.631441 
L 347.162437 -124.411145 
L 347.29134 -123.190849 
L 347.269661 -121.970553 
L 347.117195 -120.750257 
L 346.905531 -119.529961 
L 346.736858 -118.309666 
L 346.712463 -117.08937 
L 346.9009 -115.869074 
L 347.312155 -114.648778 
L 347.883481 -113.428482 
L 348.485569 -112.208186 
L 348.956532 -110.987891 
L 349.158849 -109.767595 
L 349.036969 -108.547299 
L 348.646413 -107.327003 
L 348.138341 -106.106707 
L 347.707913 -104.886411 
L 347.530671 -103.666116 
L 347.708958 -102.44582 
L 348.238839 -101.225524 
L 349.002147 -100.005228 
L 349.790426 -98.784932 
L 350.364846 -97.564636 
L 350.539161 -96.344341 
L 350.251446 -95.124045 
L 349.587011 -93.903749 
L 348.739263 -92.683453 
L 347.93098 -91.463157 
L 347.337204 -90.242861 
L 347.040903 -89.022566 
L 347.027499 -87.80227 
L 347.206705 -86.581974 
L 347.448197 -85.361678 
L 347.6226 -84.141382 
L 347.639858 -82.921086 
L 347.473514 -81.700791 
L 347.160647 -80.480495 
L 346.777647 -79.260199 
L 346.404979 -78.039903 
L 346.09889 -76.819607 
L 345.881013 -75.599311 
z
" id="md14f8f93f4" style="stroke:#626262;stroke-width:0.5;"/>
    </defs>
    <g clip-path="url(#p9d814cca02)">
     <use style="fill:#88c088;stroke:#626262;stroke-width:0.5;" x="0" xlink:href="#md14f8f93f4" y="265.646094"/>
    </g>
   </g>
   <g id="PolyCollection_8">
    <defs>
     <path d="M 378.458503 -79.475062 
L 374.166872 -79.475062 
L 367.909283 -81.149322 
L 360.959187 -82.823582 
L 363.225431 -84.497842 
L 371.108184 -86.172102 
L 375.3468 -87.846362 
L 376.219166 -89.520622 
L 376.147552 -91.194882 
L 375.084562 -92.869142 
L 371.963 -94.543402 
L 369.125074 -96.217662 
L 370.771529 -97.891922 
L 374.319693 -99.566182 
L 375.978108 -101.240442 
L 376.281641 -102.914702 
L 376.240118 -104.588962 
L 375.820953 -106.263222 
L 374.737512 -107.937482 
L 373.958558 -109.611742 
L 374.671263 -111.286002 
L 375.778736 -112.960262 
L 376.231577 -114.634522 
L 376.304766 -116.308782 
L 376.283425 -117.983042 
L 376.132141 -119.657302 
L 375.789607 -121.331562 
L 375.605647 -123.005822 
L 375.866816 -124.680082 
L 376.181508 -126.354342 
L 376.294645 -128.028602 
L 376.310583 -129.702862 
L 376.3012 -131.377122 
L 376.248361 -133.051382 
L 376.14413 -134.725643 
L 376.106624 -136.399903 
L 376.19516 -138.074163 
L 376.281414 -139.748423 
L 376.308793 -141.422683 
L 376.312182 -143.096943 
L 376.309627 -144.771203 
L 376.297172 -146.445463 
L 376.275916 -148.119723 
L 376.27203 -149.793983 
L 376.291715 -151.468243 
L 376.30764 -153.142503 
L 376.312118 -154.816763 
L 376.312591 -156.491023 
L 376.312028 -158.165283 
L 376.309661 -159.839543 
L 376.3062 -161.513803 
L 376.3062 -163.188063 
L 376.309661 -164.862323 
L 376.312029 -166.536583 
L 376.312616 -168.210843 
L 376.31259 -169.885103 
L 376.311846 -171.559363 
L 376.309192 -173.233623 
L 376.305911 -174.907883 
L 376.306559 -176.582143 
L 376.310102 -178.256403 
L 376.312178 -179.930663 
L 376.312641 -181.604923 
L 376.312685 -183.279183 
L 376.312687 -184.953443 
L 376.312687 -186.627703 
L 376.312687 -188.301963 
L 376.312688 -189.976223 
L 376.312688 -191.650483 
L 376.312688 -193.324743 
L 376.312688 -194.999003 
L 376.312688 -196.673263 
L 376.312688 -198.347523 
L 376.312688 -200.021783 
L 376.312688 -201.696043 
L 376.312688 -203.370303 
L 376.312688 -205.044563 
L 376.312688 -206.718823 
L 376.312688 -208.393083 
L 376.312688 -210.067344 
L 376.312688 -211.741604 
L 376.312688 -213.415864 
L 376.312688 -215.090124 
L 376.312688 -216.764384 
L 376.312688 -218.438644 
L 376.312688 -220.112904 
L 376.312688 -221.787164 
L 376.312688 -223.461424 
L 376.312688 -225.135684 
L 376.312688 -226.809944 
L 376.312687 -228.484204 
L 376.312687 -230.158464 
L 376.312687 -231.832724 
L 376.312687 -233.506984 
L 376.312669 -235.181244 
L 376.31247 -236.855504 
L 376.311516 -238.529764 
L 376.309743 -240.204024 
L 376.309233 -241.878284 
L 376.310797 -243.552544 
L 376.312205 -245.226804 
L 376.31317 -245.226804 
L 376.31317 -245.226804 
L 376.314578 -243.552544 
L 376.316142 -241.878284 
L 376.315632 -240.204024 
L 376.313859 -238.529764 
L 376.312905 -236.855504 
L 376.312706 -235.181244 
L 376.312688 -233.506984 
L 376.312688 -231.832724 
L 376.312688 -230.158464 
L 376.312688 -228.484204 
L 376.312688 -226.809944 
L 376.312688 -225.135684 
L 376.312688 -223.461424 
L 376.312688 -221.787164 
L 376.312688 -220.112904 
L 376.312688 -218.438644 
L 376.312688 -216.764384 
L 376.312688 -215.090124 
L 376.312688 -213.415864 
L 376.312688 -211.741604 
L 376.312688 -210.067344 
L 376.312688 -208.393083 
L 376.312688 -206.718823 
L 376.312688 -205.044563 
L 376.312688 -203.370303 
L 376.312688 -201.696043 
L 376.312688 -200.021783 
L 376.312688 -198.347523 
L 376.312688 -196.673263 
L 376.312688 -194.999003 
L 376.312688 -193.324743 
L 376.312688 -191.650483 
L 376.312688 -189.976223 
L 376.312688 -188.301963 
L 376.312688 -186.627703 
L 376.312688 -184.953443 
L 376.31269 -183.279183 
L 376.312734 -181.604923 
L 376.313197 -179.930663 
L 376.315273 -178.256403 
L 376.318816 -176.582143 
L 376.319464 -174.907883 
L 376.316183 -173.233623 
L 376.313529 -171.559363 
L 376.312785 -169.885103 
L 376.312759 -168.210843 
L 376.313346 -166.536583 
L 376.315714 -164.862323 
L 376.319175 -163.188063 
L 376.319175 -161.513803 
L 376.315714 -159.839543 
L 376.313347 -158.165283 
L 376.312784 -156.491023 
L 376.313257 -154.816763 
L 376.317735 -153.142503 
L 376.33366 -151.468243 
L 376.353345 -149.793983 
L 376.349459 -148.119723 
L 376.328203 -146.445463 
L 376.315748 -144.771203 
L 376.313193 -143.096943 
L 376.316582 -141.422683 
L 376.343961 -139.748423 
L 376.430215 -138.074163 
L 376.518751 -136.399903 
L 376.481245 -134.725643 
L 376.377014 -133.051382 
L 376.324175 -131.377122 
L 376.314792 -129.702862 
L 376.33073 -128.028602 
L 376.443867 -126.354342 
L 376.758559 -124.680082 
L 377.019728 -123.005822 
L 376.835768 -121.331562 
L 376.493234 -119.657302 
L 376.34195 -117.983042 
L 376.320609 -116.308782 
L 376.393798 -114.634522 
L 376.846639 -112.960262 
L 377.954112 -111.286002 
L 378.666817 -109.611742 
L 377.887863 -107.937482 
L 376.804422 -106.263222 
L 376.385257 -104.588962 
L 376.343734 -102.914702 
L 376.647267 -101.240442 
L 378.305682 -99.566182 
L 381.853846 -97.891922 
L 383.500301 -96.217662 
L 380.662375 -94.543402 
L 377.540813 -92.869142 
L 376.477823 -91.194882 
L 376.406209 -89.520622 
L 377.278575 -87.846362 
L 381.517191 -86.172102 
L 389.399944 -84.497842 
L 391.666187 -82.823582 
L 384.716092 -81.149322 
L 378.458503 -79.475062 
z
" id="m79efb038da" style="stroke:#626262;stroke-width:0.5;"/>
    </defs>
    <g clip-path="url(#p9d814cca02)">
     <use style="fill:#bfb3cf;stroke:#626262;stroke-width:0.5;" x="0" xlink:href="#m79efb038da" y="265.646094"/>
    </g>
   </g>
   <g id="patch_3">
    <path clip-path="url(#p9d814cca02)" d="M 130.656688 195.509583 
L 130.656688 195.509583 
L 130.656688 195.509583 
L 130.656688 195.509583 
z
" style="fill:#88c088;stroke:#626262;stroke-linejoin:miter;stroke-width:0.25;"/>
   </g>
   <g id="patch_4">
    <path clip-path="url(#p9d814cca02)" d="M 130.656688 195.509583 
L 130.656688 195.509583 
L 130.656688 195.509583 
L 130.656688 195.509583 
z
" style="fill:#bfb3cf;stroke:#626262;stroke-linejoin:miter;stroke-width:0.25;"/>
   </g>
   <g id="matplotlib.axis_1">
    <g id="xtick_1">
     <g id="line2d_1">
      <defs>
       <path d="M 0 0 
L 0 9 
" id="me4b8ef3254" style="stroke:#000000;stroke-width:1.875;"/>
      </defs>
      <g>
       <use style="stroke:#000000;stroke-width:1.875;" x="130.656688" xlink:href="#me4b8ef3254" y="208.556562"/>
      </g>
     </g>
     <g id="text_1">
      <!-- 1-4 -->
      <g transform="translate(117.182117 233.593984)scale(0.165 -0.165)">
       <defs>
        <path d="M 794 531 
L 1825 531 
L 1825 4091 
L 703 3866 
L 703 4441 
L 1819 4666 
L 2450 4666 
L 2450 531 
L 3481 531 
L 3481 0 
L 794 0 
L 794 531 
z
" id="DejaVuSans-31" transform="scale(0.015625)"/>
        <path d="M 313 2009 
L 1997 2009 
L 1997 1497 
L 313 1497 
L 313 2009 
z
" id="DejaVuSans-2d" transform="scale(0.015625)"/>
        <path d="M 2419 4116 
L 825 1625 
L 2419 1625 
L 2419 4116 
z
M 2253 4666 
L 3047 4666 
L 3047 1625 
L 3713 1625 
L 3713 1100 
L 3047 1100 
L 3047 0 
L 2419 0 
L 2419 1100 
L 313 1100 
L 313 1709 
L 2253 4666 
z
" id="DejaVuSans-34" transform="scale(0.015625)"/>
       </defs>
       <use xlink:href="#DejaVuSans-31"/>
       <use x="63.623047" xlink:href="#DejaVuSans-2d"/>
       <use x="99.707031" xlink:href="#DejaVuSans-34"/>
      </g>
     </g>
    </g>
    <g id="xtick_2">
     <g id="line2d_2">
      <g>
       <use style="stroke:#000000;stroke-width:1.875;" x="207.424188" xlink:href="#me4b8ef3254" y="208.556562"/>
      </g>
     </g>
     <g id="text_2">
      <!-- 5-8 -->
      <g transform="translate(193.949617 233.593984)scale(0.165 -0.165)">
       <defs>
        <path d="M 691 4666 
L 3169 4666 
L 3169 4134 
L 1269 4134 
L 1269 2991 
Q 1406 3038 1543 3061 
Q 1681 3084 1819 3084 
Q 2600 3084 3056 2656 
Q 3513 2228 3513 1497 
Q 3513 744 3044 326 
Q 2575 -91 1722 -91 
Q 1428 -91 1123 -41 
Q 819 9 494 109 
L 494 744 
Q 775 591 1075 516 
Q 1375 441 1709 441 
Q 2250 441 2565 725 
Q 2881 1009 2881 1497 
Q 2881 1984 2565 2268 
Q 2250 2553 1709 2553 
Q 1456 2553 1204 2497 
Q 953 2441 691 2322 
L 691 4666 
z
" id="DejaVuSans-35" transform="scale(0.015625)"/>
        <path d="M 2034 2216 
Q 1584 2216 1326 1975 
Q 1069 1734 1069 1313 
Q 1069 891 1326 650 
Q 1584 409 2034 409 
Q 2484 409 2743 651 
Q 3003 894 3003 1313 
Q 3003 1734 2745 1975 
Q 2488 2216 2034 2216 
z
M 1403 2484 
Q 997 2584 770 2862 
Q 544 3141 544 3541 
Q 544 4100 942 4425 
Q 1341 4750 2034 4750 
Q 2731 4750 3128 4425 
Q 3525 4100 3525 3541 
Q 3525 3141 3298 2862 
Q 3072 2584 2669 2484 
Q 3125 2378 3379 2068 
Q 3634 1759 3634 1313 
Q 3634 634 3220 271 
Q 2806 -91 2034 -91 
Q 1263 -91 848 271 
Q 434 634 434 1313 
Q 434 1759 690 2068 
Q 947 2378 1403 2484 
z
M 1172 3481 
Q 1172 3119 1398 2916 
Q 1625 2713 2034 2713 
Q 2441 2713 2670 2916 
Q 2900 3119 2900 3481 
Q 2900 3844 2670 4047 
Q 2441 4250 2034 4250 
Q 1625 4250 1398 4047 
Q 1172 3844 1172 3481 
z
" id="DejaVuSans-38" transform="scale(0.015625)"/>
       </defs>
       <use xlink:href="#DejaVuSans-35"/>
       <use x="63.623047" xlink:href="#DejaVuSans-2d"/>
       <use x="99.707031" xlink:href="#DejaVuSans-38"/>
      </g>
     </g>
    </g>
    <g id="xtick_3">
     <g id="line2d_3">
      <g>
       <use style="stroke:#000000;stroke-width:1.875;" x="284.191688" xlink:href="#me4b8ef3254" y="208.556562"/>
      </g>
     </g>
     <g id="text_3">
      <!-- 9-12 -->
      <g transform="translate(265.468055 233.593984)scale(0.165 -0.165)">
       <defs>
        <path d="M 703 97 
L 703 672 
Q 941 559 1184 500 
Q 1428 441 1663 441 
Q 2288 441 2617 861 
Q 2947 1281 2994 2138 
Q 2813 1869 2534 1725 
Q 2256 1581 1919 1581 
Q 1219 1581 811 2004 
Q 403 2428 403 3163 
Q 403 3881 828 4315 
Q 1253 4750 1959 4750 
Q 2769 4750 3195 4129 
Q 3622 3509 3622 2328 
Q 3622 1225 3098 567 
Q 2575 -91 1691 -91 
Q 1453 -91 1209 -44 
Q 966 3 703 97 
z
M 1959 2075 
Q 2384 2075 2632 2365 
Q 2881 2656 2881 3163 
Q 2881 3666 2632 3958 
Q 2384 4250 1959 4250 
Q 1534 4250 1286 3958 
Q 1038 3666 1038 3163 
Q 1038 2656 1286 2365 
Q 1534 2075 1959 2075 
z
" id="DejaVuSans-39" transform="scale(0.015625)"/>
        <path d="M 1228 531 
L 3431 531 
L 3431 0 
L 469 0 
L 469 531 
Q 828 903 1448 1529 
Q 2069 2156 2228 2338 
Q 2531 2678 2651 2914 
Q 2772 3150 2772 3378 
Q 2772 3750 2511 3984 
Q 2250 4219 1831 4219 
Q 1534 4219 1204 4116 
Q 875 4013 500 3803 
L 500 4441 
Q 881 4594 1212 4672 
Q 1544 4750 1819 4750 
Q 2544 4750 2975 4387 
Q 3406 4025 3406 3419 
Q 3406 3131 3298 2873 
Q 3191 2616 2906 2266 
Q 2828 2175 2409 1742 
Q 1991 1309 1228 531 
z
" id="DejaVuSans-32" transform="scale(0.015625)"/>
       </defs>
       <use xlink:href="#DejaVuSans-39"/>
       <use x="63.623047" xlink:href="#DejaVuSans-2d"/>
       <use x="99.707031" xlink:href="#DejaVuSans-31"/>
       <use x="163.330078" xlink:href="#DejaVuSans-32"/>
      </g>
     </g>
    </g>
    <g id="xtick_4">
     <g id="line2d_4">
      <g>
       <use style="stroke:#000000;stroke-width:1.875;" x="360.959187" xlink:href="#me4b8ef3254" y="208.556562"/>
      </g>
     </g>
     <g id="text_4">
      <!-- 13-16 -->
      <g transform="translate(336.986492 233.593984)scale(0.165 -0.165)">
       <defs>
        <path d="M 2597 2516 
Q 3050 2419 3304 2112 
Q 3559 1806 3559 1356 
Q 3559 666 3084 287 
Q 2609 -91 1734 -91 
Q 1441 -91 1130 -33 
Q 819 25 488 141 
L 488 750 
Q 750 597 1062 519 
Q 1375 441 1716 441 
Q 2309 441 2620 675 
Q 2931 909 2931 1356 
Q 2931 1769 2642 2001 
Q 2353 2234 1838 2234 
L 1294 2234 
L 1294 2753 
L 1863 2753 
Q 2328 2753 2575 2939 
Q 2822 3125 2822 3475 
Q 2822 3834 2567 4026 
Q 2313 4219 1838 4219 
Q 1578 4219 1281 4162 
Q 984 4106 628 3988 
L 628 4550 
Q 988 4650 1302 4700 
Q 1616 4750 1894 4750 
Q 2613 4750 3031 4423 
Q 3450 4097 3450 3541 
Q 3450 3153 3228 2886 
Q 3006 2619 2597 2516 
z
" id="DejaVuSans-33" transform="scale(0.015625)"/>
        <path d="M 2113 2584 
Q 1688 2584 1439 2293 
Q 1191 2003 1191 1497 
Q 1191 994 1439 701 
Q 1688 409 2113 409 
Q 2538 409 2786 701 
Q 3034 994 3034 1497 
Q 3034 2003 2786 2293 
Q 2538 2584 2113 2584 
z
M 3366 4563 
L 3366 3988 
Q 3128 4100 2886 4159 
Q 2644 4219 2406 4219 
Q 1781 4219 1451 3797 
Q 1122 3375 1075 2522 
Q 1259 2794 1537 2939 
Q 1816 3084 2150 3084 
Q 2853 3084 3261 2657 
Q 3669 2231 3669 1497 
Q 3669 778 3244 343 
Q 2819 -91 2113 -91 
Q 1303 -91 875 529 
Q 447 1150 447 2328 
Q 447 3434 972 4092 
Q 1497 4750 2381 4750 
Q 2619 4750 2861 4703 
Q 3103 4656 3366 4563 
z
" id="DejaVuSans-36" transform="scale(0.015625)"/>
       </defs>
       <use xlink:href="#DejaVuSans-31"/>
       <use x="63.623047" xlink:href="#DejaVuSans-33"/>
       <use x="127.246094" xlink:href="#DejaVuSans-2d"/>
       <use x="163.330078" xlink:href="#DejaVuSans-31"/>
       <use x="226.953125" xlink:href="#DejaVuSans-36"/>
      </g>
     </g>
    </g>
    <g id="text_5">
     <!-- academic age at grant award -->
     <g transform="translate(113.302625 254.702656)scale(0.18 -0.18)">
      <defs>
       <path d="M 2194 1759 
Q 1497 1759 1228 1600 
Q 959 1441 959 1056 
Q 959 750 1161 570 
Q 1363 391 1709 391 
Q 2188 391 2477 730 
Q 2766 1069 2766 1631 
L 2766 1759 
L 2194 1759 
z
M 3341 1997 
L 3341 0 
L 2766 0 
L 2766 531 
Q 2569 213 2275 61 
Q 1981 -91 1556 -91 
Q 1019 -91 701 211 
Q 384 513 384 1019 
Q 384 1609 779 1909 
Q 1175 2209 1959 2209 
L 2766 2209 
L 2766 2266 
Q 2766 2663 2505 2880 
Q 2244 3097 1772 3097 
Q 1472 3097 1187 3025 
Q 903 2953 641 2809 
L 641 3341 
Q 956 3463 1253 3523 
Q 1550 3584 1831 3584 
Q 2591 3584 2966 3190 
Q 3341 2797 3341 1997 
z
" id="DejaVuSans-61" transform="scale(0.015625)"/>
       <path d="M 3122 3366 
L 3122 2828 
Q 2878 2963 2633 3030 
Q 2388 3097 2138 3097 
Q 1578 3097 1268 2742 
Q 959 2388 959 1747 
Q 959 1106 1268 751 
Q 1578 397 2138 397 
Q 2388 397 2633 464 
Q 2878 531 3122 666 
L 3122 134 
Q 2881 22 2623 -34 
Q 2366 -91 2075 -91 
Q 1284 -91 818 406 
Q 353 903 353 1747 
Q 353 2603 823 3093 
Q 1294 3584 2113 3584 
Q 2378 3584 2631 3529 
Q 2884 3475 3122 3366 
z
" id="DejaVuSans-63" transform="scale(0.015625)"/>
       <path d="M 2906 2969 
L 2906 4863 
L 3481 4863 
L 3481 0 
L 2906 0 
L 2906 525 
Q 2725 213 2448 61 
Q 2172 -91 1784 -91 
Q 1150 -91 751 415 
Q 353 922 353 1747 
Q 353 2572 751 3078 
Q 1150 3584 1784 3584 
Q 2172 3584 2448 3432 
Q 2725 3281 2906 2969 
z
M 947 1747 
Q 947 1113 1208 752 
Q 1469 391 1925 391 
Q 2381 391 2643 752 
Q 2906 1113 2906 1747 
Q 2906 2381 2643 2742 
Q 2381 3103 1925 3103 
Q 1469 3103 1208 2742 
Q 947 2381 947 1747 
z
" id="DejaVuSans-64" transform="scale(0.015625)"/>
       <path d="M 3597 1894 
L 3597 1613 
L 953 1613 
Q 991 1019 1311 708 
Q 1631 397 2203 397 
Q 2534 397 2845 478 
Q 3156 559 3463 722 
L 3463 178 
Q 3153 47 2828 -22 
Q 2503 -91 2169 -91 
Q 1331 -91 842 396 
Q 353 884 353 1716 
Q 353 2575 817 3079 
Q 1281 3584 2069 3584 
Q 2775 3584 3186 3129 
Q 3597 2675 3597 1894 
z
M 3022 2063 
Q 3016 2534 2758 2815 
Q 2500 3097 2075 3097 
Q 1594 3097 1305 2825 
Q 1016 2553 972 2059 
L 3022 2063 
z
" id="DejaVuSans-65" transform="scale(0.015625)"/>
       <path d="M 3328 2828 
Q 3544 3216 3844 3400 
Q 4144 3584 4550 3584 
Q 5097 3584 5394 3201 
Q 5691 2819 5691 2113 
L 5691 0 
L 5113 0 
L 5113 2094 
Q 5113 2597 4934 2840 
Q 4756 3084 4391 3084 
Q 3944 3084 3684 2787 
Q 3425 2491 3425 1978 
L 3425 0 
L 2847 0 
L 2847 2094 
Q 2847 2600 2669 2842 
Q 2491 3084 2119 3084 
Q 1678 3084 1418 2786 
Q 1159 2488 1159 1978 
L 1159 0 
L 581 0 
L 581 3500 
L 1159 3500 
L 1159 2956 
Q 1356 3278 1631 3431 
Q 1906 3584 2284 3584 
Q 2666 3584 2933 3390 
Q 3200 3197 3328 2828 
z
" id="DejaVuSans-6d" transform="scale(0.015625)"/>
       <path d="M 603 3500 
L 1178 3500 
L 1178 0 
L 603 0 
L 603 3500 
z
M 603 4863 
L 1178 4863 
L 1178 4134 
L 603 4134 
L 603 4863 
z
" id="DejaVuSans-69" transform="scale(0.015625)"/>
       <path id="DejaVuSans-20" transform="scale(0.015625)"/>
       <path d="M 2906 1791 
Q 2906 2416 2648 2759 
Q 2391 3103 1925 3103 
Q 1463 3103 1205 2759 
Q 947 2416 947 1791 
Q 947 1169 1205 825 
Q 1463 481 1925 481 
Q 2391 481 2648 825 
Q 2906 1169 2906 1791 
z
M 3481 434 
Q 3481 -459 3084 -895 
Q 2688 -1331 1869 -1331 
Q 1566 -1331 1297 -1286 
Q 1028 -1241 775 -1147 
L 775 -588 
Q 1028 -725 1275 -790 
Q 1522 -856 1778 -856 
Q 2344 -856 2625 -561 
Q 2906 -266 2906 331 
L 2906 616 
Q 2728 306 2450 153 
Q 2172 0 1784 0 
Q 1141 0 747 490 
Q 353 981 353 1791 
Q 353 2603 747 3093 
Q 1141 3584 1784 3584 
Q 2172 3584 2450 3431 
Q 2728 3278 2906 2969 
L 2906 3500 
L 3481 3500 
L 3481 434 
z
" id="DejaVuSans-67" transform="scale(0.015625)"/>
       <path d="M 1172 4494 
L 1172 3500 
L 2356 3500 
L 2356 3053 
L 1172 3053 
L 1172 1153 
Q 1172 725 1289 603 
Q 1406 481 1766 481 
L 2356 481 
L 2356 0 
L 1766 0 
Q 1100 0 847 248 
Q 594 497 594 1153 
L 594 3053 
L 172 3053 
L 172 3500 
L 594 3500 
L 594 4494 
L 1172 4494 
z
" id="DejaVuSans-74" transform="scale(0.015625)"/>
       <path d="M 2631 2963 
Q 2534 3019 2420 3045 
Q 2306 3072 2169 3072 
Q 1681 3072 1420 2755 
Q 1159 2438 1159 1844 
L 1159 0 
L 581 0 
L 581 3500 
L 1159 3500 
L 1159 2956 
Q 1341 3275 1631 3429 
Q 1922 3584 2338 3584 
Q 2397 3584 2469 3576 
Q 2541 3569 2628 3553 
L 2631 2963 
z
" id="DejaVuSans-72" transform="scale(0.015625)"/>
       <path d="M 3513 2113 
L 3513 0 
L 2938 0 
L 2938 2094 
Q 2938 2591 2744 2837 
Q 2550 3084 2163 3084 
Q 1697 3084 1428 2787 
Q 1159 2491 1159 1978 
L 1159 0 
L 581 0 
L 581 3500 
L 1159 3500 
L 1159 2956 
Q 1366 3272 1645 3428 
Q 1925 3584 2291 3584 
Q 2894 3584 3203 3211 
Q 3513 2838 3513 2113 
z
" id="DejaVuSans-6e" transform="scale(0.015625)"/>
       <path d="M 269 3500 
L 844 3500 
L 1563 769 
L 2278 3500 
L 2956 3500 
L 3675 769 
L 4391 3500 
L 4966 3500 
L 4050 0 
L 3372 0 
L 2619 2869 
L 1863 0 
L 1184 0 
L 269 3500 
z
" id="DejaVuSans-77" transform="scale(0.015625)"/>
      </defs>
      <use xlink:href="#DejaVuSans-61"/>
      <use x="61.279297" xlink:href="#DejaVuSans-63"/>
      <use x="116.259766" xlink:href="#DejaVuSans-61"/>
      <use x="177.539062" xlink:href="#DejaVuSans-64"/>
      <use x="241.015625" xlink:href="#DejaVuSans-65"/>
      <use x="302.539062" xlink:href="#DejaVuSans-6d"/>
      <use x="399.951172" xlink:href="#DejaVuSans-69"/>
      <use x="427.734375" xlink:href="#DejaVuSans-63"/>
      <use x="482.714844" xlink:href="#DejaVuSans-20"/>
      <use x="514.501953" xlink:href="#DejaVuSans-61"/>
      <use x="575.78125" xlink:href="#DejaVuSans-67"/>
      <use x="639.257812" xlink:href="#DejaVuSans-65"/>
      <use x="700.78125" xlink:href="#DejaVuSans-20"/>
      <use x="732.568359" xlink:href="#DejaVuSans-61"/>
      <use x="793.847656" xlink:href="#DejaVuSans-74"/>
      <use x="833.056641" xlink:href="#DejaVuSans-20"/>
      <use x="864.84375" xlink:href="#DejaVuSans-67"/>
      <use x="928.320312" xlink:href="#DejaVuSans-72"/>
      <use x="969.433594" xlink:href="#DejaVuSans-61"/>
      <use x="1030.712891" xlink:href="#DejaVuSans-6e"/>
      <use x="1094.091797" xlink:href="#DejaVuSans-74"/>
      <use x="1133.300781" xlink:href="#DejaVuSans-20"/>
      <use x="1165.087891" xlink:href="#DejaVuSans-61"/>
      <use x="1226.367188" xlink:href="#DejaVuSans-77"/>
      <use x="1308.154297" xlink:href="#DejaVuSans-61"/>
      <use x="1369.433594" xlink:href="#DejaVuSans-72"/>
      <use x="1408.796875" xlink:href="#DejaVuSans-64"/>
     </g>
    </g>
   </g>
   <g id="matplotlib.axis_2">
    <g id="ytick_1">
     <g id="line2d_5">
      <defs>
       <path d="M 0 0 
L -9 0 
" id="m39d4b6f1de" style="stroke:#000000;stroke-width:1.875;"/>
      </defs>
      <g>
       <use style="stroke:#000000;stroke-width:1.875;" x="82.272937" xlink:href="#m39d4b6f1de" y="182.336094"/>
      </g>
     </g>
     <g id="text_6">
      <!-- 1 -->
      <g transform="translate(59.274812 188.604805)scale(0.165 -0.165)">
       <use xlink:href="#DejaVuSans-31"/>
      </g>
     </g>
    </g>
    <g id="ytick_2">
     <g id="line2d_6">
      <g>
       <use style="stroke:#000000;stroke-width:1.875;" x="82.272937" xlink:href="#m39d4b6f1de" y="155.989116"/>
      </g>
     </g>
     <g id="text_7">
      <!-- 3 -->
      <g transform="translate(59.274812 162.257827)scale(0.165 -0.165)">
       <use xlink:href="#DejaVuSans-33"/>
      </g>
     </g>
    </g>
    <g id="ytick_3">
     <g id="line2d_7">
      <g>
       <use style="stroke:#000000;stroke-width:1.875;" x="82.272937" xlink:href="#m39d4b6f1de" y="129.642139"/>
      </g>
     </g>
     <g id="text_8">
      <!-- 5 -->
      <g transform="translate(59.274812 135.91085)scale(0.165 -0.165)">
       <use xlink:href="#DejaVuSans-35"/>
      </g>
     </g>
    </g>
    <g id="ytick_4">
     <g id="line2d_8">
      <g>
       <use style="stroke:#000000;stroke-width:1.875;" x="82.272937" xlink:href="#m39d4b6f1de" y="103.295161"/>
      </g>
     </g>
     <g id="text_9">
      <!-- 7 -->
      <g transform="translate(59.274812 109.563872)scale(0.165 -0.165)">
       <defs>
        <path d="M 525 4666 
L 3525 4666 
L 3525 4397 
L 1831 0 
L 1172 0 
L 2766 4134 
L 525 4134 
L 525 4666 
z
" id="DejaVuSans-37" transform="scale(0.015625)"/>
       </defs>
       <use xlink:href="#DejaVuSans-37"/>
      </g>
     </g>
    </g>
    <g id="ytick_5">
     <g id="line2d_9">
      <g>
       <use style="stroke:#000000;stroke-width:1.875;" x="82.272937" xlink:href="#m39d4b6f1de" y="76.948183"/>
      </g>
     </g>
     <g id="text_10">
      <!-- 9 -->
      <g transform="translate(59.274812 83.216894)scale(0.165 -0.165)">
       <use xlink:href="#DejaVuSans-39"/>
      </g>
     </g>
    </g>
    <g id="ytick_6">
     <g id="line2d_10">
      <g>
       <use style="stroke:#000000;stroke-width:1.875;" x="82.272937" xlink:href="#m39d4b6f1de" y="50.601205"/>
      </g>
     </g>
     <g id="text_11">
      <!-- 11 -->
      <g transform="translate(48.776687 56.869916)scale(0.165 -0.165)">
       <use xlink:href="#DejaVuSans-31"/>
       <use x="63.623047" xlink:href="#DejaVuSans-31"/>
      </g>
     </g>
    </g>
    <g id="text_12">
     <!-- mobility before grant  -->
     <g transform="translate(20.877187 203.293125)rotate(-90)scale(0.18 -0.18)">
      <defs>
       <path d="M 1959 3097 
Q 1497 3097 1228 2736 
Q 959 2375 959 1747 
Q 959 1119 1226 758 
Q 1494 397 1959 397 
Q 2419 397 2687 759 
Q 2956 1122 2956 1747 
Q 2956 2369 2687 2733 
Q 2419 3097 1959 3097 
z
M 1959 3584 
Q 2709 3584 3137 3096 
Q 3566 2609 3566 1747 
Q 3566 888 3137 398 
Q 2709 -91 1959 -91 
Q 1206 -91 779 398 
Q 353 888 353 1747 
Q 353 2609 779 3096 
Q 1206 3584 1959 3584 
z
" id="DejaVuSans-6f" transform="scale(0.015625)"/>
       <path d="M 3116 1747 
Q 3116 2381 2855 2742 
Q 2594 3103 2138 3103 
Q 1681 3103 1420 2742 
Q 1159 2381 1159 1747 
Q 1159 1113 1420 752 
Q 1681 391 2138 391 
Q 2594 391 2855 752 
Q 3116 1113 3116 1747 
z
M 1159 2969 
Q 1341 3281 1617 3432 
Q 1894 3584 2278 3584 
Q 2916 3584 3314 3078 
Q 3713 2572 3713 1747 
Q 3713 922 3314 415 
Q 2916 -91 2278 -91 
Q 1894 -91 1617 61 
Q 1341 213 1159 525 
L 1159 0 
L 581 0 
L 581 4863 
L 1159 4863 
L 1159 2969 
z
" id="DejaVuSans-62" transform="scale(0.015625)"/>
       <path d="M 603 4863 
L 1178 4863 
L 1178 0 
L 603 0 
L 603 4863 
z
" id="DejaVuSans-6c" transform="scale(0.015625)"/>
       <path d="M 2059 -325 
Q 1816 -950 1584 -1140 
Q 1353 -1331 966 -1331 
L 506 -1331 
L 506 -850 
L 844 -850 
Q 1081 -850 1212 -737 
Q 1344 -625 1503 -206 
L 1606 56 
L 191 3500 
L 800 3500 
L 1894 763 
L 2988 3500 
L 3597 3500 
L 2059 -325 
z
" id="DejaVuSans-79" transform="scale(0.015625)"/>
       <path d="M 2375 4863 
L 2375 4384 
L 1825 4384 
Q 1516 4384 1395 4259 
Q 1275 4134 1275 3809 
L 1275 3500 
L 2222 3500 
L 2222 3053 
L 1275 3053 
L 1275 0 
L 697 0 
L 697 3053 
L 147 3053 
L 147 3500 
L 697 3500 
L 697 3744 
Q 697 4328 969 4595 
Q 1241 4863 1831 4863 
L 2375 4863 
z
" id="DejaVuSans-66" transform="scale(0.015625)"/>
      </defs>
      <use xlink:href="#DejaVuSans-6d"/>
      <use x="97.412109" xlink:href="#DejaVuSans-6f"/>
      <use x="158.59375" xlink:href="#DejaVuSans-62"/>
      <use x="222.070312" xlink:href="#DejaVuSans-69"/>
      <use x="249.853516" xlink:href="#DejaVuSans-6c"/>
      <use x="277.636719" xlink:href="#DejaVuSans-69"/>
      <use x="305.419922" xlink:href="#DejaVuSans-74"/>
      <use x="344.628906" xlink:href="#DejaVuSans-79"/>
      <use x="403.808594" xlink:href="#DejaVuSans-20"/>
      <use x="435.595703" xlink:href="#DejaVuSans-62"/>
      <use x="499.072266" xlink:href="#DejaVuSans-65"/>
      <use x="560.595703" xlink:href="#DejaVuSans-66"/>
      <use x="595.800781" xlink:href="#DejaVuSans-6f"/>
      <use x="656.982422" xlink:href="#DejaVuSans-72"/>
      <use x="695.845703" xlink:href="#DejaVuSans-65"/>
      <use x="757.369141" xlink:href="#DejaVuSans-20"/>
      <use x="789.15625" xlink:href="#DejaVuSans-67"/>
      <use x="852.632812" xlink:href="#DejaVuSans-72"/>
      <use x="893.746094" xlink:href="#DejaVuSans-61"/>
      <use x="955.025391" xlink:href="#DejaVuSans-6e"/>
      <use x="1018.404297" xlink:href="#DejaVuSans-74"/>
      <use x="1057.613281" xlink:href="#DejaVuSans-20"/>
     </g>
     <!-- (countries) -->
     <g transform="translate(41.03325 154.087031)rotate(-90)scale(0.18 -0.18)">
      <defs>
       <path d="M 1984 4856 
Q 1566 4138 1362 3434 
Q 1159 2731 1159 2009 
Q 1159 1288 1364 580 
Q 1569 -128 1984 -844 
L 1484 -844 
Q 1016 -109 783 600 
Q 550 1309 550 2009 
Q 550 2706 781 3412 
Q 1013 4119 1484 4856 
L 1984 4856 
z
" id="DejaVuSans-28" transform="scale(0.015625)"/>
       <path d="M 544 1381 
L 544 3500 
L 1119 3500 
L 1119 1403 
Q 1119 906 1312 657 
Q 1506 409 1894 409 
Q 2359 409 2629 706 
Q 2900 1003 2900 1516 
L 2900 3500 
L 3475 3500 
L 3475 0 
L 2900 0 
L 2900 538 
Q 2691 219 2414 64 
Q 2138 -91 1772 -91 
Q 1169 -91 856 284 
Q 544 659 544 1381 
z
M 1991 3584 
L 1991 3584 
z
" id="DejaVuSans-75" transform="scale(0.015625)"/>
       <path d="M 2834 3397 
L 2834 2853 
Q 2591 2978 2328 3040 
Q 2066 3103 1784 3103 
Q 1356 3103 1142 2972 
Q 928 2841 928 2578 
Q 928 2378 1081 2264 
Q 1234 2150 1697 2047 
L 1894 2003 
Q 2506 1872 2764 1633 
Q 3022 1394 3022 966 
Q 3022 478 2636 193 
Q 2250 -91 1575 -91 
Q 1294 -91 989 -36 
Q 684 19 347 128 
L 347 722 
Q 666 556 975 473 
Q 1284 391 1588 391 
Q 1994 391 2212 530 
Q 2431 669 2431 922 
Q 2431 1156 2273 1281 
Q 2116 1406 1581 1522 
L 1381 1569 
Q 847 1681 609 1914 
Q 372 2147 372 2553 
Q 372 3047 722 3315 
Q 1072 3584 1716 3584 
Q 2034 3584 2315 3537 
Q 2597 3491 2834 3397 
z
" id="DejaVuSans-73" transform="scale(0.015625)"/>
       <path d="M 513 4856 
L 1013 4856 
Q 1481 4119 1714 3412 
Q 1947 2706 1947 2009 
Q 1947 1309 1714 600 
Q 1481 -109 1013 -844 
L 513 -844 
Q 928 -128 1133 580 
Q 1338 1288 1338 2009 
Q 1338 2731 1133 3434 
Q 928 4138 513 4856 
z
" id="DejaVuSans-29" transform="scale(0.015625)"/>
      </defs>
      <use xlink:href="#DejaVuSans-28"/>
      <use x="39.013672" xlink:href="#DejaVuSans-63"/>
      <use x="93.994141" xlink:href="#DejaVuSans-6f"/>
      <use x="155.175781" xlink:href="#DejaVuSans-75"/>
      <use x="218.554688" xlink:href="#DejaVuSans-6e"/>
      <use x="281.933594" xlink:href="#DejaVuSans-74"/>
      <use x="321.142578" xlink:href="#DejaVuSans-72"/>
      <use x="362.255859" xlink:href="#DejaVuSans-69"/>
      <use x="390.039062" xlink:href="#DejaVuSans-65"/>
      <use x="451.5625" xlink:href="#DejaVuSans-73"/>
      <use x="503.662109" xlink:href="#DejaVuSans-29"/>
     </g>
    </g>
   </g>
   <g id="line2d_11">
    <path clip-path="url(#p9d814cca02)" d="M 115.303188 182.336094 
L 115.303188 182.336094 
" style="fill:none;stroke:#626262;stroke-linecap:square;stroke-width:0.5;"/>
   </g>
   <g id="line2d_12">
    <path clip-path="url(#p9d814cca02)" d="M 115.303188 182.336094 
L 115.303188 182.336094 
" style="fill:none;stroke:#626262;stroke-linecap:square;stroke-width:1.5;"/>
   </g>
   <g id="line2d_13">
    <path clip-path="url(#p9d814cca02)" d="M 146.010188 182.336094 
L 146.010188 182.336094 
" style="fill:none;stroke:#626262;stroke-linecap:square;stroke-width:0.5;"/>
   </g>
   <g id="line2d_14">
    <path clip-path="url(#p9d814cca02)" d="M 146.010188 182.336094 
L 146.010188 182.336094 
" style="fill:none;stroke:#626262;stroke-linecap:square;stroke-width:1.5;"/>
   </g>
   <g id="line2d_15">
    <path clip-path="url(#p9d814cca02)" d="M 192.070688 182.336094 
L 192.070688 116.46865 
" style="fill:none;stroke:#626262;stroke-linecap:square;stroke-width:0.5;"/>
   </g>
   <g id="line2d_16">
    <path clip-path="url(#p9d814cca02)" d="M 192.070688 182.336094 
L 192.070688 155.989116 
" style="fill:none;stroke:#626262;stroke-linecap:square;stroke-width:1.5;"/>
   </g>
   <g id="line2d_17">
    <path clip-path="url(#p9d814cca02)" d="M 222.777688 182.336094 
L 222.777688 182.336094 
" style="fill:none;stroke:#626262;stroke-linecap:square;stroke-width:0.5;"/>
   </g>
   <g id="line2d_18">
    <path clip-path="url(#p9d814cca02)" d="M 222.777688 182.336094 
L 222.777688 182.336094 
" style="fill:none;stroke:#626262;stroke-linecap:square;stroke-width:1.5;"/>
   </g>
   <g id="line2d_19">
    <path clip-path="url(#p9d814cca02)" d="M 268.838188 182.336094 
L 268.838188 142.815628 
" style="fill:none;stroke:#626262;stroke-linecap:square;stroke-width:0.5;"/>
   </g>
   <g id="line2d_20">
    <path clip-path="url(#p9d814cca02)" d="M 268.838188 169.162605 
L 268.838188 155.989116 
" style="fill:none;stroke:#626262;stroke-linecap:square;stroke-width:1.5;"/>
   </g>
   <g id="line2d_21">
    <path clip-path="url(#p9d814cca02)" d="M 299.545187 182.336094 
L 299.545187 155.989116 
" style="fill:none;stroke:#626262;stroke-linecap:square;stroke-width:0.5;"/>
   </g>
   <g id="line2d_22">
    <path clip-path="url(#p9d814cca02)" d="M 299.545187 182.336094 
L 299.545187 169.162605 
" style="fill:none;stroke:#626262;stroke-linecap:square;stroke-width:1.5;"/>
   </g>
   <g id="line2d_23">
    <path clip-path="url(#p9d814cca02)" d="M 345.605687 182.336094 
L 345.605687 142.815628 
" style="fill:none;stroke:#626262;stroke-linecap:square;stroke-width:0.5;"/>
   </g>
   <g id="line2d_24">
    <path clip-path="url(#p9d814cca02)" d="M 345.605687 169.162605 
L 345.605687 155.989116 
" style="fill:none;stroke:#626262;stroke-linecap:square;stroke-width:1.5;"/>
   </g>
   <g id="line2d_25">
    <path clip-path="url(#p9d814cca02)" d="M 376.312688 182.336094 
L 376.312688 155.989116 
" style="fill:none;stroke:#626262;stroke-linecap:square;stroke-width:0.5;"/>
   </g>
   <g id="line2d_26">
    <path clip-path="url(#p9d814cca02)" d="M 376.312688 182.336094 
L 376.312688 169.162605 
" style="fill:none;stroke:#626262;stroke-linecap:square;stroke-width:1.5;"/>
   </g>
   <g id="patch_5">
    <path d="M 82.272937 182.336094 
L 82.272937 50.601205 
" style="fill:none;stroke:#000000;stroke-linecap:square;stroke-linejoin:miter;stroke-width:1.875;"/>
   </g>
   <g id="patch_6">
    <path d="M 130.656688 208.556562 
L 360.959187 208.556562 
" style="fill:none;stroke:#000000;stroke-linecap:square;stroke-linejoin:miter;stroke-width:1.875;"/>
   </g>
   <g id="PathCollection_1">
    <defs>
     <path d="M 0 0.5 
C 0.132602 0.5 0.25979 0.447317 0.353553 0.353553 
C 0.447317 0.25979 0.5 0.132602 0.5 0 
C 0.5 -0.132602 0.447317 -0.25979 0.353553 -0.353553 
C 0.25979 -0.447317 0.132602 -0.5 0 -0.5 
C -0.132602 -0.5 -0.25979 -0.447317 -0.353553 -0.353553 
C -0.447317 -0.25979 -0.5 -0.132602 -0.5 0 
C -0.5 0.132602 -0.447317 0.25979 -0.353553 0.353553 
C -0.25979 0.447317 -0.132602 0.5 0 0.5 
z
" id="m50e564d91e" style="stroke:#626262;stroke-width:1.5;"/>
    </defs>
    <g clip-path="url(#p9d814cca02)">
     <use style="fill:#ffffff;stroke:#626262;stroke-width:1.5;" x="115.303188" xlink:href="#m50e564d91e" y="182.336094"/>
    </g>
   </g>
   <g id="PathCollection_2">
    <g clip-path="url(#p9d814cca02)">
     <use style="fill:#ffffff;stroke:#626262;stroke-width:1.5;" x="146.010188" xlink:href="#m50e564d91e" y="182.336094"/>
    </g>
   </g>
   <g id="PathCollection_3">
    <g clip-path="url(#p9d814cca02)">
     <use style="fill:#ffffff;stroke:#626262;stroke-width:1.5;" x="192.070688" xlink:href="#m50e564d91e" y="169.162605"/>
    </g>
   </g>
   <g id="PathCollection_4">
    <g clip-path="url(#p9d814cca02)">
     <use style="fill:#ffffff;stroke:#626262;stroke-width:1.5;" x="222.777688" xlink:href="#m50e564d91e" y="182.336094"/>
    </g>
   </g>
   <g id="PathCollection_5">
    <g clip-path="url(#p9d814cca02)">
     <use style="fill:#ffffff;stroke:#626262;stroke-width:1.5;" x="268.838188" xlink:href="#m50e564d91e" y="169.162605"/>
    </g>
   </g>
   <g id="PathCollection_6">
    <g clip-path="url(#p9d814cca02)">
     <use style="fill:#ffffff;stroke:#626262;stroke-width:1.5;" x="299.545187" xlink:href="#m50e564d91e" y="182.336094"/>
    </g>
   </g>
   <g id="PathCollection_7">
    <g clip-path="url(#p9d814cca02)">
     <use style="fill:#ffffff;stroke:#626262;stroke-width:1.5;" x="345.605687" xlink:href="#m50e564d91e" y="169.162605"/>
    </g>
   </g>
   <g id="PathCollection_8">
    <g clip-path="url(#p9d814cca02)">
     <use style="fill:#ffffff;stroke:#626262;stroke-width:1.5;" x="376.312688" xlink:href="#m50e564d91e" y="182.336094"/>
    </g>
   </g>
   <g id="legend_1">
    <g id="patch_7">
     <path d="M 226.650937 78.334563 
L 312.038437 78.334563 
Q 315.338437 78.334563 315.338437 75.034562 
L 315.338437 28.24675 
Q 315.338437 24.94675 312.038437 24.94675 
L 226.650937 24.94675 
Q 223.350937 24.94675 223.350937 28.24675 
L 223.350937 75.034562 
Q 223.350937 78.334563 226.650937 78.334563 
z
" style="fill:#ffffff;opacity:0.8;stroke:#cccccc;stroke-linejoin:miter;stroke-width:1.5;"/>
    </g>
    <g id="patch_8">
     <path d="M 229.950937 44.084172 
L 262.950938 44.084172 
L 262.950938 32.534172 
L 229.950937 32.534172 
z
" style="fill:#88c088;stroke:#626262;stroke-linejoin:miter;stroke-width:0.25;"/>
    </g>
    <g id="text_13">
     <!-- ERC -->
     <g transform="translate(276.150937 44.084172)scale(0.165 -0.165)">
      <defs>
       <path d="M 628 4666 
L 3578 4666 
L 3578 4134 
L 1259 4134 
L 1259 2753 
L 3481 2753 
L 3481 2222 
L 1259 2222 
L 1259 531 
L 3634 531 
L 3634 0 
L 628 0 
L 628 4666 
z
" id="DejaVuSans-45" transform="scale(0.015625)"/>
       <path d="M 2841 2188 
Q 3044 2119 3236 1894 
Q 3428 1669 3622 1275 
L 4263 0 
L 3584 0 
L 2988 1197 
Q 2756 1666 2539 1819 
Q 2322 1972 1947 1972 
L 1259 1972 
L 1259 0 
L 628 0 
L 628 4666 
L 2053 4666 
Q 2853 4666 3247 4331 
Q 3641 3997 3641 3322 
Q 3641 2881 3436 2590 
Q 3231 2300 2841 2188 
z
M 1259 4147 
L 1259 2491 
L 2053 2491 
Q 2509 2491 2742 2702 
Q 2975 2913 2975 3322 
Q 2975 3731 2742 3939 
Q 2509 4147 2053 4147 
L 1259 4147 
z
" id="DejaVuSans-52" transform="scale(0.015625)"/>
       <path d="M 4122 4306 
L 4122 3641 
Q 3803 3938 3442 4084 
Q 3081 4231 2675 4231 
Q 1875 4231 1450 3742 
Q 1025 3253 1025 2328 
Q 1025 1406 1450 917 
Q 1875 428 2675 428 
Q 3081 428 3442 575 
Q 3803 722 4122 1019 
L 4122 359 
Q 3791 134 3420 21 
Q 3050 -91 2638 -91 
Q 1578 -91 968 557 
Q 359 1206 359 2328 
Q 359 3453 968 4101 
Q 1578 4750 2638 4750 
Q 3056 4750 3426 4639 
Q 3797 4528 4122 4306 
z
" id="DejaVuSans-43" transform="scale(0.015625)"/>
      </defs>
      <use xlink:href="#DejaVuSans-45"/>
      <use x="63.183594" xlink:href="#DejaVuSans-52"/>
      <use x="127.666016" xlink:href="#DejaVuSans-43"/>
     </g>
    </g>
    <g id="patch_9">
     <path d="M 229.950937 68.303078 
L 262.950938 68.303078 
L 262.950938 56.753078 
L 229.950937 56.753078 
z
" style="fill:#bfb3cf;stroke:#626262;stroke-linejoin:miter;stroke-width:0.25;"/>
    </g>
    <g id="text_14">
     <!-- NSF -->
     <g transform="translate(276.150937 68.303078)scale(0.165 -0.165)">
      <defs>
       <path d="M 628 4666 
L 1478 4666 
L 3547 763 
L 3547 4666 
L 4159 4666 
L 4159 0 
L 3309 0 
L 1241 3903 
L 1241 0 
L 628 0 
L 628 4666 
z
" id="DejaVuSans-4e" transform="scale(0.015625)"/>
       <path d="M 3425 4513 
L 3425 3897 
Q 3066 4069 2747 4153 
Q 2428 4238 2131 4238 
Q 1616 4238 1336 4038 
Q 1056 3838 1056 3469 
Q 1056 3159 1242 3001 
Q 1428 2844 1947 2747 
L 2328 2669 
Q 3034 2534 3370 2195 
Q 3706 1856 3706 1288 
Q 3706 609 3251 259 
Q 2797 -91 1919 -91 
Q 1588 -91 1214 -16 
Q 841 59 441 206 
L 441 856 
Q 825 641 1194 531 
Q 1563 422 1919 422 
Q 2459 422 2753 634 
Q 3047 847 3047 1241 
Q 3047 1584 2836 1778 
Q 2625 1972 2144 2069 
L 1759 2144 
Q 1053 2284 737 2584 
Q 422 2884 422 3419 
Q 422 4038 858 4394 
Q 1294 4750 2059 4750 
Q 2388 4750 2728 4690 
Q 3069 4631 3425 4513 
z
" id="DejaVuSans-53" transform="scale(0.015625)"/>
       <path d="M 628 4666 
L 3309 4666 
L 3309 4134 
L 1259 4134 
L 1259 2759 
L 3109 2759 
L 3109 2228 
L 1259 2228 
L 1259 0 
L 628 0 
L 628 4666 
z
" id="DejaVuSans-46" transform="scale(0.015625)"/>
      </defs>
      <use xlink:href="#DejaVuSans-4e"/>
      <use x="74.804688" xlink:href="#DejaVuSans-53"/>
      <use x="138.28125" xlink:href="#DejaVuSans-46"/>
     </g>
    </g>
   </g>
  </g>
 </g>
 <defs>
  <clipPath id="p9d814cca02">
   <rect height="186.62" width="307.07" x="92.272937" y="11.936562"/>
  </clipPath>
 </defs>
</svg>
