<?xml version="1.0" encoding="utf-8" standalone="no"?>
<!DOCTYPE svg PUBLIC "-//W3C//DTD SVG 1.1//EN"
  "http://www.w3.org/Graphics/SVG/1.1/DTD/svg11.dtd">
<svg height="217.310078pt" version="1.1" viewBox="0 0 343.52875 217.310078" width="343.52875pt" xmlns="http://www.w3.org/2000/svg" xmlns:xlink="http://www.w3.org/1999/xlink">
 <metadata>
  <rdf:RDF xmlns:cc="http://creativecommons.org/ns#" xmlns:dc="http://purl.org/dc/elements/1.1/" xmlns:rdf="http://www.w3.org/1999/02/22-rdf-syntax-ns#">
   <cc:Work>
    <dc:type rdf:resource="http://purl.org/dc/dcmitype/StillImage"/>
    <dc:date>2023-04-02T13:51:34.793535</dc:date>
    <dc:format>image/svg+xml</dc:format>
    <dc:creator>
     <cc:Agent>
      <dc:title>Matplotlib v3.4.1, https://matplotlib.org/</dc:title>
     </cc:Agent>
    </dc:creator>
   </cc:Work>
  </rdf:RDF>
 </metadata>
 <defs>
  <style type="text/css">*{stroke-linecap:butt;stroke-linejoin:round;}</style>
 </defs>
 <g id="figure_1">
  <g id="patch_1">
   <path d="M 0 217.310078 
L 343.52875 217.310078 
L 343.52875 0 
L 0 0 
z
" style="fill:#ffffff;"/>
  </g>
  <g id="axes_1">
   <g id="patch_2">
    <path d="M 44.49875 119.9225 
L 336.32875 119.9225 
L 336.32875 20.7175 
L 44.49875 20.7175 
z
" style="fill:#eaeaf2;"/>
   </g>
   <g id="matplotlib.axis_1">
    <g id="xtick_1">
     <g id="line2d_1">
      <defs>
       <path d="M 0 0 
L 0 6 
" id="m297b67e5d8" style="stroke:#262626;stroke-width:1.25;"/>
      </defs>
      <g>
       <use style="fill:#262626;stroke:#262626;stroke-width:1.25;" x="50.578542" xlink:href="#m297b67e5d8" y="119.9225"/>
      </g>
     </g>
     <g id="text_1">
      <!-- United States -->
      <g style="fill:#262626;" transform="translate(52.92401 186.979453)rotate(-90)scale(0.085 -0.085)">
       <defs>
        <path d="M 556 4666 
L 1191 4666 
L 1191 1831 
Q 1191 1081 1462 751 
Q 1734 422 2344 422 
Q 2950 422 3222 751 
Q 3494 1081 3494 1831 
L 3494 4666 
L 4128 4666 
L 4128 1753 
Q 4128 841 3676 375 
Q 3225 -91 2344 -91 
Q 1459 -91 1007 375 
Q 556 841 556 1753 
L 556 4666 
z
" id="DejaVuSans-55" transform="scale(0.015625)"/>
        <path d="M 3513 2113 
L 3513 0 
L 2938 0 
L 2938 2094 
Q 2938 2591 2744 2837 
Q 2550 3084 2163 3084 
Q 1697 3084 1428 2787 
Q 1159 2491 1159 1978 
L 1159 0 
L 581 0 
L 581 3500 
L 1159 3500 
L 1159 2956 
Q 1366 3272 1645 3428 
Q 1925 3584 2291 3584 
Q 2894 3584 3203 3211 
Q 3513 2838 3513 2113 
z
" id="DejaVuSans-6e" transform="scale(0.015625)"/>
        <path d="M 603 3500 
L 1178 3500 
L 1178 0 
L 603 0 
L 603 3500 
z
M 603 4863 
L 1178 4863 
L 1178 4134 
L 603 4134 
L 603 4863 
z
" id="DejaVuSans-69" transform="scale(0.015625)"/>
        <path d="M 1172 4494 
L 1172 3500 
L 2356 3500 
L 2356 3053 
L 1172 3053 
L 1172 1153 
Q 1172 725 1289 603 
Q 1406 481 1766 481 
L 2356 481 
L 2356 0 
L 1766 0 
Q 1100 0 847 248 
Q 594 497 594 1153 
L 594 3053 
L 172 3053 
L 172 3500 
L 594 3500 
L 594 4494 
L 1172 4494 
z
" id="DejaVuSans-74" transform="scale(0.015625)"/>
        <path d="M 3597 1894 
L 3597 1613 
L 953 1613 
Q 991 1019 1311 708 
Q 1631 397 2203 397 
Q 2534 397 2845 478 
Q 3156 559 3463 722 
L 3463 178 
Q 3153 47 2828 -22 
Q 2503 -91 2169 -91 
Q 1331 -91 842 396 
Q 353 884 353 1716 
Q 353 2575 817 3079 
Q 1281 3584 2069 3584 
Q 2775 3584 3186 3129 
Q 3597 2675 3597 1894 
z
M 3022 2063 
Q 3016 2534 2758 2815 
Q 2500 3097 2075 3097 
Q 1594 3097 1305 2825 
Q 1016 2553 972 2059 
L 3022 2063 
z
" id="DejaVuSans-65" transform="scale(0.015625)"/>
        <path d="M 2906 2969 
L 2906 4863 
L 3481 4863 
L 3481 0 
L 2906 0 
L 2906 525 
Q 2725 213 2448 61 
Q 2172 -91 1784 -91 
Q 1150 -91 751 415 
Q 353 922 353 1747 
Q 353 2572 751 3078 
Q 1150 3584 1784 3584 
Q 2172 3584 2448 3432 
Q 2725 3281 2906 2969 
z
M 947 1747 
Q 947 1113 1208 752 
Q 1469 391 1925 391 
Q 2381 391 2643 752 
Q 2906 1113 2906 1747 
Q 2906 2381 2643 2742 
Q 2381 3103 1925 3103 
Q 1469 3103 1208 2742 
Q 947 2381 947 1747 
z
" id="DejaVuSans-64" transform="scale(0.015625)"/>
        <path id="DejaVuSans-20" transform="scale(0.015625)"/>
        <path d="M 3425 4513 
L 3425 3897 
Q 3066 4069 2747 4153 
Q 2428 4238 2131 4238 
Q 1616 4238 1336 4038 
Q 1056 3838 1056 3469 
Q 1056 3159 1242 3001 
Q 1428 2844 1947 2747 
L 2328 2669 
Q 3034 2534 3370 2195 
Q 3706 1856 3706 1288 
Q 3706 609 3251 259 
Q 2797 -91 1919 -91 
Q 1588 -91 1214 -16 
Q 841 59 441 206 
L 441 856 
Q 825 641 1194 531 
Q 1563 422 1919 422 
Q 2459 422 2753 634 
Q 3047 847 3047 1241 
Q 3047 1584 2836 1778 
Q 2625 1972 2144 2069 
L 1759 2144 
Q 1053 2284 737 2584 
Q 422 2884 422 3419 
Q 422 4038 858 4394 
Q 1294 4750 2059 4750 
Q 2388 4750 2728 4690 
Q 3069 4631 3425 4513 
z
" id="DejaVuSans-53" transform="scale(0.015625)"/>
        <path d="M 2194 1759 
Q 1497 1759 1228 1600 
Q 959 1441 959 1056 
Q 959 750 1161 570 
Q 1363 391 1709 391 
Q 2188 391 2477 730 
Q 2766 1069 2766 1631 
L 2766 1759 
L 2194 1759 
z
M 3341 1997 
L 3341 0 
L 2766 0 
L 2766 531 
Q 2569 213 2275 61 
Q 1981 -91 1556 -91 
Q 1019 -91 701 211 
Q 384 513 384 1019 
Q 384 1609 779 1909 
Q 1175 2209 1959 2209 
L 2766 2209 
L 2766 2266 
Q 2766 2663 2505 2880 
Q 2244 3097 1772 3097 
Q 1472 3097 1187 3025 
Q 903 2953 641 2809 
L 641 3341 
Q 956 3463 1253 3523 
Q 1550 3584 1831 3584 
Q 2591 3584 2966 3190 
Q 3341 2797 3341 1997 
z
" id="DejaVuSans-61" transform="scale(0.015625)"/>
        <path d="M 2834 3397 
L 2834 2853 
Q 2591 2978 2328 3040 
Q 2066 3103 1784 3103 
Q 1356 3103 1142 2972 
Q 928 2841 928 2578 
Q 928 2378 1081 2264 
Q 1234 2150 1697 2047 
L 1894 2003 
Q 2506 1872 2764 1633 
Q 3022 1394 3022 966 
Q 3022 478 2636 193 
Q 2250 -91 1575 -91 
Q 1294 -91 989 -36 
Q 684 19 347 128 
L 347 722 
Q 666 556 975 473 
Q 1284 391 1588 391 
Q 1994 391 2212 530 
Q 2431 669 2431 922 
Q 2431 1156 2273 1281 
Q 2116 1406 1581 1522 
L 1381 1569 
Q 847 1681 609 1914 
Q 372 2147 372 2553 
Q 372 3047 722 3315 
Q 1072 3584 1716 3584 
Q 2034 3584 2315 3537 
Q 2597 3491 2834 3397 
z
" id="DejaVuSans-73" transform="scale(0.015625)"/>
       </defs>
       <use xlink:href="#DejaVuSans-55"/>
       <use x="73.193359" xlink:href="#DejaVuSans-6e"/>
       <use x="136.572266" xlink:href="#DejaVuSans-69"/>
       <use x="164.355469" xlink:href="#DejaVuSans-74"/>
       <use x="203.564453" xlink:href="#DejaVuSans-65"/>
       <use x="265.087891" xlink:href="#DejaVuSans-64"/>
       <use x="328.564453" xlink:href="#DejaVuSans-20"/>
       <use x="360.351562" xlink:href="#DejaVuSans-53"/>
       <use x="423.828125" xlink:href="#DejaVuSans-74"/>
       <use x="463.037109" xlink:href="#DejaVuSans-61"/>
       <use x="524.316406" xlink:href="#DejaVuSans-74"/>
       <use x="563.525391" xlink:href="#DejaVuSans-65"/>
       <use x="625.048828" xlink:href="#DejaVuSans-73"/>
      </g>
     </g>
    </g>
    <g id="xtick_2">
     <g id="line2d_2">
      <g>
       <use style="fill:#262626;stroke:#262626;stroke-width:1.25;" x="62.738125" xlink:href="#m297b67e5d8" y="119.9225"/>
      </g>
     </g>
     <g id="text_2">
      <!-- Argentina -->
      <g style="fill:#262626;" transform="translate(65.083594 170.885234)rotate(-90)scale(0.085 -0.085)">
       <defs>
        <path d="M 2188 4044 
L 1331 1722 
L 3047 1722 
L 2188 4044 
z
M 1831 4666 
L 2547 4666 
L 4325 0 
L 3669 0 
L 3244 1197 
L 1141 1197 
L 716 0 
L 50 0 
L 1831 4666 
z
" id="DejaVuSans-41" transform="scale(0.015625)"/>
        <path d="M 2631 2963 
Q 2534 3019 2420 3045 
Q 2306 3072 2169 3072 
Q 1681 3072 1420 2755 
Q 1159 2438 1159 1844 
L 1159 0 
L 581 0 
L 581 3500 
L 1159 3500 
L 1159 2956 
Q 1341 3275 1631 3429 
Q 1922 3584 2338 3584 
Q 2397 3584 2469 3576 
Q 2541 3569 2628 3553 
L 2631 2963 
z
" id="DejaVuSans-72" transform="scale(0.015625)"/>
        <path d="M 2906 1791 
Q 2906 2416 2648 2759 
Q 2391 3103 1925 3103 
Q 1463 3103 1205 2759 
Q 947 2416 947 1791 
Q 947 1169 1205 825 
Q 1463 481 1925 481 
Q 2391 481 2648 825 
Q 2906 1169 2906 1791 
z
M 3481 434 
Q 3481 -459 3084 -895 
Q 2688 -1331 1869 -1331 
Q 1566 -1331 1297 -1286 
Q 1028 -1241 775 -1147 
L 775 -588 
Q 1028 -725 1275 -790 
Q 1522 -856 1778 -856 
Q 2344 -856 2625 -561 
Q 2906 -266 2906 331 
L 2906 616 
Q 2728 306 2450 153 
Q 2172 0 1784 0 
Q 1141 0 747 490 
Q 353 981 353 1791 
Q 353 2603 747 3093 
Q 1141 3584 1784 3584 
Q 2172 3584 2450 3431 
Q 2728 3278 2906 2969 
L 2906 3500 
L 3481 3500 
L 3481 434 
z
" id="DejaVuSans-67" transform="scale(0.015625)"/>
       </defs>
       <use xlink:href="#DejaVuSans-41"/>
       <use x="68.408203" xlink:href="#DejaVuSans-72"/>
       <use x="107.771484" xlink:href="#DejaVuSans-67"/>
       <use x="171.248047" xlink:href="#DejaVuSans-65"/>
       <use x="232.771484" xlink:href="#DejaVuSans-6e"/>
       <use x="296.150391" xlink:href="#DejaVuSans-74"/>
       <use x="335.359375" xlink:href="#DejaVuSans-69"/>
       <use x="363.142578" xlink:href="#DejaVuSans-6e"/>
       <use x="426.521484" xlink:href="#DejaVuSans-61"/>
      </g>
     </g>
    </g>
    <g id="xtick_3">
     <g id="line2d_3">
      <g>
       <use style="fill:#262626;stroke:#262626;stroke-width:1.25;" x="74.897708" xlink:href="#m297b67e5d8" y="119.9225"/>
      </g>
     </g>
     <g id="text_3">
      <!-- Australia -->
      <g style="fill:#262626;" transform="translate(77.243177 167.019062)rotate(-90)scale(0.085 -0.085)">
       <defs>
        <path d="M 544 1381 
L 544 3500 
L 1119 3500 
L 1119 1403 
Q 1119 906 1312 657 
Q 1506 409 1894 409 
Q 2359 409 2629 706 
Q 2900 1003 2900 1516 
L 2900 3500 
L 3475 3500 
L 3475 0 
L 2900 0 
L 2900 538 
Q 2691 219 2414 64 
Q 2138 -91 1772 -91 
Q 1169 -91 856 284 
Q 544 659 544 1381 
z
M 1991 3584 
L 1991 3584 
z
" id="DejaVuSans-75" transform="scale(0.015625)"/>
        <path d="M 603 4863 
L 1178 4863 
L 1178 0 
L 603 0 
L 603 4863 
z
" id="DejaVuSans-6c" transform="scale(0.015625)"/>
       </defs>
       <use xlink:href="#DejaVuSans-41"/>
       <use x="68.408203" xlink:href="#DejaVuSans-75"/>
       <use x="131.787109" xlink:href="#DejaVuSans-73"/>
       <use x="183.886719" xlink:href="#DejaVuSans-74"/>
       <use x="223.095703" xlink:href="#DejaVuSans-72"/>
       <use x="264.208984" xlink:href="#DejaVuSans-61"/>
       <use x="325.488281" xlink:href="#DejaVuSans-6c"/>
       <use x="353.271484" xlink:href="#DejaVuSans-69"/>
       <use x="381.054688" xlink:href="#DejaVuSans-61"/>
      </g>
     </g>
    </g>
    <g id="xtick_4">
     <g id="line2d_4">
      <g>
       <use style="fill:#262626;stroke:#262626;stroke-width:1.25;" x="87.057292" xlink:href="#m297b67e5d8" y="119.9225"/>
      </g>
     </g>
     <g id="text_4">
      <!-- Brazil -->
      <g style="fill:#262626;" transform="translate(89.40276 153.141484)rotate(-90)scale(0.085 -0.085)">
       <defs>
        <path d="M 1259 2228 
L 1259 519 
L 2272 519 
Q 2781 519 3026 730 
Q 3272 941 3272 1375 
Q 3272 1813 3026 2020 
Q 2781 2228 2272 2228 
L 1259 2228 
z
M 1259 4147 
L 1259 2741 
L 2194 2741 
Q 2656 2741 2882 2914 
Q 3109 3088 3109 3444 
Q 3109 3797 2882 3972 
Q 2656 4147 2194 4147 
L 1259 4147 
z
M 628 4666 
L 2241 4666 
Q 2963 4666 3353 4366 
Q 3744 4066 3744 3513 
Q 3744 3084 3544 2831 
Q 3344 2578 2956 2516 
Q 3422 2416 3680 2098 
Q 3938 1781 3938 1306 
Q 3938 681 3513 340 
Q 3088 0 2303 0 
L 628 0 
L 628 4666 
z
" id="DejaVuSans-42" transform="scale(0.015625)"/>
        <path d="M 353 3500 
L 3084 3500 
L 3084 2975 
L 922 459 
L 3084 459 
L 3084 0 
L 275 0 
L 275 525 
L 2438 3041 
L 353 3041 
L 353 3500 
z
" id="DejaVuSans-7a" transform="scale(0.015625)"/>
       </defs>
       <use xlink:href="#DejaVuSans-42"/>
       <use x="68.603516" xlink:href="#DejaVuSans-72"/>
       <use x="109.716797" xlink:href="#DejaVuSans-61"/>
       <use x="170.996094" xlink:href="#DejaVuSans-7a"/>
       <use x="223.486328" xlink:href="#DejaVuSans-69"/>
       <use x="251.269531" xlink:href="#DejaVuSans-6c"/>
      </g>
     </g>
    </g>
    <g id="xtick_5">
     <g id="line2d_5">
      <g>
       <use style="fill:#262626;stroke:#262626;stroke-width:1.25;" x="99.216875" xlink:href="#m297b67e5d8" y="119.9225"/>
      </g>
     </g>
     <g id="text_5">
      <!-- Canada -->
      <g style="fill:#262626;" transform="translate(101.562344 161.767656)rotate(-90)scale(0.085 -0.085)">
       <defs>
        <path d="M 4122 4306 
L 4122 3641 
Q 3803 3938 3442 4084 
Q 3081 4231 2675 4231 
Q 1875 4231 1450 3742 
Q 1025 3253 1025 2328 
Q 1025 1406 1450 917 
Q 1875 428 2675 428 
Q 3081 428 3442 575 
Q 3803 722 4122 1019 
L 4122 359 
Q 3791 134 3420 21 
Q 3050 -91 2638 -91 
Q 1578 -91 968 557 
Q 359 1206 359 2328 
Q 359 3453 968 4101 
Q 1578 4750 2638 4750 
Q 3056 4750 3426 4639 
Q 3797 4528 4122 4306 
z
" id="DejaVuSans-43" transform="scale(0.015625)"/>
       </defs>
       <use xlink:href="#DejaVuSans-43"/>
       <use x="69.824219" xlink:href="#DejaVuSans-61"/>
       <use x="131.103516" xlink:href="#DejaVuSans-6e"/>
       <use x="194.482422" xlink:href="#DejaVuSans-61"/>
       <use x="255.761719" xlink:href="#DejaVuSans-64"/>
       <use x="319.238281" xlink:href="#DejaVuSans-61"/>
      </g>
     </g>
    </g>
    <g id="xtick_6">
     <g id="line2d_6">
      <g>
       <use style="fill:#262626;stroke:#262626;stroke-width:1.25;" x="111.376458" xlink:href="#m297b67e5d8" y="119.9225"/>
      </g>
     </g>
     <g id="text_6">
      <!-- Switzerland -->
      <g style="fill:#262626;" transform="translate(113.721927 179.002734)rotate(-90)scale(0.085 -0.085)">
       <defs>
        <path d="M 269 3500 
L 844 3500 
L 1563 769 
L 2278 3500 
L 2956 3500 
L 3675 769 
L 4391 3500 
L 4966 3500 
L 4050 0 
L 3372 0 
L 2619 2869 
L 1863 0 
L 1184 0 
L 269 3500 
z
" id="DejaVuSans-77" transform="scale(0.015625)"/>
       </defs>
       <use xlink:href="#DejaVuSans-53"/>
       <use x="63.476562" xlink:href="#DejaVuSans-77"/>
       <use x="145.263672" xlink:href="#DejaVuSans-69"/>
       <use x="173.046875" xlink:href="#DejaVuSans-74"/>
       <use x="212.255859" xlink:href="#DejaVuSans-7a"/>
       <use x="264.746094" xlink:href="#DejaVuSans-65"/>
       <use x="326.269531" xlink:href="#DejaVuSans-72"/>
       <use x="367.382812" xlink:href="#DejaVuSans-6c"/>
       <use x="395.166016" xlink:href="#DejaVuSans-61"/>
       <use x="456.445312" xlink:href="#DejaVuSans-6e"/>
       <use x="519.824219" xlink:href="#DejaVuSans-64"/>
      </g>
     </g>
    </g>
    <g id="xtick_7">
     <g id="line2d_7">
      <g>
       <use style="fill:#262626;stroke:#262626;stroke-width:1.25;" x="123.536042" xlink:href="#m297b67e5d8" y="119.9225"/>
      </g>
     </g>
     <g id="text_7">
      <!-- Chile -->
      <g style="fill:#262626;" transform="translate(125.88151 150.697734)rotate(-90)scale(0.085 -0.085)">
       <defs>
        <path d="M 3513 2113 
L 3513 0 
L 2938 0 
L 2938 2094 
Q 2938 2591 2744 2837 
Q 2550 3084 2163 3084 
Q 1697 3084 1428 2787 
Q 1159 2491 1159 1978 
L 1159 0 
L 581 0 
L 581 4863 
L 1159 4863 
L 1159 2956 
Q 1366 3272 1645 3428 
Q 1925 3584 2291 3584 
Q 2894 3584 3203 3211 
Q 3513 2838 3513 2113 
z
" id="DejaVuSans-68" transform="scale(0.015625)"/>
       </defs>
       <use xlink:href="#DejaVuSans-43"/>
       <use x="69.824219" xlink:href="#DejaVuSans-68"/>
       <use x="133.203125" xlink:href="#DejaVuSans-69"/>
       <use x="160.986328" xlink:href="#DejaVuSans-6c"/>
       <use x="188.769531" xlink:href="#DejaVuSans-65"/>
      </g>
     </g>
    </g>
    <g id="xtick_8">
     <g id="line2d_8">
      <g>
       <use style="fill:#262626;stroke:#262626;stroke-width:1.25;" x="135.695625" xlink:href="#m297b67e5d8" y="119.9225"/>
      </g>
     </g>
     <g id="text_8">
      <!-- China -->
      <g style="fill:#262626;" transform="translate(138.041094 153.701953)rotate(-90)scale(0.085 -0.085)">
       <use xlink:href="#DejaVuSans-43"/>
       <use x="69.824219" xlink:href="#DejaVuSans-68"/>
       <use x="133.203125" xlink:href="#DejaVuSans-69"/>
       <use x="160.986328" xlink:href="#DejaVuSans-6e"/>
       <use x="224.365234" xlink:href="#DejaVuSans-61"/>
      </g>
     </g>
    </g>
    <g id="xtick_9">
     <g id="line2d_9">
      <g>
       <use style="fill:#262626;stroke:#262626;stroke-width:1.25;" x="147.855208" xlink:href="#m297b67e5d8" y="119.9225"/>
      </g>
     </g>
     <g id="text_9">
      <!-- Colombia -->
      <g style="fill:#262626;" transform="translate(150.200677 169.367188)rotate(-90)scale(0.085 -0.085)">
       <defs>
        <path d="M 1959 3097 
Q 1497 3097 1228 2736 
Q 959 2375 959 1747 
Q 959 1119 1226 758 
Q 1494 397 1959 397 
Q 2419 397 2687 759 
Q 2956 1122 2956 1747 
Q 2956 2369 2687 2733 
Q 2419 3097 1959 3097 
z
M 1959 3584 
Q 2709 3584 3137 3096 
Q 3566 2609 3566 1747 
Q 3566 888 3137 398 
Q 2709 -91 1959 -91 
Q 1206 -91 779 398 
Q 353 888 353 1747 
Q 353 2609 779 3096 
Q 1206 3584 1959 3584 
z
" id="DejaVuSans-6f" transform="scale(0.015625)"/>
        <path d="M 3328 2828 
Q 3544 3216 3844 3400 
Q 4144 3584 4550 3584 
Q 5097 3584 5394 3201 
Q 5691 2819 5691 2113 
L 5691 0 
L 5113 0 
L 5113 2094 
Q 5113 2597 4934 2840 
Q 4756 3084 4391 3084 
Q 3944 3084 3684 2787 
Q 3425 2491 3425 1978 
L 3425 0 
L 2847 0 
L 2847 2094 
Q 2847 2600 2669 2842 
Q 2491 3084 2119 3084 
Q 1678 3084 1418 2786 
Q 1159 2488 1159 1978 
L 1159 0 
L 581 0 
L 581 3500 
L 1159 3500 
L 1159 2956 
Q 1356 3278 1631 3431 
Q 1906 3584 2284 3584 
Q 2666 3584 2933 3390 
Q 3200 3197 3328 2828 
z
" id="DejaVuSans-6d" transform="scale(0.015625)"/>
        <path d="M 3116 1747 
Q 3116 2381 2855 2742 
Q 2594 3103 2138 3103 
Q 1681 3103 1420 2742 
Q 1159 2381 1159 1747 
Q 1159 1113 1420 752 
Q 1681 391 2138 391 
Q 2594 391 2855 752 
Q 3116 1113 3116 1747 
z
M 1159 2969 
Q 1341 3281 1617 3432 
Q 1894 3584 2278 3584 
Q 2916 3584 3314 3078 
Q 3713 2572 3713 1747 
Q 3713 922 3314 415 
Q 2916 -91 2278 -91 
Q 1894 -91 1617 61 
Q 1341 213 1159 525 
L 1159 0 
L 581 0 
L 581 4863 
L 1159 4863 
L 1159 2969 
z
" id="DejaVuSans-62" transform="scale(0.015625)"/>
       </defs>
       <use xlink:href="#DejaVuSans-43"/>
       <use x="69.824219" xlink:href="#DejaVuSans-6f"/>
       <use x="131.005859" xlink:href="#DejaVuSans-6c"/>
       <use x="158.789062" xlink:href="#DejaVuSans-6f"/>
       <use x="219.970703" xlink:href="#DejaVuSans-6d"/>
       <use x="317.382812" xlink:href="#DejaVuSans-62"/>
       <use x="380.859375" xlink:href="#DejaVuSans-69"/>
       <use x="408.642578" xlink:href="#DejaVuSans-61"/>
      </g>
     </g>
    </g>
    <g id="xtick_10">
     <g id="line2d_10">
      <g>
       <use style="fill:#262626;stroke:#262626;stroke-width:1.25;" x="160.014792" xlink:href="#m297b67e5d8" y="119.9225"/>
      </g>
     </g>
     <g id="text_10">
      <!-- United Kingdom -->
      <g style="fill:#262626;" transform="translate(162.36026 197.646953)rotate(-90)scale(0.085 -0.085)">
       <defs>
        <path d="M 628 4666 
L 1259 4666 
L 1259 2694 
L 3353 4666 
L 4166 4666 
L 1850 2491 
L 4331 0 
L 3500 0 
L 1259 2247 
L 1259 0 
L 628 0 
L 628 4666 
z
" id="DejaVuSans-4b" transform="scale(0.015625)"/>
       </defs>
       <use xlink:href="#DejaVuSans-55"/>
       <use x="73.193359" xlink:href="#DejaVuSans-6e"/>
       <use x="136.572266" xlink:href="#DejaVuSans-69"/>
       <use x="164.355469" xlink:href="#DejaVuSans-74"/>
       <use x="203.564453" xlink:href="#DejaVuSans-65"/>
       <use x="265.087891" xlink:href="#DejaVuSans-64"/>
       <use x="328.564453" xlink:href="#DejaVuSans-20"/>
       <use x="360.351562" xlink:href="#DejaVuSans-4b"/>
       <use x="425.927734" xlink:href="#DejaVuSans-69"/>
       <use x="453.710938" xlink:href="#DejaVuSans-6e"/>
       <use x="517.089844" xlink:href="#DejaVuSans-67"/>
       <use x="580.566406" xlink:href="#DejaVuSans-64"/>
       <use x="644.042969" xlink:href="#DejaVuSans-6f"/>
       <use x="705.224609" xlink:href="#DejaVuSans-6d"/>
      </g>
     </g>
    </g>
    <g id="xtick_11">
     <g id="line2d_11">
      <g>
       <use style="fill:#262626;stroke:#262626;stroke-width:1.25;" x="172.174375" xlink:href="#m297b67e5d8" y="119.9225"/>
      </g>
     </g>
     <g id="text_11">
      <!-- Georgia -->
      <g style="fill:#262626;" transform="translate(174.519844 162.751797)rotate(-90)scale(0.085 -0.085)">
       <defs>
        <path d="M 3809 666 
L 3809 1919 
L 2778 1919 
L 2778 2438 
L 4434 2438 
L 4434 434 
Q 4069 175 3628 42 
Q 3188 -91 2688 -91 
Q 1594 -91 976 548 
Q 359 1188 359 2328 
Q 359 3472 976 4111 
Q 1594 4750 2688 4750 
Q 3144 4750 3555 4637 
Q 3966 4525 4313 4306 
L 4313 3634 
Q 3963 3931 3569 4081 
Q 3175 4231 2741 4231 
Q 1884 4231 1454 3753 
Q 1025 3275 1025 2328 
Q 1025 1384 1454 906 
Q 1884 428 2741 428 
Q 3075 428 3337 486 
Q 3600 544 3809 666 
z
" id="DejaVuSans-47" transform="scale(0.015625)"/>
       </defs>
       <use xlink:href="#DejaVuSans-47"/>
       <use x="77.490234" xlink:href="#DejaVuSans-65"/>
       <use x="139.013672" xlink:href="#DejaVuSans-6f"/>
       <use x="200.195312" xlink:href="#DejaVuSans-72"/>
       <use x="239.558594" xlink:href="#DejaVuSans-67"/>
       <use x="303.035156" xlink:href="#DejaVuSans-69"/>
       <use x="330.818359" xlink:href="#DejaVuSans-61"/>
      </g>
     </g>
    </g>
    <g id="xtick_12">
     <g id="line2d_12">
      <g>
       <use style="fill:#262626;stroke:#262626;stroke-width:1.25;" x="184.333958" xlink:href="#m297b67e5d8" y="119.9225"/>
      </g>
     </g>
     <g id="text_12">
      <!-- Israel -->
      <g style="fill:#262626;" transform="translate(186.679427 152.652734)rotate(-90)scale(0.085 -0.085)">
       <defs>
        <path d="M 628 4666 
L 1259 4666 
L 1259 0 
L 628 0 
L 628 4666 
z
" id="DejaVuSans-49" transform="scale(0.015625)"/>
       </defs>
       <use xlink:href="#DejaVuSans-49"/>
       <use x="29.492188" xlink:href="#DejaVuSans-73"/>
       <use x="81.591797" xlink:href="#DejaVuSans-72"/>
       <use x="122.705078" xlink:href="#DejaVuSans-61"/>
       <use x="183.984375" xlink:href="#DejaVuSans-65"/>
       <use x="245.507812" xlink:href="#DejaVuSans-6c"/>
      </g>
     </g>
    </g>
    <g id="xtick_13">
     <g id="line2d_13">
      <g>
       <use style="fill:#262626;stroke:#262626;stroke-width:1.25;" x="196.493542" xlink:href="#m297b67e5d8" y="119.9225"/>
      </g>
     </g>
     <g id="text_13">
      <!-- India -->
      <g style="fill:#262626;" transform="translate(198.83901 150.283359)rotate(-90)scale(0.085 -0.085)">
       <use xlink:href="#DejaVuSans-49"/>
       <use x="29.492188" xlink:href="#DejaVuSans-6e"/>
       <use x="92.871094" xlink:href="#DejaVuSans-64"/>
       <use x="156.347656" xlink:href="#DejaVuSans-69"/>
       <use x="184.130859" xlink:href="#DejaVuSans-61"/>
      </g>
     </g>
    </g>
    <g id="xtick_14">
     <g id="line2d_14">
      <g>
       <use style="fill:#262626;stroke:#262626;stroke-width:1.25;" x="208.653125" xlink:href="#m297b67e5d8" y="119.9225"/>
      </g>
     </g>
     <g id="text_14">
      <!-- Japan -->
      <g style="fill:#262626;" transform="translate(210.998594 153.130859)rotate(-90)scale(0.085 -0.085)">
       <defs>
        <path d="M 628 4666 
L 1259 4666 
L 1259 325 
Q 1259 -519 939 -900 
Q 619 -1281 -91 -1281 
L -331 -1281 
L -331 -750 
L -134 -750 
Q 284 -750 456 -515 
Q 628 -281 628 325 
L 628 4666 
z
" id="DejaVuSans-4a" transform="scale(0.015625)"/>
        <path d="M 1159 525 
L 1159 -1331 
L 581 -1331 
L 581 3500 
L 1159 3500 
L 1159 2969 
Q 1341 3281 1617 3432 
Q 1894 3584 2278 3584 
Q 2916 3584 3314 3078 
Q 3713 2572 3713 1747 
Q 3713 922 3314 415 
Q 2916 -91 2278 -91 
Q 1894 -91 1617 61 
Q 1341 213 1159 525 
z
M 3116 1747 
Q 3116 2381 2855 2742 
Q 2594 3103 2138 3103 
Q 1681 3103 1420 2742 
Q 1159 2381 1159 1747 
Q 1159 1113 1420 752 
Q 1681 391 2138 391 
Q 2594 391 2855 752 
Q 3116 1113 3116 1747 
z
" id="DejaVuSans-70" transform="scale(0.015625)"/>
       </defs>
       <use xlink:href="#DejaVuSans-4a"/>
       <use x="29.492188" xlink:href="#DejaVuSans-61"/>
       <use x="90.771484" xlink:href="#DejaVuSans-70"/>
       <use x="154.248047" xlink:href="#DejaVuSans-61"/>
       <use x="215.527344" xlink:href="#DejaVuSans-6e"/>
      </g>
     </g>
    </g>
    <g id="xtick_15">
     <g id="line2d_15">
      <g>
       <use style="fill:#262626;stroke:#262626;stroke-width:1.25;" x="220.812708" xlink:href="#m297b67e5d8" y="119.9225"/>
      </g>
     </g>
     <g id="text_15">
      <!-- South Korea -->
      <g style="fill:#262626;" transform="translate(223.158177 180.919219)rotate(-90)scale(0.085 -0.085)">
       <use xlink:href="#DejaVuSans-53"/>
       <use x="63.476562" xlink:href="#DejaVuSans-6f"/>
       <use x="124.658203" xlink:href="#DejaVuSans-75"/>
       <use x="188.037109" xlink:href="#DejaVuSans-74"/>
       <use x="227.246094" xlink:href="#DejaVuSans-68"/>
       <use x="290.625" xlink:href="#DejaVuSans-20"/>
       <use x="322.412109" xlink:href="#DejaVuSans-4b"/>
       <use x="382.988281" xlink:href="#DejaVuSans-6f"/>
       <use x="444.169922" xlink:href="#DejaVuSans-72"/>
       <use x="483.033203" xlink:href="#DejaVuSans-65"/>
       <use x="544.556641" xlink:href="#DejaVuSans-61"/>
      </g>
     </g>
    </g>
    <g id="xtick_16">
     <g id="line2d_16">
      <g>
       <use style="fill:#262626;stroke:#262626;stroke-width:1.25;" x="232.972292" xlink:href="#m297b67e5d8" y="119.9225"/>
      </g>
     </g>
     <g id="text_16">
      <!-- Mexico -->
      <g style="fill:#262626;" transform="translate(235.31776 159.104766)rotate(-90)scale(0.085 -0.085)">
       <defs>
        <path d="M 628 4666 
L 1569 4666 
L 2759 1491 
L 3956 4666 
L 4897 4666 
L 4897 0 
L 4281 0 
L 4281 4097 
L 3078 897 
L 2444 897 
L 1241 4097 
L 1241 0 
L 628 0 
L 628 4666 
z
" id="DejaVuSans-4d" transform="scale(0.015625)"/>
        <path d="M 3513 3500 
L 2247 1797 
L 3578 0 
L 2900 0 
L 1881 1375 
L 863 0 
L 184 0 
L 1544 1831 
L 300 3500 
L 978 3500 
L 1906 2253 
L 2834 3500 
L 3513 3500 
z
" id="DejaVuSans-78" transform="scale(0.015625)"/>
        <path d="M 3122 3366 
L 3122 2828 
Q 2878 2963 2633 3030 
Q 2388 3097 2138 3097 
Q 1578 3097 1268 2742 
Q 959 2388 959 1747 
Q 959 1106 1268 751 
Q 1578 397 2138 397 
Q 2388 397 2633 464 
Q 2878 531 3122 666 
L 3122 134 
Q 2881 22 2623 -34 
Q 2366 -91 2075 -91 
Q 1284 -91 818 406 
Q 353 903 353 1747 
Q 353 2603 823 3093 
Q 1294 3584 2113 3584 
Q 2378 3584 2631 3529 
Q 2884 3475 3122 3366 
z
" id="DejaVuSans-63" transform="scale(0.015625)"/>
       </defs>
       <use xlink:href="#DejaVuSans-4d"/>
       <use x="86.279297" xlink:href="#DejaVuSans-65"/>
       <use x="146.052734" xlink:href="#DejaVuSans-78"/>
       <use x="205.232422" xlink:href="#DejaVuSans-69"/>
       <use x="233.015625" xlink:href="#DejaVuSans-63"/>
       <use x="287.996094" xlink:href="#DejaVuSans-6f"/>
      </g>
     </g>
    </g>
    <g id="xtick_17">
     <g id="line2d_17">
      <g>
       <use style="fill:#262626;stroke:#262626;stroke-width:1.25;" x="245.131875" xlink:href="#m297b67e5d8" y="119.9225"/>
      </g>
     </g>
     <g id="text_17">
      <!-- Norway -->
      <g style="fill:#262626;" transform="translate(247.477344 161.668047)rotate(-90)scale(0.085 -0.085)">
       <defs>
        <path d="M 628 4666 
L 1478 4666 
L 3547 763 
L 3547 4666 
L 4159 4666 
L 4159 0 
L 3309 0 
L 1241 3903 
L 1241 0 
L 628 0 
L 628 4666 
z
" id="DejaVuSans-4e" transform="scale(0.015625)"/>
        <path d="M 2059 -325 
Q 1816 -950 1584 -1140 
Q 1353 -1331 966 -1331 
L 506 -1331 
L 506 -850 
L 844 -850 
Q 1081 -850 1212 -737 
Q 1344 -625 1503 -206 
L 1606 56 
L 191 3500 
L 800 3500 
L 1894 763 
L 2988 3500 
L 3597 3500 
L 2059 -325 
z
" id="DejaVuSans-79" transform="scale(0.015625)"/>
       </defs>
       <use xlink:href="#DejaVuSans-4e"/>
       <use x="74.804688" xlink:href="#DejaVuSans-6f"/>
       <use x="135.986328" xlink:href="#DejaVuSans-72"/>
       <use x="177.099609" xlink:href="#DejaVuSans-77"/>
       <use x="258.886719" xlink:href="#DejaVuSans-61"/>
       <use x="320.166016" xlink:href="#DejaVuSans-79"/>
      </g>
     </g>
    </g>
    <g id="xtick_18">
     <g id="line2d_18">
      <g>
       <use style="fill:#262626;stroke:#262626;stroke-width:1.25;" x="257.291458" xlink:href="#m297b67e5d8" y="119.9225"/>
      </g>
     </g>
     <g id="text_18">
      <!-- Pakistan -->
      <g style="fill:#262626;" transform="translate(259.636927 165.013594)rotate(-90)scale(0.085 -0.085)">
       <defs>
        <path d="M 1259 4147 
L 1259 2394 
L 2053 2394 
Q 2494 2394 2734 2622 
Q 2975 2850 2975 3272 
Q 2975 3691 2734 3919 
Q 2494 4147 2053 4147 
L 1259 4147 
z
M 628 4666 
L 2053 4666 
Q 2838 4666 3239 4311 
Q 3641 3956 3641 3272 
Q 3641 2581 3239 2228 
Q 2838 1875 2053 1875 
L 1259 1875 
L 1259 0 
L 628 0 
L 628 4666 
z
" id="DejaVuSans-50" transform="scale(0.015625)"/>
        <path d="M 581 4863 
L 1159 4863 
L 1159 1991 
L 2875 3500 
L 3609 3500 
L 1753 1863 
L 3688 0 
L 2938 0 
L 1159 1709 
L 1159 0 
L 581 0 
L 581 4863 
z
" id="DejaVuSans-6b" transform="scale(0.015625)"/>
       </defs>
       <use xlink:href="#DejaVuSans-50"/>
       <use x="55.802734" xlink:href="#DejaVuSans-61"/>
       <use x="117.082031" xlink:href="#DejaVuSans-6b"/>
       <use x="174.992188" xlink:href="#DejaVuSans-69"/>
       <use x="202.775391" xlink:href="#DejaVuSans-73"/>
       <use x="254.875" xlink:href="#DejaVuSans-74"/>
       <use x="294.083984" xlink:href="#DejaVuSans-61"/>
       <use x="355.363281" xlink:href="#DejaVuSans-6e"/>
      </g>
     </g>
    </g>
    <g id="xtick_19">
     <g id="line2d_19">
      <g>
       <use style="fill:#262626;stroke:#262626;stroke-width:1.25;" x="269.451042" xlink:href="#m297b67e5d8" y="119.9225"/>
      </g>
     </g>
     <g id="text_19">
      <!-- Serbia -->
      <g style="fill:#262626;" transform="translate(271.79651 156.509609)rotate(-90)scale(0.085 -0.085)">
       <use xlink:href="#DejaVuSans-53"/>
       <use x="63.476562" xlink:href="#DejaVuSans-65"/>
       <use x="125" xlink:href="#DejaVuSans-72"/>
       <use x="166.113281" xlink:href="#DejaVuSans-62"/>
       <use x="229.589844" xlink:href="#DejaVuSans-69"/>
       <use x="257.373047" xlink:href="#DejaVuSans-61"/>
      </g>
     </g>
    </g>
    <g id="xtick_20">
     <g id="line2d_20">
      <g>
       <use style="fill:#262626;stroke:#262626;stroke-width:1.25;" x="281.610625" xlink:href="#m297b67e5d8" y="119.9225"/>
      </g>
     </g>
     <g id="text_20">
      <!-- Russian Federation -->
      <g style="fill:#262626;" transform="translate(283.956094 210.110078)rotate(-90)scale(0.085 -0.085)">
       <defs>
        <path d="M 2841 2188 
Q 3044 2119 3236 1894 
Q 3428 1669 3622 1275 
L 4263 0 
L 3584 0 
L 2988 1197 
Q 2756 1666 2539 1819 
Q 2322 1972 1947 1972 
L 1259 1972 
L 1259 0 
L 628 0 
L 628 4666 
L 2053 4666 
Q 2853 4666 3247 4331 
Q 3641 3997 3641 3322 
Q 3641 2881 3436 2590 
Q 3231 2300 2841 2188 
z
M 1259 4147 
L 1259 2491 
L 2053 2491 
Q 2509 2491 2742 2702 
Q 2975 2913 2975 3322 
Q 2975 3731 2742 3939 
Q 2509 4147 2053 4147 
L 1259 4147 
z
" id="DejaVuSans-52" transform="scale(0.015625)"/>
        <path d="M 628 4666 
L 3309 4666 
L 3309 4134 
L 1259 4134 
L 1259 2759 
L 3109 2759 
L 3109 2228 
L 1259 2228 
L 1259 0 
L 628 0 
L 628 4666 
z
" id="DejaVuSans-46" transform="scale(0.015625)"/>
       </defs>
       <use xlink:href="#DejaVuSans-52"/>
       <use x="64.982422" xlink:href="#DejaVuSans-75"/>
       <use x="128.361328" xlink:href="#DejaVuSans-73"/>
       <use x="180.460938" xlink:href="#DejaVuSans-73"/>
       <use x="232.560547" xlink:href="#DejaVuSans-69"/>
       <use x="260.34375" xlink:href="#DejaVuSans-61"/>
       <use x="321.623047" xlink:href="#DejaVuSans-6e"/>
       <use x="385.001953" xlink:href="#DejaVuSans-20"/>
       <use x="416.789062" xlink:href="#DejaVuSans-46"/>
       <use x="468.808594" xlink:href="#DejaVuSans-65"/>
       <use x="530.332031" xlink:href="#DejaVuSans-64"/>
       <use x="593.808594" xlink:href="#DejaVuSans-65"/>
       <use x="655.332031" xlink:href="#DejaVuSans-72"/>
       <use x="696.445312" xlink:href="#DejaVuSans-61"/>
       <use x="757.724609" xlink:href="#DejaVuSans-74"/>
       <use x="796.933594" xlink:href="#DejaVuSans-69"/>
       <use x="824.716797" xlink:href="#DejaVuSans-6f"/>
       <use x="885.898438" xlink:href="#DejaVuSans-6e"/>
      </g>
     </g>
    </g>
    <g id="xtick_21">
     <g id="line2d_21">
      <g>
       <use style="fill:#262626;stroke:#262626;stroke-width:1.25;" x="293.770208" xlink:href="#m297b67e5d8" y="119.9225"/>
      </g>
     </g>
     <g id="text_21">
      <!-- Singapore -->
      <g style="fill:#262626;" transform="translate(296.115677 172.302344)rotate(-90)scale(0.085 -0.085)">
       <use xlink:href="#DejaVuSans-53"/>
       <use x="63.476562" xlink:href="#DejaVuSans-69"/>
       <use x="91.259766" xlink:href="#DejaVuSans-6e"/>
       <use x="154.638672" xlink:href="#DejaVuSans-67"/>
       <use x="218.115234" xlink:href="#DejaVuSans-61"/>
       <use x="279.394531" xlink:href="#DejaVuSans-70"/>
       <use x="342.871094" xlink:href="#DejaVuSans-6f"/>
       <use x="404.052734" xlink:href="#DejaVuSans-72"/>
       <use x="442.916016" xlink:href="#DejaVuSans-65"/>
      </g>
     </g>
    </g>
    <g id="xtick_22">
     <g id="line2d_22">
      <g>
       <use style="fill:#262626;stroke:#262626;stroke-width:1.25;" x="305.929792" xlink:href="#m297b67e5d8" y="119.9225"/>
      </g>
     </g>
     <g id="text_22">
      <!-- Turkey -->
      <g style="fill:#262626;" transform="translate(308.27526 157.084687)rotate(-90)scale(0.085 -0.085)">
       <defs>
        <path d="M -19 4666 
L 3928 4666 
L 3928 4134 
L 2272 4134 
L 2272 0 
L 1638 0 
L 1638 4134 
L -19 4134 
L -19 4666 
z
" id="DejaVuSans-54" transform="scale(0.015625)"/>
       </defs>
       <use xlink:href="#DejaVuSans-54"/>
       <use x="45.958984" xlink:href="#DejaVuSans-75"/>
       <use x="109.337891" xlink:href="#DejaVuSans-72"/>
       <use x="150.451172" xlink:href="#DejaVuSans-6b"/>
       <use x="204.736328" xlink:href="#DejaVuSans-65"/>
       <use x="266.259766" xlink:href="#DejaVuSans-79"/>
      </g>
     </g>
    </g>
    <g id="xtick_23">
     <g id="line2d_23">
      <g>
       <use style="fill:#262626;stroke:#262626;stroke-width:1.25;" x="318.089375" xlink:href="#m297b67e5d8" y="119.9225"/>
      </g>
     </g>
     <g id="text_23">
      <!-- Taiwan -->
      <g style="fill:#262626;" transform="translate(320.434844 158.329141)rotate(-90)scale(0.085 -0.085)">
       <use xlink:href="#DejaVuSans-54"/>
       <use x="44.583984" xlink:href="#DejaVuSans-61"/>
       <use x="105.863281" xlink:href="#DejaVuSans-69"/>
       <use x="133.646484" xlink:href="#DejaVuSans-77"/>
       <use x="215.433594" xlink:href="#DejaVuSans-61"/>
       <use x="276.712891" xlink:href="#DejaVuSans-6e"/>
      </g>
     </g>
    </g>
    <g id="xtick_24">
     <g id="line2d_24">
      <g>
       <use style="fill:#262626;stroke:#262626;stroke-width:1.25;" x="330.248958" xlink:href="#m297b67e5d8" y="119.9225"/>
      </g>
     </g>
     <g id="text_24">
      <!-- South Africa -->
      <g style="fill:#262626;" transform="translate(332.594427 181.063984)rotate(-90)scale(0.085 -0.085)">
       <defs>
        <path d="M 2375 4863 
L 2375 4384 
L 1825 4384 
Q 1516 4384 1395 4259 
Q 1275 4134 1275 3809 
L 1275 3500 
L 2222 3500 
L 2222 3053 
L 1275 3053 
L 1275 0 
L 697 0 
L 697 3053 
L 147 3053 
L 147 3500 
L 697 3500 
L 697 3744 
Q 697 4328 969 4595 
Q 1241 4863 1831 4863 
L 2375 4863 
z
" id="DejaVuSans-66" transform="scale(0.015625)"/>
       </defs>
       <use xlink:href="#DejaVuSans-53"/>
       <use x="63.476562" xlink:href="#DejaVuSans-6f"/>
       <use x="124.658203" xlink:href="#DejaVuSans-75"/>
       <use x="188.037109" xlink:href="#DejaVuSans-74"/>
       <use x="227.246094" xlink:href="#DejaVuSans-68"/>
       <use x="290.625" xlink:href="#DejaVuSans-20"/>
       <use x="322.412109" xlink:href="#DejaVuSans-41"/>
       <use x="387.195312" xlink:href="#DejaVuSans-66"/>
       <use x="422.400391" xlink:href="#DejaVuSans-72"/>
       <use x="463.513672" xlink:href="#DejaVuSans-69"/>
       <use x="491.296875" xlink:href="#DejaVuSans-63"/>
       <use x="546.277344" xlink:href="#DejaVuSans-61"/>
      </g>
     </g>
    </g>
   </g>
   <g id="matplotlib.axis_2">
    <g id="ytick_1">
     <g id="line2d_25">
      <path clip-path="url(#pf84785a79b)" d="M 44.49875 118.952125 
L 336.32875 118.952125 
" style="fill:none;stroke:#ffffff;stroke-linecap:round;"/>
     </g>
     <g id="line2d_26">
      <defs>
       <path d="M 0 0 
L -6 0 
" id="m9a9e37201a" style="stroke:#262626;stroke-width:1.25;"/>
      </defs>
      <g>
       <use style="fill:#262626;stroke:#262626;stroke-width:1.25;" x="44.49875" xlink:href="#m9a9e37201a" y="118.952125"/>
      </g>
     </g>
     <g id="text_25">
      <!-- 0 -->
      <g style="fill:#262626;" transform="translate(28 123.131266)scale(0.11 -0.11)">
       <defs>
        <path d="M 2034 4250 
Q 1547 4250 1301 3770 
Q 1056 3291 1056 2328 
Q 1056 1369 1301 889 
Q 1547 409 2034 409 
Q 2525 409 2770 889 
Q 3016 1369 3016 2328 
Q 3016 3291 2770 3770 
Q 2525 4250 2034 4250 
z
M 2034 4750 
Q 2819 4750 3233 4129 
Q 3647 3509 3647 2328 
Q 3647 1150 3233 529 
Q 2819 -91 2034 -91 
Q 1250 -91 836 529 
Q 422 1150 422 2328 
Q 422 3509 836 4129 
Q 1250 4750 2034 4750 
z
" id="DejaVuSans-30" transform="scale(0.015625)"/>
       </defs>
       <use xlink:href="#DejaVuSans-30"/>
      </g>
     </g>
    </g>
    <g id="ytick_2">
     <g id="line2d_27">
      <path clip-path="url(#pf84785a79b)" d="M 44.49875 90.613118 
L 336.32875 90.613118 
" style="fill:none;stroke:#ffffff;stroke-linecap:round;"/>
     </g>
     <g id="line2d_28">
      <g>
       <use style="fill:#262626;stroke:#262626;stroke-width:1.25;" x="44.49875" xlink:href="#m9a9e37201a" y="90.613118"/>
      </g>
     </g>
     <g id="text_26">
      <!-- 2 -->
      <g style="fill:#262626;" transform="translate(28 94.792259)scale(0.11 -0.11)">
       <defs>
        <path d="M 1228 531 
L 3431 531 
L 3431 0 
L 469 0 
L 469 531 
Q 828 903 1448 1529 
Q 2069 2156 2228 2338 
Q 2531 2678 2651 2914 
Q 2772 3150 2772 3378 
Q 2772 3750 2511 3984 
Q 2250 4219 1831 4219 
Q 1534 4219 1204 4116 
Q 875 4013 500 3803 
L 500 4441 
Q 881 4594 1212 4672 
Q 1544 4750 1819 4750 
Q 2544 4750 2975 4387 
Q 3406 4025 3406 3419 
Q 3406 3131 3298 2873 
Q 3191 2616 2906 2266 
Q 2828 2175 2409 1742 
Q 1991 1309 1228 531 
z
" id="DejaVuSans-32" transform="scale(0.015625)"/>
       </defs>
       <use xlink:href="#DejaVuSans-32"/>
      </g>
     </g>
    </g>
    <g id="ytick_3">
     <g id="line2d_29">
      <path clip-path="url(#pf84785a79b)" d="M 44.49875 62.274111 
L 336.32875 62.274111 
" style="fill:none;stroke:#ffffff;stroke-linecap:round;"/>
     </g>
     <g id="line2d_30">
      <g>
       <use style="fill:#262626;stroke:#262626;stroke-width:1.25;" x="44.49875" xlink:href="#m9a9e37201a" y="62.274111"/>
      </g>
     </g>
     <g id="text_27">
      <!-- 4 -->
      <g style="fill:#262626;" transform="translate(28 66.453252)scale(0.11 -0.11)">
       <defs>
        <path d="M 2419 4116 
L 825 1625 
L 2419 1625 
L 2419 4116 
z
M 2253 4666 
L 3047 4666 
L 3047 1625 
L 3713 1625 
L 3713 1100 
L 3047 1100 
L 3047 0 
L 2419 0 
L 2419 1100 
L 313 1100 
L 313 1709 
L 2253 4666 
z
" id="DejaVuSans-34" transform="scale(0.015625)"/>
       </defs>
       <use xlink:href="#DejaVuSans-34"/>
      </g>
     </g>
    </g>
    <g id="ytick_4">
     <g id="line2d_31">
      <path clip-path="url(#pf84785a79b)" d="M 44.49875 33.935104 
L 336.32875 33.935104 
" style="fill:none;stroke:#ffffff;stroke-linecap:round;"/>
     </g>
     <g id="line2d_32">
      <g>
       <use style="fill:#262626;stroke:#262626;stroke-width:1.25;" x="44.49875" xlink:href="#m9a9e37201a" y="33.935104"/>
      </g>
     </g>
     <g id="text_28">
      <!-- 6 -->
      <g style="fill:#262626;" transform="translate(28 38.114245)scale(0.11 -0.11)">
       <defs>
        <path d="M 2113 2584 
Q 1688 2584 1439 2293 
Q 1191 2003 1191 1497 
Q 1191 994 1439 701 
Q 1688 409 2113 409 
Q 2538 409 2786 701 
Q 3034 994 3034 1497 
Q 3034 2003 2786 2293 
Q 2538 2584 2113 2584 
z
M 3366 4563 
L 3366 3988 
Q 3128 4100 2886 4159 
Q 2644 4219 2406 4219 
Q 1781 4219 1451 3797 
Q 1122 3375 1075 2522 
Q 1259 2794 1537 2939 
Q 1816 3084 2150 3084 
Q 2853 3084 3261 2657 
Q 3669 2231 3669 1497 
Q 3669 778 3244 343 
Q 2819 -91 2113 -91 
Q 1303 -91 875 529 
Q 447 1150 447 2328 
Q 447 3434 972 4092 
Q 1497 4750 2381 4750 
Q 2619 4750 2861 4703 
Q 3103 4656 3366 4563 
z
" id="DejaVuSans-36" transform="scale(0.015625)"/>
       </defs>
       <use xlink:href="#DejaVuSans-36"/>
      </g>
     </g>
    </g>
    <g id="text_29">
     <!-- $\frac{fraction\ of\ NSF\ collaborations}{fraction\ of\ ERC\ collaborations}$ -->
     <g style="fill:#262626;" transform="translate(18.96 133.44)rotate(-90)scale(0.12 -0.12)">
      <defs>
       <path d="M 3059 4863 
L 2969 4384 
L 2419 4384 
Q 2106 4384 1964 4261 
Q 1822 4138 1753 3809 
L 1691 3500 
L 2638 3500 
L 2553 3053 
L 1606 3053 
L 1013 0 
L 434 0 
L 1031 3053 
L 481 3053 
L 563 3500 
L 1113 3500 
L 1159 3744 
Q 1278 4363 1576 4613 
Q 1875 4863 2516 4863 
L 3059 4863 
z
" id="DejaVuSans-Oblique-66" transform="scale(0.015625)"/>
       <path d="M 2853 2969 
Q 2766 3016 2653 3041 
Q 2541 3066 2413 3066 
Q 1953 3066 1609 2717 
Q 1266 2369 1153 1784 
L 800 0 
L 225 0 
L 909 3500 
L 1484 3500 
L 1375 2956 
Q 1603 3259 1920 3421 
Q 2238 3584 2597 3584 
Q 2691 3584 2781 3573 
Q 2872 3563 2963 3538 
L 2853 2969 
z
" id="DejaVuSans-Oblique-72" transform="scale(0.015625)"/>
       <path d="M 3438 1997 
L 3047 0 
L 2472 0 
L 2578 531 
Q 2325 219 2001 64 
Q 1678 -91 1281 -91 
Q 834 -91 548 182 
Q 263 456 263 884 
Q 263 1497 752 1853 
Q 1241 2209 2100 2209 
L 2900 2209 
L 2931 2363 
Q 2938 2388 2941 2417 
Q 2944 2447 2944 2509 
Q 2944 2788 2717 2942 
Q 2491 3097 2081 3097 
Q 1800 3097 1504 3025 
Q 1209 2953 897 2809 
L 997 3341 
Q 1322 3463 1633 3523 
Q 1944 3584 2234 3584 
Q 2853 3584 3176 3315 
Q 3500 3047 3500 2534 
Q 3500 2431 3484 2292 
Q 3469 2153 3438 1997 
z
M 2816 1759 
L 2241 1759 
Q 1534 1759 1195 1570 
Q 856 1381 856 984 
Q 856 709 1029 553 
Q 1203 397 1509 397 
Q 1978 397 2328 733 
Q 2678 1069 2791 1631 
L 2816 1759 
z
" id="DejaVuSans-Oblique-61" transform="scale(0.015625)"/>
       <path d="M 3431 3366 
L 3316 2797 
Q 3109 2947 2876 3022 
Q 2644 3097 2394 3097 
Q 2119 3097 1870 3000 
Q 1622 2903 1453 2725 
Q 1184 2453 1037 2087 
Q 891 1722 891 1331 
Q 891 859 1127 628 
Q 1363 397 1844 397 
Q 2081 397 2348 469 
Q 2616 541 2906 684 
L 2797 116 
Q 2547 13 2283 -39 
Q 2019 -91 1741 -91 
Q 1044 -91 669 257 
Q 294 606 294 1253 
Q 294 1797 489 2255 
Q 684 2713 1069 3078 
Q 1331 3328 1684 3456 
Q 2038 3584 2456 3584 
Q 2700 3584 2940 3529 
Q 3181 3475 3431 3366 
z
" id="DejaVuSans-Oblique-63" transform="scale(0.015625)"/>
       <path d="M 2706 3500 
L 2619 3053 
L 1472 3053 
L 1100 1153 
Q 1081 1047 1072 975 
Q 1063 903 1063 863 
Q 1063 663 1183 572 
Q 1303 481 1569 481 
L 2150 481 
L 2053 0 
L 1503 0 
Q 991 0 739 200 
Q 488 400 488 806 
Q 488 878 497 964 
Q 506 1050 525 1153 
L 897 3053 
L 409 3053 
L 500 3500 
L 978 3500 
L 1172 4494 
L 1747 4494 
L 1556 3500 
L 2706 3500 
z
" id="DejaVuSans-Oblique-74" transform="scale(0.015625)"/>
       <path d="M 1172 4863 
L 1747 4863 
L 1606 4134 
L 1031 4134 
L 1172 4863 
z
M 909 3500 
L 1484 3500 
L 800 0 
L 225 0 
L 909 3500 
z
" id="DejaVuSans-Oblique-69" transform="scale(0.015625)"/>
       <path d="M 1625 -91 
Q 1009 -91 651 289 
Q 294 669 294 1325 
Q 294 1706 417 2101 
Q 541 2497 738 2766 
Q 1047 3184 1428 3384 
Q 1809 3584 2291 3584 
Q 2888 3584 3255 3212 
Q 3622 2841 3622 2241 
Q 3622 1825 3500 1412 
Q 3378 1000 3181 728 
Q 2875 309 2494 109 
Q 2113 -91 1625 -91 
z
M 891 1344 
Q 891 869 1089 633 
Q 1288 397 1691 397 
Q 2269 397 2648 901 
Q 3028 1406 3028 2181 
Q 3028 2634 2825 2865 
Q 2622 3097 2228 3097 
Q 1903 3097 1650 2945 
Q 1397 2794 1197 2484 
Q 1050 2253 970 1956 
Q 891 1659 891 1344 
z
" id="DejaVuSans-Oblique-6f" transform="scale(0.015625)"/>
       <path d="M 3566 2113 
L 3156 0 
L 2578 0 
L 2988 2091 
Q 3016 2238 3031 2350 
Q 3047 2463 3047 2528 
Q 3047 2791 2881 2937 
Q 2716 3084 2419 3084 
Q 1956 3084 1622 2776 
Q 1288 2469 1184 1941 
L 800 0 
L 225 0 
L 903 3500 
L 1478 3500 
L 1363 2950 
Q 1603 3253 1940 3418 
Q 2278 3584 2650 3584 
Q 3113 3584 3367 3334 
Q 3622 3084 3622 2631 
Q 3622 2519 3608 2391 
Q 3594 2263 3566 2113 
z
" id="DejaVuSans-Oblique-6e" transform="scale(0.015625)"/>
       <path d="M 1081 4666 
L 1931 4666 
L 3219 666 
L 4000 4666 
L 4616 4666 
L 3706 0 
L 2853 0 
L 1569 4025 
L 788 0 
L 172 0 
L 1081 4666 
z
" id="DejaVuSans-Oblique-4e" transform="scale(0.015625)"/>
       <path d="M 3859 4513 
L 3738 3897 
Q 3422 4066 3111 4152 
Q 2800 4238 2509 4238 
Q 1944 4238 1609 3991 
Q 1275 3744 1275 3334 
Q 1275 3109 1398 2989 
Q 1522 2869 2034 2731 
L 2413 2638 
Q 3053 2472 3303 2217 
Q 3553 1963 3553 1503 
Q 3553 797 2998 353 
Q 2444 -91 1538 -91 
Q 1166 -91 791 -17 
Q 416 56 38 206 
L 166 856 
Q 513 641 861 531 
Q 1209 422 1556 422 
Q 2147 422 2503 684 
Q 2859 947 2859 1369 
Q 2859 1650 2717 1795 
Q 2575 1941 2106 2059 
L 1728 2156 
Q 1081 2325 845 2545 
Q 609 2766 609 3163 
Q 609 3859 1145 4304 
Q 1681 4750 2541 4750 
Q 2875 4750 3203 4690 
Q 3531 4631 3859 4513 
z
" id="DejaVuSans-Oblique-53" transform="scale(0.015625)"/>
       <path d="M 1081 4666 
L 3756 4666 
L 3653 4134 
L 1606 4134 
L 1338 2759 
L 3188 2759 
L 3084 2228 
L 1234 2228 
L 800 0 
L 172 0 
L 1081 4666 
z
" id="DejaVuSans-Oblique-46" transform="scale(0.015625)"/>
       <path d="M 1172 4863 
L 1747 4863 
L 800 0 
L 225 0 
L 1172 4863 
z
" id="DejaVuSans-Oblique-6c" transform="scale(0.015625)"/>
       <path d="M 3169 2138 
Q 3169 2591 2961 2847 
Q 2753 3103 2388 3103 
Q 2122 3103 1889 2973 
Q 1656 2844 1484 2597 
Q 1303 2338 1198 1995 
Q 1094 1653 1094 1313 
Q 1094 881 1298 636 
Q 1503 391 1863 391 
Q 2134 391 2365 517 
Q 2597 644 2772 891 
Q 2950 1147 3059 1487 
Q 3169 1828 3169 2138 
z
M 1381 2969 
Q 1594 3256 1914 3420 
Q 2234 3584 2584 3584 
Q 3122 3584 3439 3221 
Q 3756 2859 3756 2241 
Q 3756 1734 3570 1259 
Q 3384 784 3041 416 
Q 2816 172 2522 40 
Q 2228 -91 1906 -91 
Q 1566 -91 1316 65 
Q 1066 222 909 531 
L 806 0 
L 231 0 
L 1178 4863 
L 1753 4863 
L 1381 2969 
z
" id="DejaVuSans-Oblique-62" transform="scale(0.015625)"/>
       <path d="M 3200 3397 
L 3091 2853 
Q 2863 2978 2609 3040 
Q 2356 3103 2088 3103 
Q 1634 3103 1373 2948 
Q 1113 2794 1113 2528 
Q 1113 2219 1719 2053 
Q 1766 2041 1788 2034 
L 1972 1978 
Q 2547 1819 2739 1644 
Q 2931 1469 2931 1166 
Q 2931 609 2489 259 
Q 2047 -91 1331 -91 
Q 1053 -91 747 -37 
Q 441 16 72 128 
L 184 722 
Q 500 559 806 475 
Q 1113 391 1394 391 
Q 1816 391 2080 572 
Q 2344 753 2344 1031 
Q 2344 1331 1650 1516 
L 1591 1531 
L 1394 1581 
Q 956 1697 753 1886 
Q 550 2075 550 2369 
Q 550 2928 970 3256 
Q 1391 3584 2113 3584 
Q 2397 3584 2667 3537 
Q 2938 3491 3200 3397 
z
" id="DejaVuSans-Oblique-73" transform="scale(0.015625)"/>
       <path d="M 1081 4666 
L 4031 4666 
L 3928 4134 
L 1606 4134 
L 1338 2753 
L 3566 2753 
L 3463 2222 
L 1234 2222 
L 909 531 
L 3284 531 
L 3181 0 
L 172 0 
L 1081 4666 
z
" id="DejaVuSans-Oblique-45" transform="scale(0.015625)"/>
       <path d="M 1613 4147 
L 1294 2491 
L 2106 2491 
Q 2584 2491 2879 2755 
Q 3175 3019 3175 3444 
Q 3175 3784 2976 3965 
Q 2778 4147 2406 4147 
L 1613 4147 
z
M 2772 2241 
Q 2972 2194 3105 2009 
Q 3238 1825 3413 1275 
L 3809 0 
L 3144 0 
L 2778 1197 
Q 2638 1659 2453 1815 
Q 2269 1972 1888 1972 
L 1191 1972 
L 806 0 
L 172 0 
L 1081 4666 
L 2503 4666 
Q 3150 4666 3495 4373 
Q 3841 4081 3841 3531 
Q 3841 3044 3547 2687 
Q 3253 2331 2772 2241 
z
" id="DejaVuSans-Oblique-52" transform="scale(0.015625)"/>
       <path d="M 4447 4306 
L 4319 3641 
Q 4019 3944 3683 4091 
Q 3347 4238 2956 4238 
Q 2422 4238 2017 3981 
Q 1613 3725 1319 3200 
Q 1131 2863 1032 2486 
Q 934 2109 934 1728 
Q 934 1091 1264 756 
Q 1594 422 2222 422 
Q 2656 422 3056 561 
Q 3456 700 3834 978 
L 3688 231 
Q 3316 72 2936 -9 
Q 2556 -91 2175 -91 
Q 1278 -91 773 396 
Q 269 884 269 1753 
Q 269 2309 461 2846 
Q 653 3384 1013 3828 
Q 1394 4300 1883 4525 
Q 2372 4750 3022 4750 
Q 3422 4750 3780 4639 
Q 4138 4528 4447 4306 
z
" id="DejaVuSans-Oblique-43" transform="scale(0.015625)"/>
      </defs>
      <use transform="translate(2 44.810938)scale(0.7)" xlink:href="#DejaVuSans-Oblique-66"/>
      <use transform="translate(26.643555 44.810938)scale(0.7)" xlink:href="#DejaVuSans-Oblique-72"/>
      <use transform="translate(55.422852 44.810938)scale(0.7)" xlink:href="#DejaVuSans-Oblique-61"/>
      <use transform="translate(98.318359 44.810938)scale(0.7)" xlink:href="#DejaVuSans-Oblique-63"/>
      <use transform="translate(136.804688 44.810938)scale(0.7)" xlink:href="#DejaVuSans-Oblique-74"/>
      <use transform="translate(164.250977 44.810938)scale(0.7)" xlink:href="#DejaVuSans-Oblique-69"/>
      <use transform="translate(183.699219 44.810938)scale(0.7)" xlink:href="#DejaVuSans-Oblique-6f"/>
      <use transform="translate(226.526367 44.810938)scale(0.7)" xlink:href="#DejaVuSans-Oblique-6e"/>
      <use transform="translate(293.620866 44.810938)scale(0.7)" xlink:href="#DejaVuSans-Oblique-6f"/>
      <use transform="translate(336.448015 44.810938)scale(0.7)" xlink:href="#DejaVuSans-Oblique-66"/>
      <use transform="translate(383.820834 44.810938)scale(0.7)" xlink:href="#DejaVuSans-Oblique-4e"/>
      <use transform="translate(436.184116 44.810938)scale(0.7)" xlink:href="#DejaVuSans-Oblique-53"/>
      <use transform="translate(480.617709 44.810938)scale(0.7)" xlink:href="#DejaVuSans-Oblique-46"/>
      <use transform="translate(543.610646 44.810938)scale(0.7)" xlink:href="#DejaVuSans-Oblique-63"/>
      <use transform="translate(582.096974 44.810938)scale(0.7)" xlink:href="#DejaVuSans-Oblique-6f"/>
      <use transform="translate(624.924123 44.810938)scale(0.7)" xlink:href="#DejaVuSans-Oblique-6c"/>
      <use transform="translate(644.372365 44.810938)scale(0.7)" xlink:href="#DejaVuSans-Oblique-6c"/>
      <use transform="translate(663.820607 44.810938)scale(0.7)" xlink:href="#DejaVuSans-Oblique-61"/>
      <use transform="translate(706.716115 44.810938)scale(0.7)" xlink:href="#DejaVuSans-Oblique-62"/>
      <use transform="translate(751.149709 44.810938)scale(0.7)" xlink:href="#DejaVuSans-Oblique-6f"/>
      <use transform="translate(793.976857 44.810938)scale(0.7)" xlink:href="#DejaVuSans-Oblique-72"/>
      <use transform="translate(822.756154 44.810938)scale(0.7)" xlink:href="#DejaVuSans-Oblique-61"/>
      <use transform="translate(865.651662 44.810938)scale(0.7)" xlink:href="#DejaVuSans-Oblique-74"/>
      <use transform="translate(893.097951 44.810938)scale(0.7)" xlink:href="#DejaVuSans-Oblique-69"/>
      <use transform="translate(912.546193 44.810938)scale(0.7)" xlink:href="#DejaVuSans-Oblique-6f"/>
      <use transform="translate(955.373342 44.810938)scale(0.7)" xlink:href="#DejaVuSans-Oblique-6e"/>
      <use transform="translate(999.738576 44.810938)scale(0.7)" xlink:href="#DejaVuSans-Oblique-73"/>
      <use transform="translate(0 -40.623437)scale(0.7)" xlink:href="#DejaVuSans-Oblique-66"/>
      <use transform="translate(24.643555 -40.623437)scale(0.7)" xlink:href="#DejaVuSans-Oblique-72"/>
      <use transform="translate(53.422852 -40.623437)scale(0.7)" xlink:href="#DejaVuSans-Oblique-61"/>
      <use transform="translate(96.318359 -40.623437)scale(0.7)" xlink:href="#DejaVuSans-Oblique-63"/>
      <use transform="translate(134.804688 -40.623437)scale(0.7)" xlink:href="#DejaVuSans-Oblique-74"/>
      <use transform="translate(162.250977 -40.623437)scale(0.7)" xlink:href="#DejaVuSans-Oblique-69"/>
      <use transform="translate(181.699219 -40.623437)scale(0.7)" xlink:href="#DejaVuSans-Oblique-6f"/>
      <use transform="translate(224.526367 -40.623437)scale(0.7)" xlink:href="#DejaVuSans-Oblique-6e"/>
      <use transform="translate(291.620866 -40.623437)scale(0.7)" xlink:href="#DejaVuSans-Oblique-6f"/>
      <use transform="translate(334.448015 -40.623437)scale(0.7)" xlink:href="#DejaVuSans-Oblique-66"/>
      <use transform="translate(381.820834 -40.623437)scale(0.7)" xlink:href="#DejaVuSans-Oblique-45"/>
      <use transform="translate(426.04935 -40.623437)scale(0.7)" xlink:href="#DejaVuSans-Oblique-52"/>
      <use transform="translate(474.687045 -40.623437)scale(0.7)" xlink:href="#DejaVuSans-Oblique-43"/>
      <use transform="translate(546.293263 -40.623437)scale(0.7)" xlink:href="#DejaVuSans-Oblique-63"/>
      <use transform="translate(584.779592 -40.623437)scale(0.7)" xlink:href="#DejaVuSans-Oblique-6f"/>
      <use transform="translate(627.60674 -40.623437)scale(0.7)" xlink:href="#DejaVuSans-Oblique-6c"/>
      <use transform="translate(647.054982 -40.623437)scale(0.7)" xlink:href="#DejaVuSans-Oblique-6c"/>
      <use transform="translate(666.503224 -40.623437)scale(0.7)" xlink:href="#DejaVuSans-Oblique-61"/>
      <use transform="translate(709.398732 -40.623437)scale(0.7)" xlink:href="#DejaVuSans-Oblique-62"/>
      <use transform="translate(753.832326 -40.623437)scale(0.7)" xlink:href="#DejaVuSans-Oblique-6f"/>
      <use transform="translate(796.659474 -40.623437)scale(0.7)" xlink:href="#DejaVuSans-Oblique-72"/>
      <use transform="translate(825.438771 -40.623437)scale(0.7)" xlink:href="#DejaVuSans-Oblique-61"/>
      <use transform="translate(868.334279 -40.623437)scale(0.7)" xlink:href="#DejaVuSans-Oblique-74"/>
      <use transform="translate(895.780568 -40.623437)scale(0.7)" xlink:href="#DejaVuSans-Oblique-69"/>
      <use transform="translate(915.22881 -40.623437)scale(0.7)" xlink:href="#DejaVuSans-Oblique-6f"/>
      <use transform="translate(958.055959 -40.623437)scale(0.7)" xlink:href="#DejaVuSans-Oblique-6e"/>
      <use transform="translate(1002.421193 -40.623437)scale(0.7)" xlink:href="#DejaVuSans-Oblique-73"/>
      <path d="M 0 18.815625 
L 0 25.065625 
L 1038.89092 25.065625 
L 1038.89092 18.815625 
L 0 18.815625 
z
"/>
     </g>
    </g>
   </g>
   <g id="patch_3">
    <path clip-path="url(#pf84785a79b)" d="M 45.714708 104.782622 
L 55.442375 104.782622 
L 55.442375 44.959565 
L 45.714708 44.959565 
z
" style="fill:#ea96a3;stroke:#ffffff;stroke-linejoin:miter;"/>
   </g>
   <g id="patch_4">
    <path clip-path="url(#pf84785a79b)" d="M 57.874292 104.782622 
L 67.601958 104.782622 
L 67.601958 108.816864 
L 57.874292 108.816864 
z
" style="fill:#e8968a;stroke:#ffffff;stroke-linejoin:miter;"/>
   </g>
   <g id="patch_5">
    <path clip-path="url(#pf84785a79b)" d="M 70.033875 104.782622 
L 79.761542 104.782622 
L 79.761542 96.628001 
L 70.033875 96.628001 
z
" style="fill:#e19153;stroke:#ffffff;stroke-linejoin:miter;"/>
   </g>
   <g id="patch_6">
    <path clip-path="url(#pf84785a79b)" d="M 82.193458 104.782622 
L 91.921125 104.782622 
L 91.921125 104.587222 
L 82.193458 104.587222 
z
" style="fill:#ca984c;stroke:#ffffff;stroke-linejoin:miter;"/>
   </g>
   <g id="patch_7">
    <path clip-path="url(#pf84785a79b)" d="M 94.353042 104.782622 
L 104.080708 104.782622 
L 104.080708 99.979381 
L 94.353042 99.979381 
z
" style="fill:#b89c49;stroke:#ffffff;stroke-linejoin:miter;"/>
   </g>
   <g id="patch_8">
    <path clip-path="url(#pf84785a79b)" d="M 106.512625 104.782622 
L 116.240292 104.782622 
L 116.240292 115.413182 
L 106.512625 115.413182 
z
" style="fill:#a89e47;stroke:#ffffff;stroke-linejoin:miter;"/>
   </g>
   <g id="patch_9">
    <path clip-path="url(#pf84785a79b)" d="M 118.672208 104.782622 
L 128.399875 104.782622 
L 128.399875 106.431147 
L 118.672208 106.431147 
z
" style="fill:#98a246;stroke:#ffffff;stroke-linejoin:miter;"/>
   </g>
   <g id="patch_10">
    <path clip-path="url(#pf84785a79b)" d="M 130.831792 104.782622 
L 140.559458 104.782622 
L 140.559458 35.521016 
L 130.831792 35.521016 
z
" style="fill:#84a846;stroke:#ffffff;stroke-linejoin:miter;"/>
   </g>
   <g id="patch_11">
    <path clip-path="url(#pf84785a79b)" d="M 142.991375 104.782622 
L 152.719042 104.782622 
L 152.719042 99.418746 
L 142.991375 99.418746 
z
" style="fill:#60ae47;stroke:#ffffff;stroke-linejoin:miter;"/>
   </g>
   <g id="patch_12">
    <path clip-path="url(#pf84785a79b)" d="M 155.150958 104.782622 
L 164.878625 104.782622 
L 164.878625 111.064963 
L 155.150958 111.064963 
z
" style="fill:#49af72;stroke:#ffffff;stroke-linejoin:miter;"/>
   </g>
   <g id="patch_13">
    <path clip-path="url(#pf84785a79b)" d="M 167.310542 104.782622 
L 177.038208 104.782622 
L 177.038208 64.077587 
L 167.310542 64.077587 
z
" style="fill:#4aae8a;stroke:#ffffff;stroke-linejoin:miter;"/>
   </g>
   <g id="patch_14">
    <path clip-path="url(#pf84785a79b)" d="M 179.470125 104.782622 
L 189.197792 104.782622 
L 189.197792 106.119088 
L 179.470125 106.119088 
z
" style="fill:#4aac99;stroke:#ffffff;stroke-linejoin:miter;"/>
   </g>
   <g id="patch_15">
    <path clip-path="url(#pf84785a79b)" d="M 191.629708 104.782622 
L 201.357375 104.782622 
L 201.357375 81.23787 
L 191.629708 81.23787 
z
" style="fill:#4baba4;stroke:#ffffff;stroke-linejoin:miter;"/>
   </g>
   <g id="patch_16">
    <path clip-path="url(#pf84785a79b)" d="M 203.789292 104.782622 
L 213.516958 104.782622 
L 213.516958 107.715447 
L 203.789292 107.715447 
z
" style="fill:#4cabaf;stroke:#ffffff;stroke-linejoin:miter;"/>
   </g>
   <g id="patch_17">
    <path clip-path="url(#pf84785a79b)" d="M 215.948875 104.782622 
L 225.676542 104.782622 
L 225.676542 68.516554 
L 215.948875 68.516554 
z
" style="fill:#4fabbc;stroke:#ffffff;stroke-linejoin:miter;"/>
   </g>
   <g id="patch_18">
    <path clip-path="url(#pf84785a79b)" d="M 228.108458 104.782622 
L 237.836125 104.782622 
L 237.836125 104.23131 
L 228.108458 104.23131 
z
" style="fill:#53accd;stroke:#ffffff;stroke-linejoin:miter;"/>
   </g>
   <g id="patch_19">
    <path clip-path="url(#pf84785a79b)" d="M 240.268042 104.782622 
L 249.995708 104.782622 
L 249.995708 111.911051 
L 240.268042 111.911051 
z
" style="fill:#6daee2;stroke:#ffffff;stroke-linejoin:miter;"/>
   </g>
   <g id="patch_20">
    <path clip-path="url(#pf84785a79b)" d="M 252.427625 104.782622 
L 262.155292 104.782622 
L 262.155292 96.677567 
L 252.427625 96.677567 
z
" style="fill:#9bade9;stroke:#ffffff;stroke-linejoin:miter;"/>
   </g>
   <g id="patch_21">
    <path clip-path="url(#pf84785a79b)" d="M 264.587208 104.782622 
L 274.314875 104.782622 
L 274.314875 111.46698 
L 264.587208 111.46698 
z
" style="fill:#b6a8eb;stroke:#ffffff;stroke-linejoin:miter;"/>
   </g>
   <g id="patch_22">
    <path clip-path="url(#pf84785a79b)" d="M 276.746792 104.782622 
L 286.474458 104.782622 
L 286.474458 109.795785 
L 276.746792 109.795785 
z
" style="fill:#ca9ee9;stroke:#ffffff;stroke-linejoin:miter;"/>
   </g>
   <g id="patch_23">
    <path clip-path="url(#pf84785a79b)" d="M 288.906375 104.782622 
L 298.634042 104.782622 
L 298.634042 66.010204 
L 288.906375 66.010204 
z
" style="fill:#df8fe7;stroke:#ffffff;stroke-linejoin:miter;"/>
   </g>
   <g id="patch_24">
    <path clip-path="url(#pf84785a79b)" d="M 301.065958 104.782622 
L 310.793625 104.782622 
L 310.793625 106.878051 
L 301.065958 106.878051 
z
" style="fill:#e78cd7;stroke:#ffffff;stroke-linejoin:miter;"/>
   </g>
   <g id="patch_25">
    <path clip-path="url(#pf84785a79b)" d="M 313.225542 104.782622 
L 322.953208 104.782622 
L 322.953208 25.226818 
L 313.225542 25.226818 
z
" style="fill:#e890c6;stroke:#ffffff;stroke-linejoin:miter;"/>
   </g>
   <g id="patch_26">
    <path clip-path="url(#pf84785a79b)" d="M 325.385125 104.782622 
L 335.112792 104.782622 
L 335.112792 106.190362 
L 325.385125 106.190362 
z
" style="fill:#e993b6;stroke:#ffffff;stroke-linejoin:miter;"/>
   </g>
   <g id="line2d_33">
    <path clip-path="url(#pf84785a79b)" d="M 0 0 
" style="fill:none;stroke:#424242;stroke-linecap:round;stroke-width:2.7;"/>
   </g>
   <g id="line2d_34">
    <path clip-path="url(#pf84785a79b)" d="M 0 0 
" style="fill:none;stroke:#424242;stroke-linecap:round;stroke-width:2.7;"/>
   </g>
   <g id="line2d_35">
    <path clip-path="url(#pf84785a79b)" d="M 0 0 
" style="fill:none;stroke:#424242;stroke-linecap:round;stroke-width:2.7;"/>
   </g>
   <g id="line2d_36">
    <path clip-path="url(#pf84785a79b)" d="M 0 0 
" style="fill:none;stroke:#424242;stroke-linecap:round;stroke-width:2.7;"/>
   </g>
   <g id="line2d_37">
    <path clip-path="url(#pf84785a79b)" d="M 0 0 
" style="fill:none;stroke:#424242;stroke-linecap:round;stroke-width:2.7;"/>
   </g>
   <g id="line2d_38">
    <path clip-path="url(#pf84785a79b)" d="M 0 0 
" style="fill:none;stroke:#424242;stroke-linecap:round;stroke-width:2.7;"/>
   </g>
   <g id="line2d_39">
    <path clip-path="url(#pf84785a79b)" d="M 0 0 
" style="fill:none;stroke:#424242;stroke-linecap:round;stroke-width:2.7;"/>
   </g>
   <g id="line2d_40">
    <path clip-path="url(#pf84785a79b)" d="M 0 0 
" style="fill:none;stroke:#424242;stroke-linecap:round;stroke-width:2.7;"/>
   </g>
   <g id="line2d_41">
    <path clip-path="url(#pf84785a79b)" d="M 0 0 
" style="fill:none;stroke:#424242;stroke-linecap:round;stroke-width:2.7;"/>
   </g>
   <g id="line2d_42">
    <path clip-path="url(#pf84785a79b)" d="M 0 0 
" style="fill:none;stroke:#424242;stroke-linecap:round;stroke-width:2.7;"/>
   </g>
   <g id="line2d_43">
    <path clip-path="url(#pf84785a79b)" d="M 0 0 
" style="fill:none;stroke:#424242;stroke-linecap:round;stroke-width:2.7;"/>
   </g>
   <g id="line2d_44">
    <path clip-path="url(#pf84785a79b)" d="M 0 0 
" style="fill:none;stroke:#424242;stroke-linecap:round;stroke-width:2.7;"/>
   </g>
   <g id="line2d_45">
    <path clip-path="url(#pf84785a79b)" d="M 0 0 
" style="fill:none;stroke:#424242;stroke-linecap:round;stroke-width:2.7;"/>
   </g>
   <g id="line2d_46">
    <path clip-path="url(#pf84785a79b)" d="M 0 0 
" style="fill:none;stroke:#424242;stroke-linecap:round;stroke-width:2.7;"/>
   </g>
   <g id="line2d_47">
    <path clip-path="url(#pf84785a79b)" d="M 0 0 
" style="fill:none;stroke:#424242;stroke-linecap:round;stroke-width:2.7;"/>
   </g>
   <g id="line2d_48">
    <path clip-path="url(#pf84785a79b)" d="M 0 0 
" style="fill:none;stroke:#424242;stroke-linecap:round;stroke-width:2.7;"/>
   </g>
   <g id="line2d_49">
    <path clip-path="url(#pf84785a79b)" d="M 0 0 
" style="fill:none;stroke:#424242;stroke-linecap:round;stroke-width:2.7;"/>
   </g>
   <g id="line2d_50">
    <path clip-path="url(#pf84785a79b)" d="M 0 0 
" style="fill:none;stroke:#424242;stroke-linecap:round;stroke-width:2.7;"/>
   </g>
   <g id="line2d_51">
    <path clip-path="url(#pf84785a79b)" d="M 0 0 
" style="fill:none;stroke:#424242;stroke-linecap:round;stroke-width:2.7;"/>
   </g>
   <g id="line2d_52">
    <path clip-path="url(#pf84785a79b)" d="M 0 0 
" style="fill:none;stroke:#424242;stroke-linecap:round;stroke-width:2.7;"/>
   </g>
   <g id="line2d_53">
    <path clip-path="url(#pf84785a79b)" d="M 0 0 
" style="fill:none;stroke:#424242;stroke-linecap:round;stroke-width:2.7;"/>
   </g>
   <g id="line2d_54">
    <path clip-path="url(#pf84785a79b)" d="M 0 0 
" style="fill:none;stroke:#424242;stroke-linecap:round;stroke-width:2.7;"/>
   </g>
   <g id="line2d_55">
    <path clip-path="url(#pf84785a79b)" d="M 0 0 
" style="fill:none;stroke:#424242;stroke-linecap:round;stroke-width:2.7;"/>
   </g>
   <g id="line2d_56">
    <path clip-path="url(#pf84785a79b)" d="M 0 0 
" style="fill:none;stroke:#424242;stroke-linecap:round;stroke-width:2.7;"/>
   </g>
   <g id="patch_27">
    <path d="M 44.49875 119.9225 
L 44.49875 20.7175 
" style="fill:none;stroke:#ffffff;stroke-linecap:square;stroke-linejoin:miter;stroke-width:1.25;"/>
   </g>
   <g id="patch_28">
    <path d="M 44.49875 119.9225 
L 336.32875 119.9225 
" style="fill:none;stroke:#ffffff;stroke-linecap:square;stroke-linejoin:miter;stroke-width:1.25;"/>
   </g>
  </g>
 </g>
 <defs>
  <clipPath id="pf84785a79b">
   <rect height="99.205" width="291.83" x="44.49875" y="20.7175"/>
  </clipPath>
 </defs>
</svg>
