<?xml version="1.0" encoding="utf-8" standalone="no"?>
<!DOCTYPE svg PUBLIC "-//W3C//DTD SVG 1.1//EN"
  "http://www.w3.org/Graphics/SVG/1.1/DTD/svg11.dtd">
<svg height="223.754375pt" version="1.1" viewBox="0 0 331.879895 223.754375" width="331.879895pt" xmlns="http://www.w3.org/2000/svg" xmlns:xlink="http://www.w3.org/1999/xlink">
 <metadata>
  <rdf:RDF xmlns:cc="http://creativecommons.org/ns#" xmlns:dc="http://purl.org/dc/elements/1.1/" xmlns:rdf="http://www.w3.org/1999/02/22-rdf-syntax-ns#">
   <cc:Work>
    <dc:type rdf:resource="http://purl.org/dc/dcmitype/StillImage"/>
    <dc:date>2023-03-22T20:59:24.574280</dc:date>
    <dc:format>image/svg+xml</dc:format>
    <dc:creator>
     <cc:Agent>
      <dc:title>Matplotlib v3.4.1, https://matplotlib.org/</dc:title>
     </cc:Agent>
    </dc:creator>
   </cc:Work>
  </rdf:RDF>
 </metadata>
 <defs>
  <style type="text/css">*{stroke-linecap:butt;stroke-linejoin:round;}</style>
 </defs>
 <g id="figure_1">
  <g id="patch_1">
   <path d="M 0 223.754375 
L 331.879895 223.754375 
L 331.879895 -0 
L 0 -0 
z
" style="fill:none;"/>
  </g>
  <g id="axes_1">
   <g id="patch_2">
    <path d="M 77.791125 150.3025 
L 324.679895 150.3025 
L 324.679895 39.0575 
L 77.791125 39.0575 
z
" style="fill:#ffffff;"/>
   </g>
   <g id="patch_3">
    <path clip-path="url(#p1541a94176)" d="M 78.952955 57845.429219 
L 88.247591 57845.429219 
L 88.247591 44.114091 
L 78.952955 44.114091 
z
" style="fill:#170e15;"/>
   </g>
   <g id="patch_4">
    <path clip-path="url(#p1541a94176)" d="M 90.57125 57845.429219 
L 99.865886 57845.429219 
L 99.865886 69.70479 
L 90.57125 69.70479 
z
" style="fill:#231826;"/>
   </g>
   <g id="patch_5">
    <path clip-path="url(#p1541a94176)" d="M 102.189545 57845.429219 
L 111.484181 57845.429219 
L 111.484181 72.321389 
L 102.189545 72.321389 
z
" style="fill:#2e2237;"/>
   </g>
   <g id="patch_6">
    <path clip-path="url(#p1541a94176)" d="M 113.80784 57845.429219 
L 123.102476 57845.429219 
L 123.102476 74.95122 
L 113.80784 74.95122 
z
" style="fill:#382d4a;"/>
   </g>
   <g id="patch_7">
    <path clip-path="url(#p1541a94176)" d="M 125.426135 57845.429219 
L 134.720771 57845.429219 
L 134.720771 75.667628 
L 125.426135 75.667628 
z
" style="fill:#40385e;"/>
   </g>
   <g id="patch_8">
    <path clip-path="url(#p1541a94176)" d="M 137.04443 57845.429219 
L 146.339066 57845.429219 
L 146.339066 79.109552 
L 137.04443 79.109552 
z
" style="fill:#474473;"/>
   </g>
   <g id="patch_9">
    <path clip-path="url(#p1541a94176)" d="M 148.662725 57845.429219 
L 157.957361 57845.429219 
L 157.957361 82.893631 
L 148.662725 82.893631 
z
" style="fill:#495084;"/>
   </g>
   <g id="patch_10">
    <path clip-path="url(#p1541a94176)" d="M 160.28102 57845.429219 
L 169.575656 57845.429219 
L 169.575656 87.443697 
L 160.28102 87.443697 
z
" style="fill:#475c8d;"/>
   </g>
   <g id="patch_11">
    <path clip-path="url(#p1541a94176)" d="M 171.899315 57845.429219 
L 181.193951 57845.429219 
L 181.193951 97.392325 
L 171.899315 97.392325 
z
" style="fill:#446791;"/>
   </g>
   <g id="patch_12">
    <path clip-path="url(#p1541a94176)" d="M 183.51761 57845.429219 
L 192.812246 57845.429219 
L 192.812246 98.145217 
L 183.51761 98.145217 
z
" style="fill:#437194;"/>
   </g>
   <g id="patch_13">
    <path clip-path="url(#p1541a94176)" d="M 195.135905 57845.429219 
L 204.430541 57845.429219 
L 204.430541 99.615175 
L 195.135905 99.615175 
z
" style="fill:#427c96;"/>
   </g>
   <g id="patch_14">
    <path clip-path="url(#p1541a94176)" d="M 206.7542 57845.429219 
L 216.048836 57845.429219 
L 216.048836 105.684112 
L 206.7542 105.684112 
z
" style="fill:#428799;"/>
   </g>
   <g id="patch_15">
    <path clip-path="url(#p1541a94176)" d="M 218.372495 57845.429219 
L 227.667131 57845.429219 
L 227.667131 109.285606 
L 218.372495 109.285606 
z
" style="fill:#43919b;"/>
   </g>
   <g id="patch_16">
    <path clip-path="url(#p1541a94176)" d="M 229.99079 57845.429219 
L 239.285426 57845.429219 
L 239.285426 125.623321 
L 229.99079 125.623321 
z
" style="fill:#479c9e;"/>
   </g>
   <g id="patch_17">
    <path clip-path="url(#p1541a94176)" d="M 241.609085 57845.429219 
L 250.903721 57845.429219 
L 250.903721 125.932327 
L 241.609085 125.932327 
z
" style="fill:#4fa8a1;"/>
   </g>
   <g id="patch_18">
    <path clip-path="url(#p1541a94176)" d="M 253.22738 57845.429219 
L 262.522016 57845.429219 
L 262.522016 133.018823 
L 253.22738 133.018823 
z
" style="fill:#5db7a4;"/>
   </g>
   <g id="patch_19">
    <path clip-path="url(#p1541a94176)" d="M 264.845675 57845.429219 
L 274.140311 57845.429219 
L 274.140311 133.110786 
L 264.845675 133.110786 
z
" style="fill:#75c4a9;"/>
   </g>
   <g id="patch_20">
    <path clip-path="url(#p1541a94176)" d="M 276.46397 57845.429219 
L 285.758606 57845.429219 
L 285.758606 134.573721 
L 276.46397 134.573721 
z
" style="fill:#95d0b2;"/>
   </g>
   <g id="patch_21">
    <path clip-path="url(#p1541a94176)" d="M 288.082265 57845.429219 
L 297.376901 57845.429219 
L 297.376901 145.202239 
L 288.082265 145.202239 
z
" style="fill:#b2dbc0;"/>
   </g>
   <g id="patch_22">
    <path clip-path="url(#p1541a94176)" d="M 299.70056 57845.429219 
L 308.995196 57845.429219 
L 308.995196 145.245909 
L 299.70056 145.245909 
z
" style="fill:#cbe6d3;"/>
   </g>
   <g id="matplotlib.axis_1">
    <g id="xtick_1">
     <g id="line2d_1">
      <defs>
       <path d="M 0 0 
L 0 9 
" id="m81c96f92cc" style="stroke:#000000;stroke-width:1.875;"/>
      </defs>
      <g>
       <use style="stroke:#000000;stroke-width:1.875;" x="83.600273" xlink:href="#m81c96f92cc" y="150.3025"/>
      </g>
     </g>
     <g id="text_1">
      <!-- Switzerland -->
      <g transform="translate(85.945741 214.309844)rotate(-90)scale(0.085 -0.085)">
       <defs>
        <path d="M 594 225 
L 594 1288 
L 953 1284 
Q 969 753 1261 498 
Q 1553 244 2150 244 
Q 2706 244 2998 464 
Q 3291 684 3291 1106 
Q 3291 1444 3114 1625 
Q 2938 1806 2369 1978 
L 1753 2163 
Q 1084 2366 811 2669 
Q 538 2972 538 3500 
Q 538 4094 959 4422 
Q 1381 4750 2144 4750 
Q 2469 4750 2856 4679 
Q 3244 4609 3681 4475 
L 3681 3481 
L 3328 3481 
Q 3275 3975 2998 4195 
Q 2722 4416 2156 4416 
Q 1663 4416 1405 4214 
Q 1147 4013 1147 3628 
Q 1147 3294 1340 3103 
Q 1534 2913 2163 2725 
L 2741 2553 
Q 3375 2363 3645 2067 
Q 3916 1772 3916 1275 
Q 3916 597 3481 253 
Q 3047 -91 2188 -91 
Q 1803 -91 1404 -12 
Q 1006 66 594 225 
z
" id="DejaVuSerif-53" transform="scale(0.015625)"/>
        <path d="M 3072 3322 
L 3922 728 
L 4672 2988 
L 4191 2988 
L 4191 3322 
L 5394 3322 
L 5394 2988 
L 5025 2988 
L 4038 0 
L 3559 0 
L 2741 2484 
L 1919 0 
L 1459 0 
L 475 2988 
L 103 2988 
L 103 3322 
L 1606 3322 
L 1606 2988 
L 1069 2988 
L 1813 728 
L 2669 3322 
L 3072 3322 
z
" id="DejaVuSerif-77" transform="scale(0.015625)"/>
        <path d="M 622 4353 
Q 622 4497 726 4603 
Q 831 4709 978 4709 
Q 1122 4709 1226 4603 
Q 1331 4497 1331 4353 
Q 1331 4206 1228 4103 
Q 1125 4000 978 4000 
Q 831 4000 726 4103 
Q 622 4206 622 4353 
z
M 1356 331 
L 1900 331 
L 1900 0 
L 231 0 
L 231 331 
L 781 331 
L 781 2988 
L 231 2988 
L 231 3322 
L 1356 3322 
L 1356 331 
z
" id="DejaVuSerif-69" transform="scale(0.015625)"/>
        <path d="M 691 2988 
L 184 2988 
L 184 3322 
L 691 3322 
L 691 4353 
L 1269 4353 
L 1269 3322 
L 2350 3322 
L 2350 2988 
L 1269 2988 
L 1269 878 
Q 1269 456 1350 337 
Q 1431 219 1650 219 
Q 1875 219 1978 351 
Q 2081 484 2088 781 
L 2522 781 
Q 2497 328 2275 118 
Q 2053 -91 1600 -91 
Q 1103 -91 897 129 
Q 691 350 691 878 
L 691 2988 
z
" id="DejaVuSerif-74" transform="scale(0.015625)"/>
        <path d="M 256 0 
L 256 269 
L 2338 2988 
L 691 2988 
L 691 2413 
L 359 2413 
L 359 3322 
L 3078 3322 
L 3078 3053 
L 997 331 
L 2803 331 
L 2803 934 
L 3138 934 
L 3138 0 
L 256 0 
z
" id="DejaVuSerif-7a" transform="scale(0.015625)"/>
        <path d="M 3469 1600 
L 991 1600 
L 991 1575 
Q 991 903 1244 561 
Q 1497 219 1991 219 
Q 2369 219 2611 417 
Q 2853 616 2950 1006 
L 3413 1006 
Q 3275 459 2904 184 
Q 2534 -91 1931 -91 
Q 1203 -91 761 389 
Q 319 869 319 1663 
Q 319 2450 753 2931 
Q 1188 3413 1894 3413 
Q 2647 3413 3050 2948 
Q 3453 2484 3469 1600 
z
M 2791 1931 
Q 2772 2513 2545 2808 
Q 2319 3103 1894 3103 
Q 1497 3103 1269 2806 
Q 1041 2509 991 1931 
L 2791 1931 
z
" id="DejaVuSerif-65" transform="scale(0.015625)"/>
        <path d="M 3059 3328 
L 3059 2497 
L 2728 2497 
Q 2713 2744 2591 2866 
Q 2469 2988 2234 2988 
Q 1809 2988 1582 2694 
Q 1356 2400 1356 1850 
L 1356 331 
L 2022 331 
L 2022 0 
L 263 0 
L 263 331 
L 781 331 
L 781 2994 
L 231 2994 
L 231 3322 
L 1356 3322 
L 1356 2731 
Q 1525 3078 1790 3245 
Q 2056 3413 2438 3413 
Q 2578 3413 2733 3391 
Q 2888 3369 3059 3328 
z
" id="DejaVuSerif-72" transform="scale(0.015625)"/>
        <path d="M 1313 331 
L 1856 331 
L 1856 0 
L 184 0 
L 184 331 
L 738 331 
L 738 4531 
L 184 4531 
L 184 4863 
L 1313 4863 
L 1313 331 
z
" id="DejaVuSerif-6c" transform="scale(0.015625)"/>
        <path d="M 2547 1044 
L 2547 1747 
L 1806 1747 
Q 1378 1747 1168 1562 
Q 959 1378 959 997 
Q 959 650 1171 447 
Q 1384 244 1747 244 
Q 2106 244 2326 466 
Q 2547 688 2547 1044 
z
M 3122 2075 
L 3122 331 
L 3634 331 
L 3634 0 
L 2547 0 
L 2547 359 
Q 2356 128 2106 18 
Q 1856 -91 1522 -91 
Q 969 -91 644 203 
Q 319 497 319 997 
Q 319 1513 691 1797 
Q 1063 2081 1741 2081 
L 2547 2081 
L 2547 2309 
Q 2547 2688 2317 2895 
Q 2088 3103 1672 3103 
Q 1328 3103 1125 2947 
Q 922 2791 872 2484 
L 575 2484 
L 575 3156 
Q 875 3284 1158 3348 
Q 1441 3413 1709 3413 
Q 2400 3413 2761 3070 
Q 3122 2728 3122 2075 
z
" id="DejaVuSerif-61" transform="scale(0.015625)"/>
        <path d="M 263 0 
L 263 331 
L 781 331 
L 781 2988 
L 231 2988 
L 231 3322 
L 1356 3322 
L 1356 2731 
Q 1516 3069 1770 3241 
Q 2025 3413 2363 3413 
Q 2913 3413 3172 3097 
Q 3431 2781 3431 2113 
L 3431 331 
L 3944 331 
L 3944 0 
L 2356 0 
L 2356 331 
L 2853 331 
L 2853 1931 
Q 2853 2541 2703 2767 
Q 2553 2994 2175 2994 
Q 1775 2994 1565 2701 
Q 1356 2409 1356 1850 
L 1356 331 
L 1856 331 
L 1856 0 
L 263 0 
z
" id="DejaVuSerif-6e" transform="scale(0.015625)"/>
        <path d="M 3359 331 
L 3909 331 
L 3909 0 
L 2784 0 
L 2784 519 
Q 2616 206 2355 57 
Q 2094 -91 1709 -91 
Q 1097 -91 708 395 
Q 319 881 319 1663 
Q 319 2444 706 2928 
Q 1094 3413 1709 3413 
Q 2094 3413 2355 3264 
Q 2616 3116 2784 2803 
L 2784 4531 
L 2241 4531 
L 2241 4863 
L 3359 4863 
L 3359 331 
z
M 2784 1497 
L 2784 1825 
Q 2784 2422 2554 2737 
Q 2325 3053 1888 3053 
Q 1444 3053 1217 2703 
Q 991 2353 991 1663 
Q 991 975 1217 622 
Q 1444 269 1888 269 
Q 2325 269 2554 583 
Q 2784 897 2784 1497 
z
" id="DejaVuSerif-64" transform="scale(0.015625)"/>
       </defs>
       <use xlink:href="#DejaVuSerif-53"/>
       <use x="68.505859" xlink:href="#DejaVuSerif-77"/>
       <use x="154.101562" xlink:href="#DejaVuSerif-69"/>
       <use x="186.083984" xlink:href="#DejaVuSerif-74"/>
       <use x="226.269531" xlink:href="#DejaVuSerif-7a"/>
       <use x="278.955078" xlink:href="#DejaVuSerif-65"/>
       <use x="338.134766" xlink:href="#DejaVuSerif-72"/>
       <use x="385.9375" xlink:href="#DejaVuSerif-6c"/>
       <use x="417.919922" xlink:href="#DejaVuSerif-61"/>
       <use x="477.539062" xlink:href="#DejaVuSerif-6e"/>
       <use x="541.943359" xlink:href="#DejaVuSerif-64"/>
      </g>
     </g>
    </g>
    <g id="xtick_2">
     <g id="line2d_2">
      <g>
       <use style="stroke:#000000;stroke-width:1.875;" x="95.218568" xlink:href="#m81c96f92cc" y="150.3025"/>
      </g>
     </g>
     <g id="text_2">
      <!-- Russia -->
      <g transform="translate(97.564036 191.187187)rotate(-90)scale(0.085 -0.085)">
       <defs>
        <path d="M 3066 2316 
Q 3284 2256 3442 2114 
Q 3600 1972 3725 1716 
L 4403 331 
L 4972 331 
L 4972 0 
L 3872 0 
L 3144 1484 
Q 2934 1916 2759 2042 
Q 2584 2169 2278 2169 
L 1581 2169 
L 1581 331 
L 2241 331 
L 2241 0 
L 353 0 
L 353 331 
L 947 331 
L 947 4331 
L 353 4331 
L 353 4666 
L 2719 4666 
Q 3400 4666 3770 4341 
Q 4141 4016 4141 3419 
Q 4141 2938 3870 2661 
Q 3600 2384 3066 2316 
z
M 1581 2503 
L 2503 2503 
Q 2975 2503 3200 2726 
Q 3425 2950 3425 3419 
Q 3425 3888 3200 4109 
Q 2975 4331 2503 4331 
L 1581 4331 
L 1581 2503 
z
" id="DejaVuSerif-52" transform="scale(0.015625)"/>
        <path d="M 2266 3322 
L 3341 3322 
L 3341 331 
L 3884 331 
L 3884 0 
L 2766 0 
L 2766 588 
Q 2606 256 2353 82 
Q 2100 -91 1766 -91 
Q 1213 -91 952 223 
Q 691 538 691 1209 
L 691 2988 
L 172 2988 
L 172 3322 
L 1269 3322 
L 1269 1388 
Q 1269 781 1417 556 
Q 1566 331 1947 331 
Q 2347 331 2556 625 
Q 2766 919 2766 1478 
L 2766 2988 
L 2266 2988 
L 2266 3322 
z
" id="DejaVuSerif-75" transform="scale(0.015625)"/>
        <path d="M 359 184 
L 359 959 
L 691 959 
Q 703 588 923 403 
Q 1144 219 1575 219 
Q 1963 219 2166 364 
Q 2369 509 2369 788 
Q 2369 1006 2220 1140 
Q 2072 1275 1594 1428 
L 1178 1569 
Q 750 1706 558 1912 
Q 366 2119 366 2438 
Q 366 2894 700 3153 
Q 1034 3413 1625 3413 
Q 1888 3413 2178 3344 
Q 2469 3275 2778 3144 
L 2778 2419 
L 2447 2419 
Q 2434 2741 2221 2922 
Q 2009 3103 1644 3103 
Q 1281 3103 1095 2975 
Q 909 2847 909 2591 
Q 909 2381 1050 2254 
Q 1191 2128 1613 1997 
L 2069 1856 
Q 2541 1709 2748 1489 
Q 2956 1269 2956 922 
Q 2956 450 2595 179 
Q 2234 -91 1600 -91 
Q 1278 -91 972 -22 
Q 666 47 359 184 
z
" id="DejaVuSerif-73" transform="scale(0.015625)"/>
       </defs>
       <use xlink:href="#DejaVuSerif-52"/>
       <use x="75.292969" xlink:href="#DejaVuSerif-75"/>
       <use x="139.697266" xlink:href="#DejaVuSerif-73"/>
       <use x="191.015625" xlink:href="#DejaVuSerif-73"/>
       <use x="242.333984" xlink:href="#DejaVuSerif-69"/>
       <use x="274.316406" xlink:href="#DejaVuSerif-61"/>
      </g>
     </g>
    </g>
    <g id="xtick_3">
     <g id="line2d_3">
      <g>
       <use style="stroke:#000000;stroke-width:1.875;" x="106.836863" xlink:href="#m81c96f92cc" y="150.3025"/>
      </g>
     </g>
     <g id="text_3">
      <!-- China -->
      <g transform="translate(109.182331 188.042187)rotate(-90)scale(0.085 -0.085)">
       <defs>
        <path d="M 4513 1234 
Q 4306 581 3820 245 
Q 3334 -91 2591 -91 
Q 2134 -91 1743 65 
Q 1353 222 1050 525 
Q 700 875 529 1320 
Q 359 1766 359 2328 
Q 359 3416 987 4083 
Q 1616 4750 2644 4750 
Q 3025 4750 3456 4650 
Q 3888 4550 4384 4347 
L 4384 3272 
L 4031 3272 
Q 3916 3859 3567 4137 
Q 3219 4416 2591 4416 
Q 1844 4416 1459 3886 
Q 1075 3356 1075 2328 
Q 1075 1303 1459 773 
Q 1844 244 2591 244 
Q 3113 244 3450 492 
Q 3788 741 3938 1234 
L 4513 1234 
z
" id="DejaVuSerif-43" transform="scale(0.015625)"/>
        <path d="M 263 0 
L 263 331 
L 781 331 
L 781 4531 
L 231 4531 
L 231 4863 
L 1356 4863 
L 1356 2731 
Q 1516 3069 1770 3241 
Q 2025 3413 2363 3413 
Q 2913 3413 3172 3097 
Q 3431 2781 3431 2113 
L 3431 331 
L 3944 331 
L 3944 0 
L 2356 0 
L 2356 331 
L 2853 331 
L 2853 1931 
Q 2853 2541 2704 2764 
Q 2556 2988 2175 2988 
Q 1775 2988 1565 2697 
Q 1356 2406 1356 1850 
L 1356 331 
L 1856 331 
L 1856 0 
L 263 0 
z
" id="DejaVuSerif-68" transform="scale(0.015625)"/>
       </defs>
       <use xlink:href="#DejaVuSerif-43"/>
       <use x="76.513672" xlink:href="#DejaVuSerif-68"/>
       <use x="140.917969" xlink:href="#DejaVuSerif-69"/>
       <use x="172.900391" xlink:href="#DejaVuSerif-6e"/>
       <use x="237.304688" xlink:href="#DejaVuSerif-61"/>
      </g>
     </g>
    </g>
    <g id="xtick_4">
     <g id="line2d_4">
      <g>
       <use style="stroke:#000000;stroke-width:1.875;" x="118.455158" xlink:href="#m81c96f92cc" y="150.3025"/>
      </g>
     </g>
     <g id="text_4">
      <!-- Canada -->
      <g transform="translate(120.800626 195.426562)rotate(-90)scale(0.085 -0.085)">
       <use xlink:href="#DejaVuSerif-43"/>
       <use x="76.513672" xlink:href="#DejaVuSerif-61"/>
       <use x="136.132812" xlink:href="#DejaVuSerif-6e"/>
       <use x="200.537109" xlink:href="#DejaVuSerif-61"/>
       <use x="260.15625" xlink:href="#DejaVuSerif-64"/>
       <use x="324.169922" xlink:href="#DejaVuSerif-61"/>
      </g>
     </g>
    </g>
    <g id="xtick_5">
     <g id="line2d_5">
      <g>
       <use style="stroke:#000000;stroke-width:1.875;" x="130.073453" xlink:href="#m81c96f92cc" y="150.3025"/>
      </g>
     </g>
     <g id="text_5">
      <!-- Japan -->
      <g transform="translate(132.418921 187.262578)rotate(-90)scale(0.085 -0.085)">
       <defs>
        <path d="M -538 -1119 
L -538 -384 
L -181 -384 
Q -172 -694 -34 -845 
Q 103 -997 378 -997 
Q 750 -997 897 -762 
Q 1044 -528 1044 153 
L 1044 4331 
L 319 4331 
L 319 4666 
L 2272 4666 
L 2272 4331 
L 1678 4331 
L 1678 128 
Q 1678 -644 1368 -987 
Q 1059 -1331 372 -1331 
Q 150 -1331 -79 -1278 
Q -309 -1225 -538 -1119 
z
" id="DejaVuSerif-4a" transform="scale(0.015625)"/>
        <path d="M 1313 1825 
L 1313 1497 
Q 1313 897 1542 583 
Q 1772 269 2209 269 
Q 2650 269 2876 622 
Q 3103 975 3103 1663 
Q 3103 2353 2876 2703 
Q 2650 3053 2209 3053 
Q 1772 3053 1542 2737 
Q 1313 2422 1313 1825 
z
M 738 2988 
L 184 2988 
L 184 3322 
L 1313 3322 
L 1313 2803 
Q 1481 3116 1742 3264 
Q 2003 3413 2388 3413 
Q 3000 3413 3387 2928 
Q 3775 2444 3775 1663 
Q 3775 881 3387 395 
Q 3000 -91 2388 -91 
Q 2003 -91 1742 57 
Q 1481 206 1313 519 
L 1313 -997 
L 1856 -997 
L 1856 -1331 
L 184 -1331 
L 184 -997 
L 738 -997 
L 738 2988 
z
" id="DejaVuSerif-70" transform="scale(0.015625)"/>
       </defs>
       <use xlink:href="#DejaVuSerif-4a"/>
       <use x="40.087891" xlink:href="#DejaVuSerif-61"/>
       <use x="99.707031" xlink:href="#DejaVuSerif-70"/>
       <use x="163.720703" xlink:href="#DejaVuSerif-61"/>
       <use x="223.339844" xlink:href="#DejaVuSerif-6e"/>
      </g>
     </g>
    </g>
    <g id="xtick_6">
     <g id="line2d_6">
      <g>
       <use style="stroke:#000000;stroke-width:1.875;" x="141.691748" xlink:href="#m81c96f92cc" y="150.3025"/>
      </g>
     </g>
     <g id="text_6">
      <!-- Brazil -->
      <g transform="translate(144.037216 188.095312)rotate(-90)scale(0.085 -0.085)">
       <defs>
        <path d="M 1581 331 
L 2516 331 
Q 3078 331 3337 575 
Q 3597 819 3597 1350 
Q 3597 1878 3339 2120 
Q 3081 2363 2516 2363 
L 1581 2363 
L 1581 331 
z
M 1581 2694 
L 2375 2694 
Q 2888 2694 3123 2891 
Q 3359 3088 3359 3513 
Q 3359 3941 3123 4136 
Q 2888 4331 2375 4331 
L 1581 4331 
L 1581 2694 
z
M 353 0 
L 353 331 
L 947 331 
L 947 4331 
L 353 4331 
L 353 4666 
L 2656 4666 
Q 3363 4666 3720 4377 
Q 4078 4088 4078 3513 
Q 4078 3097 3829 2850 
Q 3581 2603 3103 2547 
Q 3697 2472 4005 2167 
Q 4313 1863 4313 1350 
Q 4313 656 3875 328 
Q 3438 0 2509 0 
L 353 0 
z
" id="DejaVuSerif-42" transform="scale(0.015625)"/>
       </defs>
       <use xlink:href="#DejaVuSerif-42"/>
       <use x="73.486328" xlink:href="#DejaVuSerif-72"/>
       <use x="121.289062" xlink:href="#DejaVuSerif-61"/>
       <use x="180.908203" xlink:href="#DejaVuSerif-7a"/>
       <use x="233.59375" xlink:href="#DejaVuSerif-69"/>
       <use x="265.576172" xlink:href="#DejaVuSerif-6c"/>
      </g>
     </g>
    </g>
    <g id="xtick_7">
     <g id="line2d_7">
      <g>
       <use style="stroke:#000000;stroke-width:1.875;" x="153.310043" xlink:href="#m81c96f92cc" y="150.3025"/>
      </g>
     </g>
     <g id="text_7">
      <!-- Israel -->
      <g transform="translate(155.655511 187.402031)rotate(-90)scale(0.085 -0.085)">
       <defs>
        <path d="M 1581 331 
L 2175 331 
L 2175 0 
L 353 0 
L 353 331 
L 947 331 
L 947 4331 
L 353 4331 
L 353 4666 
L 2175 4666 
L 2175 4331 
L 1581 4331 
L 1581 331 
z
" id="DejaVuSerif-49" transform="scale(0.015625)"/>
       </defs>
       <use xlink:href="#DejaVuSerif-49"/>
       <use x="39.501953" xlink:href="#DejaVuSerif-73"/>
       <use x="90.820312" xlink:href="#DejaVuSerif-72"/>
       <use x="138.623047" xlink:href="#DejaVuSerif-61"/>
       <use x="198.242188" xlink:href="#DejaVuSerif-65"/>
       <use x="257.421875" xlink:href="#DejaVuSerif-6c"/>
      </g>
     </g>
    </g>
    <g id="xtick_8">
     <g id="line2d_8">
      <g>
       <use style="stroke:#000000;stroke-width:1.875;" x="164.928338" xlink:href="#m81c96f92cc" y="150.3025"/>
      </g>
     </g>
     <g id="text_8">
      <!-- India -->
      <g transform="translate(167.273807 184.862656)rotate(-90)scale(0.085 -0.085)">
       <use xlink:href="#DejaVuSerif-49"/>
       <use x="39.501953" xlink:href="#DejaVuSerif-6e"/>
       <use x="103.90625" xlink:href="#DejaVuSerif-64"/>
       <use x="167.919922" xlink:href="#DejaVuSerif-69"/>
       <use x="199.902344" xlink:href="#DejaVuSerif-61"/>
      </g>
     </g>
    </g>
    <g id="xtick_9">
     <g id="line2d_9">
      <g>
       <use style="stroke:#000000;stroke-width:1.875;" x="176.546633" xlink:href="#m81c96f92cc" y="150.3025"/>
      </g>
     </g>
     <g id="text_9">
      <!-- Australia -->
      <g transform="translate(178.892102 201.829453)rotate(-90)scale(0.085 -0.085)">
       <defs>
        <path d="M 1281 1691 
L 2994 1691 
L 2138 3909 
L 1281 1691 
z
M -38 0 
L -38 331 
L 372 331 
L 2034 4666 
L 2559 4666 
L 4225 331 
L 4684 331 
L 4684 0 
L 2988 0 
L 2988 331 
L 3506 331 
L 3116 1356 
L 1153 1356 
L 763 331 
L 1275 331 
L 1275 0 
L -38 0 
z
" id="DejaVuSerif-41" transform="scale(0.015625)"/>
       </defs>
       <use xlink:href="#DejaVuSerif-41"/>
       <use x="72.216797" xlink:href="#DejaVuSerif-75"/>
       <use x="136.621094" xlink:href="#DejaVuSerif-73"/>
       <use x="187.939453" xlink:href="#DejaVuSerif-74"/>
       <use x="228.125" xlink:href="#DejaVuSerif-72"/>
       <use x="275.927734" xlink:href="#DejaVuSerif-61"/>
       <use x="335.546875" xlink:href="#DejaVuSerif-6c"/>
       <use x="367.529297" xlink:href="#DejaVuSerif-69"/>
       <use x="399.511719" xlink:href="#DejaVuSerif-61"/>
      </g>
     </g>
    </g>
    <g id="xtick_10">
     <g id="line2d_10">
      <g>
       <use style="stroke:#000000;stroke-width:1.875;" x="188.164928" xlink:href="#m81c96f92cc" y="150.3025"/>
      </g>
     </g>
     <g id="text_10">
      <!-- Turkey -->
      <g transform="translate(190.449967 192.993437)rotate(-90)scale(0.085 -0.085)">
       <defs>
        <path d="M 1222 0 
L 1222 331 
L 1819 331 
L 1819 4294 
L 447 4294 
L 447 3566 
L 63 3566 
L 63 4666 
L 4206 4666 
L 4206 3566 
L 3822 3566 
L 3822 4294 
L 2450 4294 
L 2450 331 
L 3047 331 
L 3047 0 
L 1222 0 
z
" id="DejaVuSerif-54" transform="scale(0.015625)"/>
        <path d="M 1831 0 
L 219 0 
L 219 331 
L 738 331 
L 738 4531 
L 184 4531 
L 184 4863 
L 1313 4863 
L 1313 1697 
L 2713 2988 
L 2234 2988 
L 2234 3322 
L 3738 3322 
L 3738 2988 
L 3169 2988 
L 2181 2075 
L 3444 331 
L 3922 331 
L 3922 0 
L 2284 0 
L 2284 331 
L 2759 331 
L 1766 1697 
L 1313 1275 
L 1313 331 
L 1831 331 
L 1831 0 
z
" id="DejaVuSerif-6b" transform="scale(0.015625)"/>
        <path d="M 1381 -609 
L 1600 -56 
L 359 2988 
L -19 2988 
L -19 3322 
L 1509 3322 
L 1509 2988 
L 978 2988 
L 1913 703 
L 2847 2988 
L 2350 2988 
L 2350 3322 
L 3597 3322 
L 3597 2988 
L 3225 2988 
L 1703 -750 
Q 1547 -1138 1356 -1280 
Q 1166 -1422 819 -1422 
Q 672 -1422 517 -1397 
Q 363 -1372 206 -1325 
L 206 -691 
L 500 -691 
Q 519 -903 608 -995 
Q 697 -1088 884 -1088 
Q 1056 -1088 1161 -992 
Q 1266 -897 1381 -609 
z
" id="DejaVuSerif-79" transform="scale(0.015625)"/>
       </defs>
       <use xlink:href="#DejaVuSerif-54"/>
       <use x="66.699219" xlink:href="#DejaVuSerif-75"/>
       <use x="131.103516" xlink:href="#DejaVuSerif-72"/>
       <use x="178.90625" xlink:href="#DejaVuSerif-6b"/>
       <use x="239.501953" xlink:href="#DejaVuSerif-65"/>
       <use x="298.681641" xlink:href="#DejaVuSerif-79"/>
      </g>
     </g>
    </g>
    <g id="xtick_11">
     <g id="line2d_11">
      <g>
       <use style="stroke:#000000;stroke-width:1.875;" x="199.783223" xlink:href="#m81c96f92cc" y="150.3025"/>
      </g>
     </g>
     <g id="text_11">
      <!-- South Korea -->
      <g transform="translate(202.128692 216.214375)rotate(-90)scale(0.085 -0.085)">
       <defs>
        <path d="M 1925 219 
Q 2388 219 2623 584 
Q 2859 950 2859 1663 
Q 2859 2375 2623 2739 
Q 2388 3103 1925 3103 
Q 1463 3103 1227 2739 
Q 991 2375 991 1663 
Q 991 950 1228 584 
Q 1466 219 1925 219 
z
M 1925 -91 
Q 1200 -91 759 389 
Q 319 869 319 1663 
Q 319 2456 758 2934 
Q 1197 3413 1925 3413 
Q 2653 3413 3092 2934 
Q 3531 2456 3531 1663 
Q 3531 869 3092 389 
Q 2653 -91 1925 -91 
z
" id="DejaVuSerif-6f" transform="scale(0.015625)"/>
        <path id="DejaVuSerif-20" transform="scale(0.015625)"/>
        <path d="M 353 0 
L 353 331 
L 947 331 
L 947 4331 
L 353 4331 
L 353 4666 
L 2175 4666 
L 2175 4331 
L 1581 4331 
L 1581 2566 
L 3591 4331 
L 3084 4331 
L 3084 4666 
L 4634 4666 
L 4634 4331 
L 4109 4331 
L 2106 2572 
L 4347 331 
L 4878 331 
L 4878 0 
L 3794 0 
L 1581 2216 
L 1581 331 
L 2175 331 
L 2175 0 
L 353 0 
z
" id="DejaVuSerif-4b" transform="scale(0.015625)"/>
       </defs>
       <use xlink:href="#DejaVuSerif-53"/>
       <use x="68.505859" xlink:href="#DejaVuSerif-6f"/>
       <use x="128.710938" xlink:href="#DejaVuSerif-75"/>
       <use x="193.115234" xlink:href="#DejaVuSerif-74"/>
       <use x="233.300781" xlink:href="#DejaVuSerif-68"/>
       <use x="297.705078" xlink:href="#DejaVuSerif-20"/>
       <use x="329.492188" xlink:href="#DejaVuSerif-4b"/>
       <use x="401.574219" xlink:href="#DejaVuSerif-6f"/>
       <use x="461.779297" xlink:href="#DejaVuSerif-72"/>
       <use x="509.582031" xlink:href="#DejaVuSerif-65"/>
       <use x="568.761719" xlink:href="#DejaVuSerif-61"/>
      </g>
     </g>
    </g>
    <g id="xtick_12">
     <g id="line2d_12">
      <g>
       <use style="stroke:#000000;stroke-width:1.875;" x="211.401518" xlink:href="#m81c96f92cc" y="150.3025"/>
      </g>
     </g>
     <g id="text_12">
      <!-- Norway -->
      <g transform="translate(213.626127 196.566094)rotate(-90)scale(0.085 -0.085)">
       <defs>
        <path d="M 313 0 
L 313 331 
L 941 331 
L 941 4331 
L 313 4331 
L 313 4666 
L 1509 4666 
L 4306 984 
L 4306 4331 
L 3681 4331 
L 3681 4666 
L 5319 4666 
L 5319 4331 
L 4691 4331 
L 4691 -91 
L 4313 -91 
L 1325 3841 
L 1325 331 
L 1953 331 
L 1953 0 
L 313 0 
z
" id="DejaVuSerif-4e" transform="scale(0.015625)"/>
       </defs>
       <use xlink:href="#DejaVuSerif-4e"/>
       <use x="87.5" xlink:href="#DejaVuSerif-6f"/>
       <use x="147.705078" xlink:href="#DejaVuSerif-72"/>
       <use x="195.507812" xlink:href="#DejaVuSerif-77"/>
       <use x="281.103516" xlink:href="#DejaVuSerif-61"/>
       <use x="340.722656" xlink:href="#DejaVuSerif-79"/>
      </g>
     </g>
    </g>
    <g id="xtick_13">
     <g id="line2d_13">
      <g>
       <use style="stroke:#000000;stroke-width:1.875;" x="223.019813" xlink:href="#m81c96f92cc" y="150.3025"/>
      </g>
     </g>
     <g id="text_13">
      <!-- Taiwan -->
      <g transform="translate(225.365282 193.418437)rotate(-90)scale(0.085 -0.085)">
       <use xlink:href="#DejaVuSerif-54"/>
       <use x="58.949219" xlink:href="#DejaVuSerif-61"/>
       <use x="118.568359" xlink:href="#DejaVuSerif-69"/>
       <use x="150.550781" xlink:href="#DejaVuSerif-77"/>
       <use x="236.146484" xlink:href="#DejaVuSerif-61"/>
       <use x="295.765625" xlink:href="#DejaVuSerif-6e"/>
      </g>
     </g>
    </g>
    <g id="xtick_14">
     <g id="line2d_14">
      <g>
       <use style="stroke:#000000;stroke-width:1.875;" x="234.638108" xlink:href="#m81c96f92cc" y="150.3025"/>
      </g>
     </g>
     <g id="text_14">
      <!-- South Africa -->
      <g transform="translate(236.983577 216.554375)rotate(-90)scale(0.085 -0.085)">
       <defs>
        <path d="M 2753 4078 
L 2450 4078 
Q 2447 4313 2317 4434 
Q 2188 4556 1941 4556 
Q 1619 4556 1487 4379 
Q 1356 4203 1356 3750 
L 1356 3322 
L 2284 3322 
L 2284 2988 
L 1356 2988 
L 1356 331 
L 2094 331 
L 2094 0 
L 231 0 
L 231 331 
L 781 331 
L 781 2988 
L 231 2988 
L 231 3322 
L 781 3322 
L 781 3738 
Q 781 4294 1070 4578 
Q 1359 4863 1919 4863 
Q 2128 4863 2337 4825 
Q 2547 4788 2753 4709 
L 2753 4078 
z
" id="DejaVuSerif-66" transform="scale(0.015625)"/>
        <path d="M 3291 997 
Q 3169 466 2822 187 
Q 2475 -91 1925 -91 
Q 1200 -91 759 389 
Q 319 869 319 1663 
Q 319 2459 759 2936 
Q 1200 3413 1925 3413 
Q 2241 3413 2553 3339 
Q 2866 3266 3181 3116 
L 3181 2266 
L 2847 2266 
Q 2781 2703 2561 2903 
Q 2341 3103 1931 3103 
Q 1466 3103 1228 2742 
Q 991 2381 991 1663 
Q 991 944 1227 581 
Q 1463 219 1931 219 
Q 2303 219 2525 412 
Q 2747 606 2828 997 
L 3291 997 
z
" id="DejaVuSerif-63" transform="scale(0.015625)"/>
       </defs>
       <use xlink:href="#DejaVuSerif-53"/>
       <use x="68.505859" xlink:href="#DejaVuSerif-6f"/>
       <use x="128.710938" xlink:href="#DejaVuSerif-75"/>
       <use x="193.115234" xlink:href="#DejaVuSerif-74"/>
       <use x="233.300781" xlink:href="#DejaVuSerif-68"/>
       <use x="297.705078" xlink:href="#DejaVuSerif-20"/>
       <use x="329.492188" xlink:href="#DejaVuSerif-41"/>
       <use x="399.958984" xlink:href="#DejaVuSerif-66"/>
       <use x="436.970703" xlink:href="#DejaVuSerif-72"/>
       <use x="484.773438" xlink:href="#DejaVuSerif-69"/>
       <use x="516.755859" xlink:href="#DejaVuSerif-63"/>
       <use x="572.761719" xlink:href="#DejaVuSerif-61"/>
      </g>
     </g>
    </g>
    <g id="xtick_15">
     <g id="line2d_15">
      <g>
       <use style="stroke:#000000;stroke-width:1.875;" x="246.256403" xlink:href="#m81c96f92cc" y="150.3025"/>
      </g>
     </g>
     <g id="text_15">
      <!-- Mexico -->
      <g transform="translate(248.601872 193.925781)rotate(-90)scale(0.085 -0.085)">
       <defs>
        <path d="M 353 0 
L 353 331 
L 947 331 
L 947 4331 
L 319 4331 
L 319 4666 
L 1678 4666 
L 3316 1344 
L 4953 4666 
L 6228 4666 
L 6228 4331 
L 5606 4331 
L 5606 331 
L 6203 331 
L 6203 0 
L 4378 0 
L 4378 331 
L 4972 331 
L 4972 3938 
L 3372 684 
L 2931 684 
L 1331 3938 
L 1331 331 
L 1925 331 
L 1925 0 
L 353 0 
z
" id="DejaVuSerif-4d" transform="scale(0.015625)"/>
        <path d="M 1863 2028 
L 2559 2988 
L 2113 2988 
L 2113 3322 
L 3391 3322 
L 3391 2988 
L 2950 2988 
L 2059 1759 
L 3097 331 
L 3531 331 
L 3531 0 
L 1997 0 
L 1997 331 
L 2419 331 
L 1697 1325 
L 972 331 
L 1403 331 
L 1403 0 
L 141 0 
L 141 331 
L 581 331 
L 1497 1594 
L 488 2988 
L 78 2988 
L 78 3322 
L 1563 3322 
L 1563 2988 
L 1166 2988 
L 1863 2028 
z
" id="DejaVuSerif-78" transform="scale(0.015625)"/>
       </defs>
       <use xlink:href="#DejaVuSerif-4d"/>
       <use x="102.392578" xlink:href="#DejaVuSerif-65"/>
       <use x="161.572266" xlink:href="#DejaVuSerif-78"/>
       <use x="217.96875" xlink:href="#DejaVuSerif-69"/>
       <use x="249.951172" xlink:href="#DejaVuSerif-63"/>
       <use x="305.957031" xlink:href="#DejaVuSerif-6f"/>
      </g>
     </g>
    </g>
    <g id="xtick_16">
     <g id="line2d_16">
      <g>
       <use style="stroke:#000000;stroke-width:1.875;" x="257.874698" xlink:href="#m81c96f92cc" y="150.3025"/>
      </g>
     </g>
     <g id="text_16">
      <!-- Chile -->
      <g transform="translate(260.220167 185.249141)rotate(-90)scale(0.085 -0.085)">
       <use xlink:href="#DejaVuSerif-43"/>
       <use x="76.513672" xlink:href="#DejaVuSerif-68"/>
       <use x="140.917969" xlink:href="#DejaVuSerif-69"/>
       <use x="172.900391" xlink:href="#DejaVuSerif-6c"/>
       <use x="204.882812" xlink:href="#DejaVuSerif-65"/>
      </g>
     </g>
    </g>
    <g id="xtick_17">
     <g id="line2d_17">
      <g>
       <use style="stroke:#000000;stroke-width:1.875;" x="269.492993" xlink:href="#m81c96f92cc" y="150.3025"/>
      </g>
     </g>
     <g id="text_17">
      <!-- Argentina -->
      <g transform="translate(271.717602 205.627891)rotate(-90)scale(0.085 -0.085)">
       <defs>
        <path d="M 3359 2988 
L 3359 72 
Q 3359 -644 2965 -1033 
Q 2572 -1422 1844 -1422 
Q 1516 -1422 1216 -1362 
Q 916 -1303 641 -1184 
L 641 -488 
L 941 -488 
Q 997 -813 1206 -963 
Q 1416 -1113 1806 -1113 
Q 2313 -1113 2548 -827 
Q 2784 -541 2784 72 
L 2784 519 
Q 2616 206 2355 57 
Q 2094 -91 1709 -91 
Q 1097 -91 708 395 
Q 319 881 319 1663 
Q 319 2444 706 2928 
Q 1094 3413 1709 3413 
Q 2094 3413 2355 3264 
Q 2616 3116 2784 2803 
L 2784 3322 
L 3909 3322 
L 3909 2988 
L 3359 2988 
z
M 2784 1825 
Q 2784 2422 2554 2737 
Q 2325 3053 1888 3053 
Q 1444 3053 1217 2703 
Q 991 2353 991 1663 
Q 991 975 1217 622 
Q 1444 269 1888 269 
Q 2325 269 2554 583 
Q 2784 897 2784 1497 
L 2784 1825 
z
" id="DejaVuSerif-67" transform="scale(0.015625)"/>
       </defs>
       <use xlink:href="#DejaVuSerif-41"/>
       <use x="72.216797" xlink:href="#DejaVuSerif-72"/>
       <use x="120.019531" xlink:href="#DejaVuSerif-67"/>
       <use x="184.033203" xlink:href="#DejaVuSerif-65"/>
       <use x="243.212891" xlink:href="#DejaVuSerif-6e"/>
       <use x="307.617188" xlink:href="#DejaVuSerif-74"/>
       <use x="347.802734" xlink:href="#DejaVuSerif-69"/>
       <use x="379.785156" xlink:href="#DejaVuSerif-6e"/>
       <use x="444.189453" xlink:href="#DejaVuSerif-61"/>
      </g>
     </g>
    </g>
    <g id="xtick_18">
     <g id="line2d_18">
      <g>
       <use style="stroke:#000000;stroke-width:1.875;" x="281.111288" xlink:href="#m81c96f92cc" y="150.3025"/>
      </g>
     </g>
     <g id="text_18">
      <!-- Serbia -->
      <g transform="translate(283.456757 190.946797)rotate(-90)scale(0.085 -0.085)">
       <defs>
        <path d="M 738 331 
L 738 4531 
L 184 4531 
L 184 4863 
L 1313 4863 
L 1313 2803 
Q 1481 3116 1742 3264 
Q 2003 3413 2388 3413 
Q 3000 3413 3387 2928 
Q 3775 2444 3775 1663 
Q 3775 881 3387 395 
Q 3000 -91 2388 -91 
Q 2003 -91 1742 57 
Q 1481 206 1313 519 
L 1313 0 
L 184 0 
L 184 331 
L 738 331 
z
M 1313 1497 
Q 1313 897 1542 583 
Q 1772 269 2209 269 
Q 2650 269 2876 622 
Q 3103 975 3103 1663 
Q 3103 2353 2876 2703 
Q 2650 3053 2209 3053 
Q 1772 3053 1542 2737 
Q 1313 2422 1313 1825 
L 1313 1497 
z
" id="DejaVuSerif-62" transform="scale(0.015625)"/>
       </defs>
       <use xlink:href="#DejaVuSerif-53"/>
       <use x="68.505859" xlink:href="#DejaVuSerif-65"/>
       <use x="127.685547" xlink:href="#DejaVuSerif-72"/>
       <use x="175.488281" xlink:href="#DejaVuSerif-62"/>
       <use x="239.501953" xlink:href="#DejaVuSerif-69"/>
       <use x="271.484375" xlink:href="#DejaVuSerif-61"/>
      </g>
     </g>
    </g>
    <g id="xtick_19">
     <g id="line2d_19">
      <g>
       <use style="stroke:#000000;stroke-width:1.875;" x="292.729583" xlink:href="#m81c96f92cc" y="150.3025"/>
      </g>
     </g>
     <g id="text_19">
      <!-- Georgia -->
      <g transform="translate(294.954193 197.032266)rotate(-90)scale(0.085 -0.085)">
       <defs>
        <path d="M 4097 3272 
Q 3988 3856 3641 4136 
Q 3294 4416 2675 4416 
Q 1869 4416 1472 3897 
Q 1075 3378 1075 2328 
Q 1075 1300 1484 772 
Q 1894 244 2688 244 
Q 3041 244 3362 331 
Q 3684 419 3975 594 
L 3975 1797 
L 3097 1797 
L 3097 2131 
L 4609 2131 
L 4609 391 
Q 4194 150 3714 29 
Q 3234 -91 2688 -91 
Q 1631 -91 995 570 
Q 359 1231 359 2328 
Q 359 3434 996 4092 
Q 1634 4750 2713 4750 
Q 3113 4750 3539 4658 
Q 3966 4566 4447 4378 
L 4447 3272 
L 4097 3272 
z
" id="DejaVuSerif-47" transform="scale(0.015625)"/>
       </defs>
       <use xlink:href="#DejaVuSerif-47"/>
       <use x="79.882812" xlink:href="#DejaVuSerif-65"/>
       <use x="139.0625" xlink:href="#DejaVuSerif-6f"/>
       <use x="199.267578" xlink:href="#DejaVuSerif-72"/>
       <use x="247.070312" xlink:href="#DejaVuSerif-67"/>
       <use x="311.083984" xlink:href="#DejaVuSerif-69"/>
       <use x="343.066406" xlink:href="#DejaVuSerif-61"/>
      </g>
     </g>
    </g>
    <g id="xtick_20">
     <g id="line2d_20">
      <g>
       <use style="stroke:#000000;stroke-width:1.875;" x="304.347878" xlink:href="#m81c96f92cc" y="150.3025"/>
      </g>
     </g>
     <g id="text_20">
      <!-- Pakistan -->
      <g transform="translate(306.693347 199.396328)rotate(-90)scale(0.085 -0.085)">
       <defs>
        <path d="M 1581 2375 
L 2406 2375 
Q 2872 2375 3115 2626 
Q 3359 2878 3359 3353 
Q 3359 3831 3115 4081 
Q 2872 4331 2406 4331 
L 1581 4331 
L 1581 2375 
z
M 353 0 
L 353 331 
L 947 331 
L 947 4331 
L 353 4331 
L 353 4666 
L 2559 4666 
Q 3259 4666 3668 4311 
Q 4078 3956 4078 3353 
Q 4078 2753 3668 2397 
Q 3259 2041 2559 2041 
L 1581 2041 
L 1581 331 
L 2303 331 
L 2303 0 
L 353 0 
z
" id="DejaVuSerif-50" transform="scale(0.015625)"/>
       </defs>
       <use xlink:href="#DejaVuSerif-50"/>
       <use x="62.785156" xlink:href="#DejaVuSerif-61"/>
       <use x="122.404297" xlink:href="#DejaVuSerif-6b"/>
       <use x="183" xlink:href="#DejaVuSerif-69"/>
       <use x="214.982422" xlink:href="#DejaVuSerif-73"/>
       <use x="266.300781" xlink:href="#DejaVuSerif-74"/>
       <use x="306.486328" xlink:href="#DejaVuSerif-61"/>
       <use x="366.105469" xlink:href="#DejaVuSerif-6e"/>
      </g>
     </g>
    </g>
   </g>
   <g id="matplotlib.axis_2">
    <g id="ytick_1">
     <g id="line2d_21">
      <defs>
       <path d="M 0 0 
L -9 0 
" id="m09a24a817f" style="stroke:#000000;stroke-width:1.875;"/>
      </defs>
      <g>
       <use style="stroke:#000000;stroke-width:1.875;" x="77.791125" xlink:href="#m09a24a817f" y="116.791374"/>
      </g>
     </g>
     <g id="text_21">
      <!-- $\mathdefault{10^{5}}$ -->
      <g transform="translate(36.251125 123.060085)scale(0.165 -0.165)">
       <defs>
        <path d="M 909 0 
L 909 331 
L 1722 331 
L 1722 4213 
L 781 3603 
L 781 4013 
L 1919 4750 
L 2350 4750 
L 2350 331 
L 3163 331 
L 3163 0 
L 909 0 
z
" id="DejaVuSerif-31" transform="scale(0.015625)"/>
        <path d="M 2034 219 
Q 2513 219 2750 744 
Q 2988 1269 2988 2328 
Q 2988 3391 2750 3916 
Q 2513 4441 2034 4441 
Q 1556 4441 1318 3916 
Q 1081 3391 1081 2328 
Q 1081 1269 1318 744 
Q 1556 219 2034 219 
z
M 2034 -91 
Q 1275 -91 848 546 
Q 422 1184 422 2328 
Q 422 3475 848 4112 
Q 1275 4750 2034 4750 
Q 2797 4750 3222 4112 
Q 3647 3475 3647 2328 
Q 3647 1184 3222 546 
Q 2797 -91 2034 -91 
z
" id="DejaVuSerif-30" transform="scale(0.015625)"/>
        <path d="M 3219 4666 
L 3219 4153 
L 1081 4153 
L 1081 2816 
Q 1244 2928 1461 2984 
Q 1678 3041 1947 3041 
Q 2703 3041 3140 2622 
Q 3578 2203 3578 1478 
Q 3578 738 3136 323 
Q 2694 -91 1894 -91 
Q 1572 -91 1234 -12 
Q 897 66 544 225 
L 544 1131 
L 897 1131 
Q 925 688 1179 453 
Q 1434 219 1894 219 
Q 2388 219 2653 544 
Q 2919 869 2919 1478 
Q 2919 2084 2655 2407 
Q 2391 2731 1894 2731 
Q 1613 2731 1398 2631 
Q 1184 2531 1019 2322 
L 750 2322 
L 750 4666 
L 3219 4666 
z
" id="DejaVuSerif-35" transform="scale(0.015625)"/>
       </defs>
       <use transform="translate(0 0.63125)" xlink:href="#DejaVuSerif-31"/>
       <use transform="translate(63.623047 0.63125)" xlink:href="#DejaVuSerif-30"/>
       <use transform="translate(128.154453 36.965625)scale(0.7)" xlink:href="#DejaVuSerif-35"/>
      </g>
     </g>
    </g>
    <g id="ytick_2">
     <g id="line2d_22">
      <g>
       <use style="stroke:#000000;stroke-width:1.875;" x="77.791125" xlink:href="#m09a24a817f" y="59.349944"/>
      </g>
     </g>
     <g id="text_22">
      <!-- $\mathdefault{10^{6}}$ -->
      <g transform="translate(36.251125 65.618655)scale(0.165 -0.165)">
       <defs>
        <path d="M 2094 219 
Q 2534 219 2771 542 
Q 3009 866 3009 1472 
Q 3009 2078 2771 2401 
Q 2534 2725 2094 2725 
Q 1647 2725 1412 2412 
Q 1178 2100 1178 1509 
Q 1178 888 1415 553 
Q 1653 219 2094 219 
z
M 1075 2569 
Q 1288 2803 1556 2918 
Q 1825 3034 2163 3034 
Q 2859 3034 3264 2615 
Q 3669 2197 3669 1472 
Q 3669 763 3233 336 
Q 2797 -91 2069 -91 
Q 1278 -91 853 498 
Q 428 1088 428 2181 
Q 428 3406 931 4078 
Q 1434 4750 2350 4750 
Q 2597 4750 2869 4703 
Q 3141 4656 3425 4563 
L 3425 3794 
L 3072 3794 
Q 3034 4109 2831 4275 
Q 2628 4441 2284 4441 
Q 1678 4441 1381 3981 
Q 1084 3522 1075 2569 
z
" id="DejaVuSerif-36" transform="scale(0.015625)"/>
       </defs>
       <use transform="translate(0 0.7125)" xlink:href="#DejaVuSerif-31"/>
       <use transform="translate(63.623047 0.7125)" xlink:href="#DejaVuSerif-30"/>
       <use transform="translate(128.154453 37.046875)scale(0.7)" xlink:href="#DejaVuSerif-36"/>
      </g>
     </g>
    </g>
    <g id="ytick_3">
     <g id="line2d_23">
      <defs>
       <path d="M 0 0 
L -6 0 
" id="md8872e4eae" style="stroke:#000000;stroke-width:1.5;"/>
      </defs>
      <g>
       <use style="stroke:#000000;stroke-width:1.5;" x="77.791125" xlink:href="#md8872e4eae" y="146.826278"/>
      </g>
     </g>
    </g>
    <g id="ytick_4">
     <g id="line2d_24">
      <g>
       <use style="stroke:#000000;stroke-width:1.5;" x="77.791125" xlink:href="#md8872e4eae" y="139.649618"/>
      </g>
     </g>
    </g>
    <g id="ytick_5">
     <g id="line2d_25">
      <g>
       <use style="stroke:#000000;stroke-width:1.5;" x="77.791125" xlink:href="#md8872e4eae" y="134.082968"/>
      </g>
     </g>
    </g>
    <g id="ytick_6">
     <g id="line2d_26">
      <g>
       <use style="stroke:#000000;stroke-width:1.5;" x="77.791125" xlink:href="#md8872e4eae" y="129.534684"/>
      </g>
     </g>
    </g>
    <g id="ytick_7">
     <g id="line2d_27">
      <g>
       <use style="stroke:#000000;stroke-width:1.5;" x="77.791125" xlink:href="#md8872e4eae" y="125.689164"/>
      </g>
     </g>
    </g>
    <g id="ytick_8">
     <g id="line2d_28">
      <g>
       <use style="stroke:#000000;stroke-width:1.5;" x="77.791125" xlink:href="#md8872e4eae" y="122.358024"/>
      </g>
     </g>
    </g>
    <g id="ytick_9">
     <g id="line2d_29">
      <g>
       <use style="stroke:#000000;stroke-width:1.5;" x="77.791125" xlink:href="#md8872e4eae" y="119.41975"/>
      </g>
     </g>
    </g>
    <g id="ytick_10">
     <g id="line2d_30">
      <g>
       <use style="stroke:#000000;stroke-width:1.5;" x="77.791125" xlink:href="#md8872e4eae" y="99.499781"/>
      </g>
     </g>
    </g>
    <g id="ytick_11">
     <g id="line2d_31">
      <g>
       <use style="stroke:#000000;stroke-width:1.5;" x="77.791125" xlink:href="#md8872e4eae" y="89.384847"/>
      </g>
     </g>
    </g>
    <g id="ytick_12">
     <g id="line2d_32">
      <g>
       <use style="stroke:#000000;stroke-width:1.5;" x="77.791125" xlink:href="#md8872e4eae" y="82.208187"/>
      </g>
     </g>
    </g>
    <g id="ytick_13">
     <g id="line2d_33">
      <g>
       <use style="stroke:#000000;stroke-width:1.5;" x="77.791125" xlink:href="#md8872e4eae" y="76.641537"/>
      </g>
     </g>
    </g>
    <g id="ytick_14">
     <g id="line2d_34">
      <g>
       <use style="stroke:#000000;stroke-width:1.5;" x="77.791125" xlink:href="#md8872e4eae" y="72.093253"/>
      </g>
     </g>
    </g>
    <g id="ytick_15">
     <g id="line2d_35">
      <g>
       <use style="stroke:#000000;stroke-width:1.5;" x="77.791125" xlink:href="#md8872e4eae" y="68.247734"/>
      </g>
     </g>
    </g>
    <g id="ytick_16">
     <g id="line2d_36">
      <g>
       <use style="stroke:#000000;stroke-width:1.5;" x="77.791125" xlink:href="#md8872e4eae" y="64.916593"/>
      </g>
     </g>
    </g>
    <g id="ytick_17">
     <g id="line2d_37">
      <g>
       <use style="stroke:#000000;stroke-width:1.5;" x="77.791125" xlink:href="#md8872e4eae" y="61.978319"/>
      </g>
     </g>
    </g>
    <g id="ytick_18">
     <g id="line2d_38">
      <g>
       <use style="stroke:#000000;stroke-width:1.5;" x="77.791125" xlink:href="#md8872e4eae" y="42.05835"/>
      </g>
     </g>
    </g>
    <g id="text_23">
     <!-- frequencies of collaborators  -->
     <g transform="translate(16.318125 182.16)rotate(-90)scale(0.12 -0.12)">
      <defs>
       <path d="M 3359 2988 
L 3359 -997 
L 3909 -997 
L 3909 -1331 
L 2241 -1331 
L 2241 -997 
L 2784 -997 
L 2784 519 
Q 2616 206 2355 57 
Q 2094 -91 1709 -91 
Q 1097 -91 708 395 
Q 319 881 319 1663 
Q 319 2444 706 2928 
Q 1094 3413 1709 3413 
Q 2094 3413 2355 3264 
Q 2616 3116 2784 2803 
L 2784 3322 
L 3909 3322 
L 3909 2988 
L 3359 2988 
z
M 2784 1825 
Q 2784 2422 2554 2737 
Q 2325 3053 1888 3053 
Q 1444 3053 1217 2703 
Q 991 2353 991 1663 
Q 991 975 1217 622 
Q 1444 269 1888 269 
Q 2325 269 2554 583 
Q 2784 897 2784 1497 
L 2784 1825 
z
" id="DejaVuSerif-71" transform="scale(0.015625)"/>
      </defs>
      <use xlink:href="#DejaVuSerif-66"/>
      <use x="37.011719" xlink:href="#DejaVuSerif-72"/>
      <use x="84.814453" xlink:href="#DejaVuSerif-65"/>
      <use x="143.994141" xlink:href="#DejaVuSerif-71"/>
      <use x="208.007812" xlink:href="#DejaVuSerif-75"/>
      <use x="272.412109" xlink:href="#DejaVuSerif-65"/>
      <use x="331.591797" xlink:href="#DejaVuSerif-6e"/>
      <use x="395.996094" xlink:href="#DejaVuSerif-63"/>
      <use x="452.001953" xlink:href="#DejaVuSerif-69"/>
      <use x="483.984375" xlink:href="#DejaVuSerif-65"/>
      <use x="543.164062" xlink:href="#DejaVuSerif-73"/>
      <use x="594.482422" xlink:href="#DejaVuSerif-20"/>
      <use x="626.269531" xlink:href="#DejaVuSerif-6f"/>
      <use x="686.474609" xlink:href="#DejaVuSerif-66"/>
      <use x="723.486328" xlink:href="#DejaVuSerif-20"/>
      <use x="755.273438" xlink:href="#DejaVuSerif-63"/>
      <use x="811.279297" xlink:href="#DejaVuSerif-6f"/>
      <use x="871.484375" xlink:href="#DejaVuSerif-6c"/>
      <use x="903.466797" xlink:href="#DejaVuSerif-6c"/>
      <use x="935.449219" xlink:href="#DejaVuSerif-61"/>
      <use x="995.068359" xlink:href="#DejaVuSerif-62"/>
      <use x="1059.082031" xlink:href="#DejaVuSerif-6f"/>
      <use x="1119.287109" xlink:href="#DejaVuSerif-72"/>
      <use x="1167.089844" xlink:href="#DejaVuSerif-61"/>
      <use x="1226.708984" xlink:href="#DejaVuSerif-74"/>
      <use x="1266.894531" xlink:href="#DejaVuSerif-6f"/>
      <use x="1327.099609" xlink:href="#DejaVuSerif-72"/>
      <use x="1374.902344" xlink:href="#DejaVuSerif-73"/>
      <use x="1426.220703" xlink:href="#DejaVuSerif-20"/>
     </g>
     <!-- (ERC) -->
     <g transform="translate(29.7555 112.850625)rotate(-90)scale(0.12 -0.12)">
      <defs>
       <path d="M 2041 -997 
Q 1281 -656 893 83 
Q 506 822 506 1931 
Q 506 3044 893 3783 
Q 1281 4522 2041 4863 
L 2041 4556 
Q 1559 4225 1350 3623 
Q 1141 3022 1141 1931 
Q 1141 844 1350 242 
Q 1559 -359 2041 -691 
L 2041 -997 
z
" id="DejaVuSerif-28" transform="scale(0.015625)"/>
       <path d="M 353 0 
L 353 331 
L 947 331 
L 947 4331 
L 353 4331 
L 353 4666 
L 4109 4666 
L 4109 3628 
L 3725 3628 
L 3725 4281 
L 1581 4281 
L 1581 2719 
L 3109 2719 
L 3109 3303 
L 3494 3303 
L 3494 1753 
L 3109 1753 
L 3109 2338 
L 1581 2338 
L 1581 384 
L 3775 384 
L 3775 1038 
L 4159 1038 
L 4159 0 
L 353 0 
z
" id="DejaVuSerif-45" transform="scale(0.015625)"/>
       <path d="M 453 -997 
L 453 -691 
Q 934 -359 1145 242 
Q 1356 844 1356 1931 
Q 1356 3022 1145 3623 
Q 934 4225 453 4556 
L 453 4863 
Q 1216 4522 1603 3783 
Q 1991 3044 1991 1931 
Q 1991 822 1603 83 
Q 1216 -656 453 -997 
z
" id="DejaVuSerif-29" transform="scale(0.015625)"/>
      </defs>
      <use xlink:href="#DejaVuSerif-28"/>
      <use x="39.013672" xlink:href="#DejaVuSerif-45"/>
      <use x="112.011719" xlink:href="#DejaVuSerif-52"/>
      <use x="187.304688" xlink:href="#DejaVuSerif-43"/>
      <use x="263.818359" xlink:href="#DejaVuSerif-29"/>
     </g>
    </g>
   </g>
   <g id="line2d_39">
    <path clip-path="url(#p1541a94176)" d="M 0 0 
" style="fill:none;stroke:#424242;stroke-linecap:square;stroke-width:4.05;"/>
   </g>
   <g id="line2d_40">
    <path clip-path="url(#p1541a94176)" d="M 0 0 
" style="fill:none;stroke:#424242;stroke-linecap:square;stroke-width:4.05;"/>
   </g>
   <g id="line2d_41">
    <path clip-path="url(#p1541a94176)" d="M 0 0 
" style="fill:none;stroke:#424242;stroke-linecap:square;stroke-width:4.05;"/>
   </g>
   <g id="line2d_42">
    <path clip-path="url(#p1541a94176)" d="M 0 0 
" style="fill:none;stroke:#424242;stroke-linecap:square;stroke-width:4.05;"/>
   </g>
   <g id="line2d_43">
    <path clip-path="url(#p1541a94176)" d="M 0 0 
" style="fill:none;stroke:#424242;stroke-linecap:square;stroke-width:4.05;"/>
   </g>
   <g id="line2d_44">
    <path clip-path="url(#p1541a94176)" d="M 0 0 
" style="fill:none;stroke:#424242;stroke-linecap:square;stroke-width:4.05;"/>
   </g>
   <g id="line2d_45">
    <path clip-path="url(#p1541a94176)" d="M 0 0 
" style="fill:none;stroke:#424242;stroke-linecap:square;stroke-width:4.05;"/>
   </g>
   <g id="line2d_46">
    <path clip-path="url(#p1541a94176)" d="M 0 0 
" style="fill:none;stroke:#424242;stroke-linecap:square;stroke-width:4.05;"/>
   </g>
   <g id="line2d_47">
    <path clip-path="url(#p1541a94176)" d="M 0 0 
" style="fill:none;stroke:#424242;stroke-linecap:square;stroke-width:4.05;"/>
   </g>
   <g id="line2d_48">
    <path clip-path="url(#p1541a94176)" d="M 0 0 
" style="fill:none;stroke:#424242;stroke-linecap:square;stroke-width:4.05;"/>
   </g>
   <g id="line2d_49">
    <path clip-path="url(#p1541a94176)" d="M 0 0 
" style="fill:none;stroke:#424242;stroke-linecap:square;stroke-width:4.05;"/>
   </g>
   <g id="line2d_50">
    <path clip-path="url(#p1541a94176)" d="M 0 0 
" style="fill:none;stroke:#424242;stroke-linecap:square;stroke-width:4.05;"/>
   </g>
   <g id="line2d_51">
    <path clip-path="url(#p1541a94176)" d="M 0 0 
" style="fill:none;stroke:#424242;stroke-linecap:square;stroke-width:4.05;"/>
   </g>
   <g id="line2d_52">
    <path clip-path="url(#p1541a94176)" d="M 0 0 
" style="fill:none;stroke:#424242;stroke-linecap:square;stroke-width:4.05;"/>
   </g>
   <g id="line2d_53">
    <path clip-path="url(#p1541a94176)" d="M 0 0 
" style="fill:none;stroke:#424242;stroke-linecap:square;stroke-width:4.05;"/>
   </g>
   <g id="line2d_54">
    <path clip-path="url(#p1541a94176)" d="M 0 0 
" style="fill:none;stroke:#424242;stroke-linecap:square;stroke-width:4.05;"/>
   </g>
   <g id="line2d_55">
    <path clip-path="url(#p1541a94176)" d="M 0 0 
" style="fill:none;stroke:#424242;stroke-linecap:square;stroke-width:4.05;"/>
   </g>
   <g id="line2d_56">
    <path clip-path="url(#p1541a94176)" d="M 0 0 
" style="fill:none;stroke:#424242;stroke-linecap:square;stroke-width:4.05;"/>
   </g>
   <g id="line2d_57">
    <path clip-path="url(#p1541a94176)" d="M 0 0 
" style="fill:none;stroke:#424242;stroke-linecap:square;stroke-width:4.05;"/>
   </g>
   <g id="line2d_58">
    <path clip-path="url(#p1541a94176)" d="M 0 0 
" style="fill:none;stroke:#424242;stroke-linecap:square;stroke-width:4.05;"/>
   </g>
   <g id="patch_23">
    <path d="M 77.791125 150.3025 
L 77.791125 39.0575 
" style="fill:none;stroke:#000000;stroke-linecap:square;stroke-linejoin:miter;stroke-width:1.875;"/>
   </g>
  </g>
 </g>
 <defs>
  <clipPath id="p1541a94176">
   <rect height="111.245" width="246.88877" x="77.791125" y="39.0575"/>
  </clipPath>
 </defs>
</svg>
